<svg fill="none" viewBox="0 0 24 24" xmlns="http://www.w3.org/2000/svg">
    <path clip-rule="evenodd" d="M1.5 6C1.5 4.61929 2.61929 3.5 4 3.5H15C16.3807 3.5 17.5 4.61929 17.5 6V12C17.5 13.3807 16.3807 14.5 15 14.5H4C2.61929 14.5 1.5 13.3807 1.5 12V6ZM4 4.5C3.17157 4.5 2.5 5.17157 2.5 6V12C2.5 12.8284 3.17157 13.5 4 13.5H15C15.8284 13.5 16.5 12.8284 16.5 12V6C16.5 5.17157 15.8284 4.5 15 4.5H4Z" fill="currentColor" fill-rule="evenodd" />
    <path clip-rule="evenodd" d="M20 9.5H17V8.5H20C21.3807 8.5 22.5 9.61929 22.5 11V17C22.5 18.3807 21.3807 19.5 20 19.5H9C7.61929 19.5 6.5 18.3807 6.5 17V13.5H7.5V17C7.5 17.8284 8.17157 18.5 9 18.5H20C20.8284 18.5 21.5 17.8284 21.5 17V11C21.5 10.1716 20.8284 9.5 20 9.5Z" fill="currentColor" fill-rule="evenodd" />
    <path clip-rule="evenodd" d="M1.5 7C1.5 6.72386 1.72386 6.5 2 6.5H17C17.2761 6.5 17.5 6.72386 17.5 7C17.5 7.27614 17.2761 7.5 17 7.5H2C1.72386 7.5 1.5 7.27614 1.5 7Z" fill="currentColor" fill-rule="evenodd" />
    <path clip-rule="evenodd" d="M16.5 12C16.5 11.7239 16.7239 11.5 17 11.5L22 11.5C22.2761 11.5 22.5 11.7239 22.5 12C22.5 12.2761 22.2761 12.5 22 12.5L17 12.5C16.7239 12.5 16.5 12.2761 16.5 12Z" fill="currentColor" fill-rule="evenodd" />
</svg>
