<?xml version="1.0" encoding="utf-8"?>
<!-- Generator: Adobe Illustrator 28.1.0, SVG Export Plug-In . SVG Version: 6.00 Build 0)  -->
<svg fill="currentColor" version="1.1" id="Layer_1" xmlns="http://www.w3.org/2000/svg" xmlns:xlink="http://www.w3.org/1999/xlink" x="0px" y="0px"
	 viewBox="0 0 15 15" style="enable-background:new 0 0 15 15;" xml:space="preserve">
<g id="XMLID_403_">
	<path d="M7.5,12c-0.6,0-1.1-0.1-1.7-0.3c-0.5-0.2-1-0.6-1.5-1c-0.5-0.5-0.9-1.1-1.1-1.8c0,0,0,0,0,0c0,0,0,0,0,0l0,0
		C3.2,8.6,3.1,8.3,3.1,8.1c0-0.3,0-0.6,0-0.9l0,0c0,0,0,0,0,0l0,0c0-0.1,0-0.2,0-0.2l0,0c0-0.1,0-0.2,0-0.3c0-0.2,0.1-0.3,0.1-0.5
		c0.2-0.7,0.6-1.3,1.1-1.8c0.4-0.4,0.9-0.8,1.5-1C6.4,3.1,6.9,3,7.5,3h0c0.6,0,1.1,0.1,1.7,0.3c0.5,0.2,1,0.6,1.5,1
		c0.5,0.5,0.9,1.1,1.1,1.8c0,0,0,0,0,0c0,0,0,0,0,0l0,0c0.1,0.4,0.2,0.9,0.2,1.3c0,0.4-0.1,0.9-0.2,1.3v0l0,0c0,0,0,0,0,0
		c0,0,0,0,0,0c-0.2,0.7-0.6,1.3-1.1,1.8c-0.4,0.4-0.9,0.8-1.5,1C8.6,11.9,8.1,12,7.5,12L7.5,12z M3.9,8.7c0.2,0.6,0.5,1.1,0.9,1.6
		c0.7,0.7,1.7,1.1,2.7,1.1h0c1,0,2-0.4,2.7-1.1c0.4-0.4,0.8-1,0.9-1.6c0,0,0,0,0,0c0.1-0.4,0.2-0.8,0.2-1.1c0-0.4-0.1-0.8-0.2-1.1
		c0,0,0,0,0,0c-0.2-0.6-0.5-1.1-0.9-1.6C9.5,4.1,8.5,3.7,7.5,3.7h0c-1,0-2,0.4-2.7,1.1c-0.4,0.4-0.8,1-0.9,1.6
		c0,0.1-0.1,0.3-0.1,0.4c0,0.1,0,0.1,0,0.2c0,0.1,0,0.2,0,0.2l0,0c0,0,0,0,0,0c0,0.2,0,0.5,0,0.7C3.8,8.2,3.8,8.4,3.9,8.7
		C3.9,8.7,3.9,8.7,3.9,8.7z"/>
	<path d="M7.3,11.9C6.5,11,6,10,5.8,8.9l0,0l0-0.1c-0.2-0.9-0.2-1.7,0-2.6c0,0,0,0,0,0C6,5,6.5,4,7.3,3.1l0.5,0.4
		C7,4.3,6.6,5.3,6.4,6.3l0,0.1c-0.1,0.8-0.1,1.5,0,2.3c0,0,0,0,0,0c0.2,1,0.7,2,1.4,2.7L7.3,11.9z"/>
	<rect x="3.6" y="5.9" width="7.9" height="0.6"/>
	<rect x="3.6" y="8.4" width="7.9" height="0.6"/>
	<path d="M7.7,11.9C7.7,11.9,7.7,11.9,7.7,11.9l-0.5-0.4l0,0c0,0,0,0,0,0C8,10.7,8.4,9.7,8.6,8.7l0-0.1c0.1-0.8,0.1-1.5,0-2.3
		c0,0,0,0,0,0c-0.2-1-0.7-2-1.4-2.8l0.5-0.4C8.5,4,9,5,9.2,6.1l0,0l0,0.1c0.2,0.9,0.2,1.8,0,2.6c0,0,0,0,0,0C9,10,8.5,11,7.7,11.9
		L7.7,11.9L7.7,11.9z"/>
</g>
<g>
	<path d="M12.5,1h-10C1.7,1,1,1.7,1,2.5v10C1,13.3,1.7,14,2.5,14h10c0.8,0,1.5-0.7,1.5-1.5v-10C14,1.7,13.3,1,12.5,1z M13,4.7v4.7v3
		v0.2c0,0.3-0.2,0.5-0.5,0.5h-2.3H2.5C2.2,13,2,12.8,2,12.5v-0.2v-4V4.7V2.5C2,2.2,2.2,2,2.5,2h10C12.8,2,13,2.2,13,2.5V4.7z"/>
</g>
</svg>
