<svg xmlns="http://www.w3.org/2000/svg" viewBox="0 0 100 100" fill="none">
    <path stroke="currentColor" stroke-width="6" d="M70.959 81.1953C71.37 81.1953 71.7809 81.5035 71.9864 81.9145L74.8632 91.1612C75.0686 91.7777 74.5549 92.4968 73.8357 92.4968H24.2117C23.4926 92.4968 22.9788 91.7777 23.1843 91.1612L26.0611 81.9145C26.1638 81.5035 26.5748 81.1953 27.0885 81.1953H70.959Z" />
    <path stroke="currentColor" stroke-linecap="round" stroke-width="6" d="M36.1299 85.3047L46.404 9.27619C46.7122 6.91314 50.1027 6.91314 50.5137 9.27619L61.8152 85.4074" />
    <path stroke="currentColor" stroke-linecap="round" stroke-width="6" d="M8.38965 12.3574H89.5552" />
    <path stroke="currentColor" stroke-linejoin="round" stroke-width="6" d="M96.7475 55.5091L85.446 16.6729C85.1378 15.6455 83.8021 15.6455 83.4939 16.6729L72.1924 55.5091C72.1924 62.29 77.7404 67.838 84.5213 67.838C91.3023 67.838 96.8503 62.29 96.8503 55.5091H96.7475Z" />
    <path stroke="currentColor" stroke-linejoin="round" stroke-width="6" d="M3.25264 52.4278L14.5542 13.6944C14.8624 12.667 16.198 12.667 16.5063 13.6944L27.8078 52.5306C27.8078 59.3115 22.2598 64.8595 15.4788 64.8595C8.69793 64.8595 3.1499 59.3115 3.1499 52.5306L3.25264 52.4278ZM3.25264 52.4278H27.9105" />
    <path stroke="currentColor" stroke-linejoin="round" stroke-width="6" d="M96.7473 55.5098H72.0894" />
</svg>
