<svg viewBox="0 0 84 89" fill="none" xmlns="http://www.w3.org/2000/svg">
<path d="M41.7722 54.9214C47.7464 54.9214 52.5894 50.0784 52.5894 44.1043C52.5894 38.1301 47.7464 33.2871 41.7722 33.2871C35.7981 33.2871 30.9551 38.1301 30.9551 44.1043C30.9551 50.0784 35.7981 54.9214 41.7722 54.9214Z" stroke="currentColor" stroke-width="3.04558" stroke-linecap="round" stroke-linejoin="round"/>
<path d="M41.7722 23.607C47.7464 23.607 52.5894 18.764 52.5894 12.7898C52.5894 6.81566 47.7464 1.97266 41.7722 1.97266C35.7981 1.97266 30.9551 6.81566 30.9551 12.7898C30.9551 18.764 35.7981 23.607 41.7722 23.607Z" stroke="currentColor" stroke-width="3.04558" stroke-linecap="round" stroke-linejoin="round"/>
<path d="M70.7896 40.4117C76.7637 40.4117 81.6067 35.5687 81.6067 29.5945C81.6067 23.6204 76.7637 18.7773 70.7896 18.7773C64.8154 18.7773 59.9724 23.6204 59.9724 29.5945C59.9724 35.5687 64.8154 40.4117 70.7896 40.4117Z" stroke="currentColor" stroke-width="3.04558" stroke-linecap="round" stroke-linejoin="round"/>
<path d="M70.7896 70.0347C76.7637 70.0347 81.6067 65.1917 81.6067 59.2176C81.6067 53.2434 76.7637 48.4004 70.7896 48.4004C64.8154 48.4004 59.9724 53.2434 59.9724 59.2176C59.9724 65.1917 64.8154 70.0347 70.7896 70.0347Z" stroke="currentColor" stroke-width="3.04558" stroke-linecap="round" stroke-linejoin="round"/>
<path d="M12.6951 40.4117C18.6692 40.4117 23.5123 35.5687 23.5123 29.5945C23.5123 23.6204 18.6692 18.7773 12.6951 18.7773C6.72094 18.7773 1.87793 23.6204 1.87793 29.5945C1.87793 35.5687 6.72094 40.4117 12.6951 40.4117Z" stroke="currentColor" stroke-width="3.04558" stroke-linecap="round" stroke-linejoin="round"/>
<path d="M12.6951 70.0347C18.6692 70.0347 23.5123 65.1917 23.5123 59.2176C23.5123 53.2434 18.6692 48.4004 12.6951 48.4004C6.72094 48.4004 1.87793 53.2434 1.87793 59.2176C1.87793 65.1917 6.72094 70.0347 12.6951 70.0347Z" stroke="currentColor" stroke-width="3.04558" stroke-linecap="round" stroke-linejoin="round"/>
<path d="M41.7722 87.2749C47.7464 87.2749 52.5894 82.4319 52.5894 76.4578C52.5894 70.4836 47.7464 65.6406 41.7722 65.6406C35.7981 65.6406 30.9551 70.4836 30.9551 76.4578C30.9551 82.4319 35.7981 87.2749 41.7722 87.2749Z" stroke="currentColor" stroke-width="3.04558" stroke-linecap="round" stroke-linejoin="round"/>
</svg>
