<svg viewBox="0 0 100 100" fill="none" xmlns="http://www.w3.org/2000/svg">
<path d="M84.729 87.9363C79.8931 87.9363 77.4018 85.4939 75.2037 83.2958C73.2009 81.3418 71.4912 79.6322 67.9742 79.6322C64.4571 79.6322 62.7475 81.3418 60.7447 83.2958C58.5465 85.4451 56.1041 87.9363 51.2194 87.9363C46.3346 87.9363 43.8922 85.4939 41.694 83.2958C39.6912 81.293 37.9816 79.6322 34.4157 79.6322C30.8498 79.6322 29.1401 81.3418 27.1373 83.2958C24.9392 85.4451 22.4479 87.9363 17.612 87.9363C16.7327 87.9363 16 87.2036 16 86.3243C16 85.4451 16.7327 84.7124 17.612 84.7124C21.129 84.7124 22.8876 83.0027 24.8415 81.0488C27.0396 78.8994 29.5309 76.4082 34.3668 76.4082C39.2028 76.4082 41.694 78.8506 43.8922 81.0488C45.8949 83.0027 47.6046 84.7124 51.1217 84.7124C54.6387 84.7124 56.3484 83.0027 58.3512 81.0488C60.5493 78.8994 62.9917 76.4082 67.8765 76.4082C72.7613 76.4082 75.2037 78.8506 77.4018 81.0488C79.4046 83.0515 81.1143 84.7124 84.6313 84.7124C85.5106 84.7124 86.2433 85.4451 86.2433 86.3243C86.2433 87.2036 85.5106 87.9363 84.6313 87.9363H84.729Z" fill="currentColor"/>
<path d="M84.729 71.9637C79.8931 71.9637 77.4018 69.5213 75.2037 67.3231C73.2009 65.3692 71.4912 63.6595 67.9742 63.6595C64.4571 63.6595 62.7475 65.3692 60.7447 67.3231C58.5465 69.4724 56.1041 71.9637 51.2194 71.9637C46.3346 71.9637 43.8922 69.5213 41.694 67.3231C39.6912 65.3203 37.9816 63.6595 34.4157 63.6595C30.8498 63.6595 29.1401 65.3692 27.1373 67.3231C24.9392 69.4724 22.4479 71.9637 17.612 71.9637C16.7327 71.9637 16 71.2309 16 70.3517C16 69.4724 16.7327 68.7397 17.612 68.7397C21.129 68.7397 22.8876 67.03 24.8415 65.0761C27.0396 62.9268 29.5309 60.4355 34.3668 60.4355C39.2028 60.4355 41.694 62.8779 43.8922 65.0761C45.8949 67.03 47.6046 68.7397 51.1217 68.7397C54.6387 68.7397 56.3484 67.03 58.3512 65.0761C60.5493 62.9268 62.9917 60.4355 67.8765 60.4355C72.7613 60.4355 75.2037 62.8779 77.4018 65.0761C79.4046 67.0789 81.1143 68.7397 84.6313 68.7397C85.5106 68.7397 86.2433 69.4724 86.2433 70.3517C86.2433 71.2309 85.5106 71.9637 84.6313 71.9637H84.729Z" fill="currentColor"/>
<path d="M39.8374 38.2571L49.6558 48.8083C50.4862 49.6876 51.9028 49.6876 52.7332 48.8083L62.5517 38.2571C63.1378 37.6221 63.089 36.694 62.454 36.1078C61.8189 35.5217 60.8908 35.5705 60.3047 36.2055L53.124 43.9235C53.124 43.9235 52.6844 43.9724 52.6844 43.777V12.5143C52.6844 11.6839 52.0005 11 51.1701 11C50.3397 11 49.6558 11.6839 49.6558 12.5143V43.7281C49.6558 43.7281 49.3627 44.07 49.2162 43.8747L42.0355 36.1078C41.4494 35.4728 40.5212 35.4728 39.8862 36.0101C39.2512 36.5963 39.2512 37.5244 39.7885 38.1594L39.8374 38.2571Z" fill="currentColor"/>
</svg>
