<svg viewBox="0 0 100 96" fill="none" xmlns="http://www.w3.org/2000/svg">
<path d="M50.6298 18.5764C54.7818 18.5764 58.1523 15.2059 58.1523 11.0538C58.1523 6.90176 54.7818 3.53125 50.6298 3.53125C46.4777 3.53125 43.1072 6.90176 43.1072 11.0538C43.1072 15.2059 46.4777 18.5764 50.6298 18.5764ZM50.6298 5.77825C53.5118 5.77825 55.9053 8.12295 55.9053 11.0538C55.9053 13.9847 53.5606 16.3294 50.6298 16.3294C47.6989 16.3294 45.3542 13.9847 45.3542 11.0538C45.3542 8.12295 47.6989 5.77825 50.6298 5.77825Z" fill="black"/>
<path d="M51.2136 90.6275C51.2136 90.6275 55.9519 87.5989 55.9519 83.0072C55.9519 79.0017 54.2422 76.4127 52.2394 74.3123C52.386 74.2146 52.5325 74.068 52.6302 73.9215C55.3657 71.4302 58.492 68.6459 58.492 63.1749C58.492 58.6809 55.7076 55.9943 52.6302 53.845C56.2938 51.4514 60.1528 48.6671 60.1528 43.3915C60.1528 39.1417 57.4173 36.6505 55.0237 34.9408C54.5353 34.5989 53.8026 34.6966 53.4606 35.1851C53.1187 35.6735 53.2164 36.4063 53.7049 36.7482C56.6357 38.8487 57.8569 40.8026 57.8569 43.3427C57.8569 47.2994 54.9749 49.4975 51.7021 51.6468V27.8579C51.7021 27.2229 51.2136 26.7344 50.5786 26.7344C49.9436 26.7344 49.4551 27.2229 49.4551 27.8579V51.6468C46.1823 49.4975 43.3002 47.2505 43.3002 43.2938C43.3002 40.7537 44.5214 38.751 47.4523 36.6994C47.9408 36.3574 48.0873 35.6247 47.6966 35.1362C47.3546 34.6477 46.6219 34.5012 46.1334 34.892C43.7399 36.6017 41.0044 39.0929 41.0044 43.3427C41.0044 48.6182 44.8634 51.4026 48.527 53.7961C45.4496 55.9454 42.6652 58.6809 42.6652 63.1261C42.6652 68.597 45.7915 71.3814 48.527 73.8726C48.6735 74.0192 48.8201 74.1169 48.9178 74.2634C46.915 76.315 45.2053 78.904 45.2053 82.9583C45.2053 87.4035 49.4551 90.2367 49.9436 90.5786C50.2855 90.774 50.8228 90.8229 51.1648 90.5786L51.2136 90.6275ZM45.0099 63.2238C45.0099 59.951 47.0127 57.8994 49.5528 56.0431V71.7233C47.1592 69.5252 45.0099 67.327 45.0099 63.2238ZM47.55 83.0072C47.55 80.5159 48.3316 78.7086 49.5039 77.1943V87.2081C48.527 86.1823 47.55 84.7657 47.55 83.0072ZM53.7049 83.0072C53.7049 84.7169 52.7279 86.1335 51.7998 87.1593V77.2431C52.9233 78.7574 53.7049 80.5648 53.7049 83.0072ZM56.2449 63.2238C56.2449 67.327 54.1445 69.5252 51.7509 71.6745V56.0431C54.2422 57.8994 56.2449 59.951 56.2449 63.2238Z" fill="black"/>
<path d="M45.8444 22.0898C45.2094 22.0898 44.7209 22.5783 44.7209 23.2133C44.7209 23.8484 45.2094 24.3368 45.8444 24.3368H55.3698C56.0048 24.3368 56.4933 23.8484 56.4933 23.2133C56.4933 22.5783 56.0048 22.0898 55.3698 22.0898H45.8444Z" fill="black"/>
<path d="M24.0578 26.8815C20.7362 31.229 17.5611 35.2834 11.4062 33.7691C11.0154 33.6714 10.527 33.8179 10.2339 34.1599C9.94078 34.5018 9.94078 34.9903 10.1362 35.3811C10.2827 35.6253 13.6532 41.5847 20.4431 43.2456C21.5666 43.4898 22.6901 43.6364 23.8624 43.6364C27.5749 43.6364 31.4827 42.2686 35.5371 39.5331C36.0744 39.1912 36.1721 38.4585 35.8302 37.97C35.4882 37.4327 34.7555 37.335 34.267 37.6769C29.5288 40.9009 25.0836 42.0244 21.0293 41.0474C17.5611 40.217 15.1187 38.0188 13.6532 36.3092C19.4173 36.4069 22.8366 32.1082 25.8652 28.2004C29.5777 23.4133 32.4597 19.6032 39.103 23.511C39.6403 23.8041 40.3242 23.6576 40.6661 23.1202C40.9592 22.5829 40.8127 21.899 40.2753 21.5571C31.9223 16.6723 27.8191 22.0944 24.1067 26.8327L24.0578 26.8815Z" fill="black"/>
<path d="M90.7386 34.2067C90.4943 33.8648 90.0059 33.6694 89.5662 33.8159C83.4602 35.3302 80.2851 31.227 76.9146 26.9284C73.251 22.1901 69.0989 16.768 60.746 21.6528C60.2086 21.9459 60.0132 22.6786 60.3552 23.2159C60.6971 23.7533 61.381 23.9487 61.9183 23.6067C68.5128 19.7477 71.4436 23.509 75.1561 28.2961C78.1847 32.204 81.5063 36.5026 87.3681 36.4049C85.9026 38.0657 83.4602 40.3127 79.992 41.1431C75.9865 42.1201 71.4925 40.9477 66.7542 37.7726C66.2658 37.4307 65.533 37.5772 65.1911 38.0657C64.8492 38.603 64.9957 39.2869 65.4842 39.6288C69.5386 42.3643 73.4464 43.7321 77.1589 43.7321C78.3312 43.7321 79.4547 43.5855 80.5294 43.3413C87.3192 41.7293 90.6897 35.7698 90.8363 35.4768C91.0317 35.086 91.0317 34.5975 90.7386 34.2556V34.2067Z" fill="black"/>
</svg>
