<svg viewBox="0 0 100 100" fill="none" xmlns="http://www.w3.org/2000/svg">
<path d="M63.3312 74.0563L53.027 62.9831C52.1555 62.0603 50.6688 62.0603 49.7973 62.9831L39.4931 74.0563C38.8779 74.7227 38.9292 75.6968 39.5956 76.3119C40.2621 76.9271 41.2361 76.8759 41.8513 76.2094L49.3872 68.1096C49.3872 68.1096 49.8486 68.0583 49.8486 68.2634V92.2553C49.8486 93.1268 50.5663 93.8445 51.4378 93.8445C52.3093 93.8445 53.027 93.1268 53.027 92.2553V68.2634C53.027 68.2634 53.3346 67.9045 53.4884 68.1096L61.0243 76.2607C61.6395 76.9271 62.6135 76.9271 63.28 76.3632C63.9464 75.748 63.9464 74.774 63.3825 74.1076L63.3312 74.0563Z" fill="black"/>
<path d="M28.7882 63.3434L39.8614 53.0392C40.7842 52.1677 40.7842 50.681 39.8614 49.8095L28.7882 39.5053C28.1218 38.8901 27.1478 38.9414 26.5326 39.6078C25.9174 40.2743 25.9687 41.2483 26.6351 41.8635L34.7349 49.3994C34.7349 49.3994 34.7862 49.8608 34.5812 49.8608H10.5892C9.71771 49.8608 9 50.5785 9 51.45C9 52.3215 9.71771 53.0392 10.5892 53.0392H34.5812C34.5812 53.0392 34.94 53.3468 34.7349 53.5006L26.5838 61.0365C25.9174 61.6517 25.9174 62.6257 26.4813 63.2922C27.0965 63.9586 28.0705 63.9586 28.737 63.3947L28.7882 63.3434Z" fill="black"/>
<path d="M39.5066 28.7882L49.8108 39.8614C50.6824 40.7842 52.169 40.7842 53.0405 39.8614L63.3448 28.7882C63.9599 28.1218 63.9087 27.1478 63.2422 26.5326C62.5758 25.9174 61.6018 25.9687 60.9866 26.6351L53.4507 34.7349C53.4507 34.7349 52.9893 34.7862 52.9893 34.5812V10.5892C52.9893 9.71771 52.2716 9 51.4001 9C50.5286 9 49.8108 9.71771 49.8108 10.5892V34.5812C49.8108 34.5812 49.5033 34.94 49.3495 34.7349L41.8135 26.5838C41.1984 25.9174 40.2243 25.9174 39.5579 26.4813C38.8914 27.0965 38.8914 28.0705 39.4554 28.737L39.5066 28.7882Z" fill="black"/>
<path d="M74.0602 39.5052L62.987 49.8094C62.0642 50.6809 62.0642 52.1676 62.987 53.0391L74.0602 63.3433C74.7266 63.9585 75.7007 63.9072 76.3159 63.2408C76.931 62.5743 76.8798 61.6003 76.2133 60.9851L68.1135 53.4492C68.1135 53.4492 68.0622 52.9878 68.2673 52.9878H92.2592C93.1307 52.9878 93.8484 52.2701 93.8484 51.3986C93.8484 50.5271 93.1307 49.8094 92.2592 49.8094H68.2673C68.2673 49.8094 67.9084 49.5018 68.1135 49.348L76.2646 41.8121C76.931 41.1969 76.931 40.2229 76.3671 39.5564C75.7519 38.89 74.7779 38.89 74.1115 39.4539L74.0602 39.5052Z" fill="black"/>
</svg>
