<svg viewBox="0 0 100 96" fill="none" xmlns="http://www.w3.org/2000/svg">
<path d="M46.0498 82.4212C45.3171 82.4212 44.682 81.835 44.682 81.0535V54.2359C44.682 47.2995 50.2995 41.682 57.2359 41.682H92.8949C93.6276 41.682 94.2627 42.2682 94.2627 43.0498C94.2627 43.8313 93.6765 44.4175 92.8949 44.4175H57.2359C51.8138 44.4175 47.4175 48.8138 47.4175 54.2359V81.0535C47.4175 81.7862 46.8313 82.4212 46.0498 82.4212ZM11.3677 82.4212C10.635 82.4212 10 81.835 10 81.0535V26.3438C10 15.6461 18.6461 7 29.2949 7H55.3309C60.753 7 65.4912 10.7124 67.0544 16.2811C69.9853 26.6857 81.0737 34.5014 92.8461 34.5014C93.5788 34.5014 94.2138 35.0876 94.2138 35.8691C94.2138 36.6507 93.6276 37.2369 92.8461 37.2369C79.9014 37.2369 67.6894 28.5419 64.4166 17.0138C63.1954 12.6175 59.5318 9.68664 55.282 9.68664H29.2949C20.1604 9.73548 12.7355 17.1604 12.7355 26.3438V81.0535C12.7355 81.7862 12.1493 82.4212 11.3677 82.4212ZM28.7088 51.1585C27.341 51.1585 26.0221 50.67 24.9475 49.8396C23.6774 48.8138 22.8959 47.3972 22.7493 45.7853C22.5539 44.1733 23.0424 42.6101 24.0682 41.3889C25.094 40.1189 26.5106 39.3373 28.1226 39.1908C31.3465 38.8488 34.3751 41.2424 34.7171 44.5641C35.059 47.8857 32.6654 50.8166 29.3438 51.2074C29.1484 51.2074 28.9041 51.2074 28.7088 51.2074V51.1585ZM28.7088 41.8286C28.7088 41.8286 28.4645 41.8286 28.3668 41.8286C27.4876 41.9263 26.706 42.3659 26.1687 43.0498C25.6313 43.7336 25.3383 44.6129 25.4359 45.4433C25.5336 46.3226 25.9733 47.1041 26.6571 47.6415C27.341 48.1788 28.2203 48.423 29.0507 48.3742C30.8581 48.1788 32.177 46.5668 31.9816 44.7594C31.7862 43.0498 30.3696 41.8286 28.7088 41.8286ZM47.1244 31.8147C45.7567 31.8147 44.4378 31.3263 43.3631 30.4959C42.0931 29.47 41.3115 28.0535 41.165 26.4415C40.9696 24.8295 41.4581 23.2664 42.4839 21.9963C43.5097 20.7263 44.9263 19.9447 46.5382 19.7982C48.1502 19.6028 49.7134 20.0912 50.9346 21.1171C52.2046 22.1429 52.9862 23.5594 53.1327 25.1714C53.4747 28.4931 51.0811 31.424 47.7594 31.7659C47.5641 31.7659 47.3198 31.7659 47.1244 31.7659V31.8147ZM47.1244 22.4848C47.1244 22.4848 46.8802 22.4848 46.7825 22.4848C45.9032 22.5825 45.1217 23.0221 44.5843 23.706C44.047 24.3899 43.7539 25.2691 43.8516 26.0995C43.9493 26.9788 44.3889 27.7604 45.0728 28.2977C45.7567 28.835 46.6359 29.1281 47.5152 29.0304C49.3226 28.835 50.6415 27.223 50.4461 25.4157C50.3484 24.5364 49.9088 23.7548 49.2249 23.2175C48.6387 22.729 47.906 22.4848 47.1733 22.4848H47.1244ZM28.7088 31.8147C27.341 31.8147 26.0221 31.3263 24.9475 30.4959C23.6774 29.47 22.8959 28.0535 22.7493 26.4415C22.5539 24.8295 23.0424 23.2664 24.0682 21.9963C25.094 20.7263 26.5106 19.9447 28.1226 19.7982C29.7346 19.6028 31.2977 20.0912 32.5189 21.1171C33.7889 22.1429 34.5705 23.5594 34.7171 25.1714C35.059 28.4931 32.6654 31.424 29.3438 31.7659C29.1484 31.7659 28.9041 31.7659 28.7088 31.7659V31.8147ZM28.7088 22.4848C28.7088 22.4848 28.4645 22.4848 28.3668 22.4848C27.4876 22.5825 26.706 23.0221 26.1687 23.706C25.6313 24.3899 25.3383 25.2691 25.4359 26.0995C25.5336 26.9788 25.9733 27.7604 26.6571 28.2977C27.341 28.835 28.2203 29.1281 29.0995 29.0304C30.9069 28.835 32.2258 27.223 32.0304 25.4157C31.9327 24.5364 31.4931 23.7548 30.8092 23.2175C30.223 22.729 29.4903 22.4848 28.7576 22.4848H28.7088Z" fill="black"/>
<path d="M17.3291 72.7409L27.1475 83.292C27.9779 84.1713 29.3945 84.1713 30.2249 83.292L40.0434 72.7409C40.6295 72.1059 40.5807 71.1778 39.9457 70.5916C39.3106 70.0054 38.3825 70.0543 37.7963 70.6893L30.6157 78.4073C30.6157 78.4073 30.1761 78.4561 30.1761 78.2607L30.1761 59.5006C30.1761 58.6702 29.4922 57.9863 28.6618 57.9863C27.8314 57.9863 27.1475 58.6702 27.1475 59.5006L27.1475 78.2607C27.1475 78.2607 26.8544 78.6026 26.7079 78.4073L19.5272 70.6404C18.941 70.0054 18.0129 70.0054 17.3779 70.5427C16.7429 71.1289 16.7429 72.057 17.2802 72.692L17.3291 72.7409Z" fill="black"/>
</svg>
