<svg viewBox="0 0 100 100" fill="none" xmlns="http://www.w3.org/2000/svg">
    <path stroke="currentColor" stroke-width="6" stroke-miterlimit="10" stroke-linecap="round" d="M50 52C62.7025 52 73 41.7025 73 29C73 16.2974 62.7025 6 50 6C37.2975 6 27 16.2974 27 29C27 41.7025 37.2975 52 50 52Z" />
    <path stroke="currentColor" stroke-width="6" stroke-miterlimit="10" stroke-linecap="round" d="M14 81.3838C14 74.8384 18.4062 69.1414 24.6384 67.5657L35.5943 64.8182C45.3991 62.3939 55.6009 62.3939 65.4057 64.8182L76.3616 67.5657C82.5938 69.101 87 74.8384 87 81.3838C87 87.7677 82.435 93.2222 76.2425 94.2323L67.8271 95.6061C56.3551 97.4646 44.6449 97.4646 33.1729 95.6061L24.7575 94.2323C18.565 93.2222 14 87.7677 14 81.3838Z" />
</svg>
