<svg xmlns="http://www.w3.org/2000/svg" viewBox="0 0 100 100" fill="none">
    <path stroke="currentColor" stroke-linecap="round" stroke-miterlimit="10" stroke-width="6" d="M39 52C51.7025 52 62 41.7025 62 29C62 16.2974 51.7025 6 39 6C26.2975 6 16 16.2974 16 29C16 41.7025 26.2975 52 39 52Z" />
    <path stroke="currentColor" stroke-linecap="round" stroke-miterlimit="10" stroke-width="6" d="M3 81.3838C3 74.8384 7.4062 69.1414 13.6384 67.5657L24.5943 64.8182C34.3991 62.3939 44.6009 62.3939 54.4057 64.8182L65.3616 67.5657C71.5938 69.101 76 74.8384 76 81.3838C76 87.7677 71.435 93.2222 65.2425 94.2323L56.8271 95.6061C45.3551 97.4646 33.6449 97.4646 22.1729 95.6061L13.7575 94.2323C7.56498 93.2222 3 87.7677 3 81.3838Z" />
    <path stroke="currentColor" stroke-linecap="round" stroke-miterlimit="10" stroke-width="6" d="M75.3534 17.4021H97" />
</svg>
