<svg viewBox="0 0 38 47" fill="none" xmlns="http://www.w3.org/2000/svg">
    <path stroke="currentColor" stroke-width="2" stroke-miterlimit="10" stroke-linecap="round" d="M18.5658 23.9581C24.703 23.9581 29.6781 18.9813 29.6781 12.842C29.6781 6.7027 24.703 1.72583 18.5658 1.72583C12.4287 1.72583 7.45349 6.7027 7.45349 12.842C7.45349 18.9813 12.4287 23.9581 18.5658 23.9581Z" />
    <path stroke="currentColor" stroke-width="2" stroke-miterlimit="10" stroke-linecap="round" d="M1 38.2449C1 35.1507 3.11934 32.4576 6.11699 31.7127L11.3868 30.4139C16.1028 29.2679 21.0098 29.2679 25.7258 30.4139L30.9956 31.7127C33.9932 32.4385 36.1126 35.1507 36.1126 38.2449C36.1126 41.2627 33.9168 43.8412 30.9383 44.3187L26.8905 44.9681C21.3725 45.8467 15.7401 45.8467 10.2221 44.9681L6.17427 44.3187C3.19571 43.8412 1 41.2627 1 38.2449Z" />
</svg>
