<svg xmlns="http://www.w3.org/2000/svg" viewBox="0 0 101 100" fill="none">
    <path stroke="currentColor" stroke-linecap="round" stroke-miterlimit="10" stroke-width="6" d="M50.0536 47.7857C58.3083 47.7857 65 41.3418 65 33.3929C65 25.4439 58.3083 19 50.0536 19C41.7989 19 35.1072 25.4439 35.1072 33.3929C35.1072 41.3418 41.7989 47.7857 50.0536 47.7857Z" />
    <path stroke="currentColor" stroke-linecap="round" stroke-miterlimit="10" stroke-width="6" d="M27.3572 71.3384C27.3572 67.2887 30.1639 63.764 34.1337 62.7891L41.1125 61.0893C47.358 59.5894 53.8564 59.5894 60.1019 61.0893L67.0807 62.7891C71.0505 63.739 73.8572 67.2887 73.8572 71.3384C73.8572 75.2881 70.9493 78.6628 67.0048 79.2877L61.6443 80.1376C54.3368 81.2875 46.8776 81.2875 39.5701 80.1376L34.2095 79.2877C30.265 78.6628 27.3572 75.2881 27.3572 71.3384Z" />
    <path stroke="currentColor" stroke-linecap="round" stroke-miterlimit="10" stroke-width="6" d="M82.3717 47.8913C87.4817 47.8913 91.6242 43.9022 91.6242 38.9814C91.6242 34.0606 87.4817 30.0715 82.3717 30.0715C77.2616 30.0715 73.1191 34.0606 73.1191 38.9814C73.1191 43.9022 77.2616 47.8913 82.3717 47.8913Z" />
    <path stroke="currentColor" stroke-linecap="round" stroke-miterlimit="10" stroke-width="6" d="M74.2226 69.3423L75.8818 69.6054C80.4055 70.3173 85.0231 70.3173 89.5468 69.6054L92.8652 69.0793C95.3071 68.6924 97.1072 66.6033 97.1072 64.1583C97.1072 61.6513 95.3697 59.4539 92.9122 58.8658L88.592 57.8136C84.7257 56.8851 80.7029 56.8851 76.8367 57.8136L72.5165 58.8658C70.4408 59.3756 68.8788 61.0114 68.4435 63.018" />
    <path stroke="currentColor" stroke-linecap="round" stroke-miterlimit="10" stroke-width="6" d="M17.0502 47.8913C22.1602 47.8913 26.3027 43.9022 26.3027 38.9814C26.3027 34.0606 22.1602 30.0715 17.0502 30.0715C11.9401 30.0715 7.79761 34.0606 7.79761 38.9814C7.79761 43.9022 11.9401 47.8913 17.0502 47.8913Z" />
    <path stroke="currentColor" stroke-linecap="round" stroke-miterlimit="10" stroke-width="6" d="M27.5438 69.0793L24.2254 69.6054C19.7017 70.3173 15.0841 70.3173 10.5604 69.6054L7.24194 69.0793C4.80009 68.6924 3 66.6033 3 64.1583C3 61.6513 4.73747 59.4694 7.19498 58.8658L11.5152 57.8136C15.3815 56.8851 19.4043 56.8851 23.2705 57.8136L27.5907 58.8658C29.8482 59.406 31.4982 61.3043 31.7517 63.5531" />
</svg>
