<svg viewBox="0 0 14 16" fill="none" xmlns="http://www.w3.org/2000/svg">
<path d="M1.47059 15.4102C1.06618 15.4102 0.719976 15.2703 0.431985 14.9905C0.143995 14.7108 0 14.3744 0 13.9816V5.41016C0 5.0173 0.143995 4.68099 0.431985 4.40123C0.719976 4.12147 1.06618 3.98159 1.47059 3.98159H2.94118C2.94118 2.99349 3.29963 2.15123 4.01654 1.4548C4.73346 0.758371 5.60049 0.410156 6.61765 0.410156C7.6348 0.410156 8.50184 0.758371 9.21875 1.4548C9.93566 2.15123 10.2941 2.99349 10.2941 3.98159H11.7647C12.1691 3.98159 12.5153 4.12147 12.8033 4.40123C13.0913 4.68099 13.2353 5.0173 13.2353 5.41016V13.9816C13.2353 14.3744 13.0913 14.7108 12.8033 14.9905C12.5153 15.2703 12.1691 15.4102 11.7647 15.4102H1.47059ZM1.47059 13.9816H11.7647V5.41016H1.47059V13.9816ZM6.61765 9.69587C7.6348 9.69587 8.50184 9.34766 9.21875 8.65123C9.93566 7.9548 10.2941 7.11254 10.2941 6.12444H8.82353C8.82353 6.71968 8.60907 7.22563 8.18015 7.6423C7.75123 8.05897 7.23039 8.2673 6.61765 8.2673C6.0049 8.2673 5.48407 8.05897 5.05515 7.6423C4.62623 7.22563 4.41177 6.71968 4.41177 6.12444H2.94118C2.94118 7.11254 3.29963 7.9548 4.01654 8.65123C4.73346 9.34766 5.60049 9.69587 6.61765 9.69587ZM4.41177 3.98159H8.82353C8.82353 3.38635 8.60907 2.88039 8.18015 2.46373C7.75123 2.04706 7.23039 1.83873 6.61765 1.83873C6.0049 1.83873 5.48407 2.04706 5.05515 2.46373C4.62623 2.88039 4.41177 3.38635 4.41177 3.98159Z" fill="currentColor"/>
</svg>
