<svg viewBox="0 0 100 100" fill="none" xmlns="http://www.w3.org/2000/svg">
    <path stroke="currentColor" stroke-width="6" d="M4.19531 34.1406L64.5953 46.9406V93.2406M97.5953 19.8406L64.6953 46.9406M74.2953 14.0406L42.4953 39.9406C41.2953 40.8406 40.6953 42.3406 40.6953 43.8406V54.0406C40.6953 55.3406 39.4953 56.2406 38.2953 56.0406L28.0953 53.8406C27.1953 53.6406 26.4953 52.8406 26.4953 51.8406V40.8406C26.4953 39.3406 27.1953 37.8406 28.3953 36.9406L60.8953 10.8406M96.9953 19.7406L40.5953 6.54063C38.7953 6.14063 36.8953 6.54062 35.4953 7.74062L4.49531 33.9406C4.29531 34.1406 4.19531 34.3406 4.19531 34.5406V75.5406C4.19531 78.2406 6.09531 80.6406 8.79531 81.2406L64.2953 93.2406C64.4953 93.2406 64.7953 93.2406 64.9953 93.0406L95.5953 66.9406C96.8953 65.8406 97.5953 64.2406 97.5953 62.5406V20.5406C97.5953 20.1406 97.2953 19.8406 96.9953 19.7406Z" />
</svg>
