<svg xmlns="http://www.w3.org/2000/svg" viewBox="0 0 100 100" fill="none">
    <path stroke="currentColor" stroke-width="6" d="M14.125 50.6398L60.5244 60.4728V96.0405M85.875 39.6546L60.6012 60.4728M67.9759 35.199L43.5471 55.0954C42.6253 55.7868 42.1643 56.9391 42.1643 58.0914V65.9271C42.1643 66.9257 41.2425 67.6171 40.3207 67.4635L32.485 65.7734C31.7936 65.6198 31.2559 65.0052 31.2559 64.237V55.7868C31.2559 54.6345 31.7936 53.4822 32.7155 52.7908L57.682 32.7408M85.4141 39.5778L42.0875 29.4375C40.7048 29.1302 39.2452 29.4375 38.1697 30.3593L14.3555 50.4862C14.2018 50.6398 14.125 50.7935 14.125 50.9471V82.4434C14.125 84.5175 15.5846 86.3612 17.6587 86.8221L60.2939 96.0405C60.4475 96.0405 60.678 96.0405 60.8316 95.8869L84.3386 75.8368C85.3373 74.9918 85.875 73.7627 85.875 72.4568V40.1923C85.875 39.885 85.6445 39.6546 85.4141 39.5778Z" />
    <path stroke="currentColor" stroke-linecap="round" stroke-width="6" d="M74.9497 11.2891H28.5623" />
    <path stroke="currentColor" stroke-linecap="round" stroke-width="6" d="M33.4727 3.33203L26.5899 9.8324C25.7542 10.6216 25.7542 11.9512 26.5899 12.7404L33.4727 19.2408" />
</svg>
