<svg xmlns="http://www.w3.org/2000/svg" viewBox="0 0 100 100" fill="none">
    <path stroke="currentColor" stroke-linecap="round" stroke-miterlimit="10" stroke-width="6" d="M70.931802 82.861846C69.373465 80.563358 67.93204 78.225901 66.451644 75.888444L74.04838 72.187501C72.957592 70.862891 72.02259 70.707105 70.581164 71.33044C56.59539 77.213053 42.570741 77.213053 28.584966 71.33044C27.182416 70.746075 26.208539 70.824016 25.156626 72.187501L25.464871 72.334448C27.888539 73.490345 30.249283 74.616111 32.753362 75.849473C31.272966 78.14796 29.870511 80.485418 28.351145 82.706059C28.117418 83.056697 27.338297 83.290424 26.948689 83.173513C19.390923 80.797085 12.37855 77.251929 5.911629 72.615984C5.52205 72.382257 5.210392 71.797893 5.171441 71.33044C3.574172 53.448871 7.97638 37.12564 17.949497 22.204958C18.300135 21.659564 18.884499 21.192016 19.468863 20.919319C24.650202 18.620832 30.065362 16.98465 35.636214 15.854891C36.610186 15.66004 37.311461 15.815921 37.584158 16.828768C38.40225 19.867501 40.116372 20.412895 43.271921 20.140198C48.336444 19.71162 53.517782 20.179168 58.62118 20.334954C59.556182 20.334954 60.023731 20.218139 60.413244 19.322107L60.446416 19.249584C62.089632 15.656998 62.192 15.433347 66.02316 16.478131C70.776016 17.76377 75.41196 19.477893 80.047905 21.0752C80.515358 21.230986 80.943937 21.69844 81.216634 22.127018C90.215826 35.645339 94.890741 50.449204 94.384222 66.772341C94.228436 71.992745 94.306376 72.03162 89.982099 74.875596C84.488998 78.498598 78.528539 81.225663 72.256412 83.212483C71.866804 83.368269 71.126558 83.173513 70.931802 82.861846Z" />
    <path stroke="currentColor" stroke-linecap="round" stroke-miterlimit="10" stroke-width="6" d="M42.920903 52.900436C42.920903 51.770677 42.570265 50.640919 42.180657 49.589006C40.154867 43.784333 33.103525 42.187121 29.090915 46.589244C27.065125 48.809885 26.48076 51.49798 26.792428 54.419802C27.298851 59.133592 31.545283 62.483992 36.142257 61.782717C39.80423 61.198352 42.803992 57.263683 42.920903 52.900436ZM72.489663 52.939406C72.489663 52.510828 72.489663 52.043374 72.411723 51.614796C71.944269 46.667184 67.386265 43.199968 62.750226 44.251881C59.28301 45.031002 56.59501 48.537188 56.439129 52.627739C56.205402 58.198685 60.60762 62.522962 65.711018 61.782717C69.528871 61.237323 72.489663 57.419469 72.489663 52.939406Z" />
</svg>
