<svg xmlns="http://www.w3.org/2000/svg" viewBox="0 0 100 100" fill="none">
    <path stroke="currentColor" stroke-linecap="round" stroke-miterlimit="10" stroke-width="6" d="M96 53.3226C96 60.1071 95.8751 66.7667 95.667 73.343C95.2924 85.2054 85.8857 94.737 74.065 95.2365C57.8738 95.9024 41.1416 95.9024 24.9505 95.2365C13.2129 94.737 3.723 85.3719 3.34839 73.5928C2.8073 57.8595 2.89055 41.6267 3.63975 25.9766C4.18084 14.2807 13.5459 4.95732 25.2418 4.49947C41.2248 3.83351 57.7906 3.83351 73.7736 4.49947C85.4695 4.99894 94.8346 14.2807 95.3757 25.9766C95.7919 34.8422 95.9584 43.8327 95.9584 53.3226H96Z" />
    <path stroke="currentColor" stroke-linecap="round" stroke-miterlimit="10" stroke-width="6" d="M49.5068 74.2958C62.6556 74.2958 73.3148 63.6366 73.3148 50.4877C73.3148 37.3389 62.6556 26.6797 49.5068 26.6797C36.358 26.6797 25.6987 37.3389 25.6987 50.4877C25.6987 63.6366 36.358 74.2958 49.5068 74.2958Z" />
    <path stroke="currentColor" stroke-linecap="round" stroke-miterlimit="10" stroke-width="6" d="M76.5 28C79.5376 28 82 25.5375 82 22.5C82 19.4624 79.5376 17 76.5 17C73.4624 17 71 19.4624 71 22.5C71 25.5375 73.4624 28 76.5 28Z" />
</svg>
