<svg xmlns="http://www.w3.org/2000/svg" viewBox="0 0 100 100" fill="none">
    <path stroke="currentColor" stroke-linecap="round" stroke-miterlimit="10" stroke-width="6" d="M90.7851 3H9.21488C5.78249 3 3 5.78245 3 9.21483V90.7852C3 94.2176 5.78249 97 9.21488 97H90.7851C94.2175 97 97 94.2176 97 90.7852V9.21483C97 5.78245 94.2175 3 90.7851 3Z" />
    <path stroke="currentColor" stroke-linecap="round" stroke-miterlimit="10" stroke-width="6" d="M24 32C28.4183 32 32 28.4183 32 24C32 19.5818 28.4183 16 24 16C19.5817 16 16 19.5818 16 24C16 28.4183 19.5817 32 24 32Z" />
    <path stroke="currentColor" stroke-linecap="round" stroke-miterlimit="10" stroke-width="6" d="M32 39H17V83H32V39Z" />
    <path stroke="currentColor" stroke-linecap="round" stroke-miterlimit="10" stroke-width="6" d="M67.8495 37C63.4574 37 59.5096 38.9382 56.7493 42.0254C56.0428 42.8156 54.3467 42.3395 54.3467 41.2796V37.5427H40V83H54.3467V57.1615C54.3467 53.0708 57.5617 49.7314 61.5 49.7314C65.4383 49.7314 68.6533 53.0708 68.6533 57.1615V83H83V52.7369C83 44.0545 76.2084 37 67.8495 37Z" />
</svg>
