<svg xmlns="http://www.w3.org/2000/svg" viewBox="0 0 100 100" fill="none">
    <path stroke="currentColor" stroke-width="6" d="M63 42V72.6061C63 73.2311 62.6676 73.8023 62.1314 74.1148L41.5841 85.937C37.6484 88.3079 32.8977 89.4502 27.8574 88.836C18.2165 87.6613 10.4309 79.9128 9.18688 70.2352C8.63996 65.9891 9.31557 61.9371 10.9242 58.3915" />
    <path stroke="currentColor" stroke-width="6" d="M49.4049 34L75.1494 49.3137C75.6716 49.6284 75.9954 50.2036 75.9954 50.8331V74.7967C76.0894 79.4418 74.7525 84.1846 71.7969 88.2979C66.1467 96.1772 55.8593 99.1292 47.1176 95.3958C43.2742 93.7569 40.2037 91.1197 38 87.9397" />
    <path stroke="currentColor" stroke-width="6" d="M37 41.9768L63.361 27.2164C63.8934 26.9192 64.5535 26.9299 65.0752 27.2376L85.2505 39.2603C89.2111 41.5205 92.5009 45.0647 94.4173 49.7019C98.0903 58.5837 95.2051 69.0359 87.4757 74.7873C84.0794 77.3128 80.2572 78.6817 76.4245 79" />
    <path stroke="currentColor" stroke-width="6" d="M37 58V27.3939C37 26.7688 37.3324 26.1977 37.8686 25.8851L58.4159 14.063C62.3516 11.6921 67.1023 10.5498 72.1426 11.164C81.7835 12.3387 89.5691 20.0872 90.8131 29.7648C91.36 34.0109 90.6844 38.0629 89.0758 41.6085" />
    <path stroke="currentColor" stroke-width="6" d="M50.5951 65L24.8506 49.928C24.3284 49.6182 24.0046 49.0521 24.0046 48.4326V24.8472C23.9106 20.2754 25.2475 15.6075 28.2031 11.5591C33.8533 3.81478 44.1407 0.898654 52.8824 4.58387C56.7258 6.19682 59.7963 8.79249 62 11.9222" />
    <path stroke="currentColor" stroke-width="6" d="M63 57.3112L36.639 71.7878C36.1066 72.0792 35.4465 72.0688 34.9248 71.767L14.7495 59.9755C10.7889 57.7587 7.49914 54.2827 5.58275 49.7347C1.90966 41.0237 4.7949 30.7725 12.5243 25.1317C15.9206 22.6548 19.7428 21.3122 23.5755 21" />
</svg>
