<svg xmlns="http://www.w3.org/2000/svg" viewBox="0 0 100 100" fill="none">
    <path fill="currentColor" stroke-width="6" d="M89.880741 41.502127C90.930654 38.349112 91.294751 35.008546 90.948917 31.703571C90.603083 28.398595 89.555278 25.205682 87.875512 22.338466C85.3856 18.001655 81.582127 14.568039 77.014166 12.533073C72.446205 10.498131 67.349776 9.96704 62.460098 11.01646C60.254673 8.531044 57.543961 6.545366 54.508956 5.192375C51.473951 3.839395 48.185132 3.150288 44.862361 3.171193C39.863337 3.159127 34.98958 4.7349 30.943766 7.671352C26.897951 10.607781 23.889241 14.753155 22.351298 19.509815C19.094673 20.176453 16.018014 21.531083 13.327298 23.483044C10.636581 25.435005 8.393904 27.9392 6.749401 30.828098C4.239525 35.153015 3.168168 40.163044 3.689829 45.136312C4.211493 50.109346 6.299208 54.788059 9.651902 58.497873C8.602131 61.650888 8.237963 64.991454 8.583774 68.296429C8.929584 71.601405 9.977389 74.794224 11.657061 77.66158C14.147301 81.998205 17.950751 85.431493 22.518736 87.466459C27.086673 89.501424 32.183102 90.032702 37.072546 88.983493C39.277971 91.468956 41.988917 93.454517 45.023688 94.807649C48.058693 96.160546 51.347512 96.849639 54.670283 96.8288C59.671883 96.841912 64.548215 95.265405 68.595434 92.327102C72.642888 89.3888 75.652137 85.240429 77.188839 80.480937C80.445346 79.814322 83.522029 78.459785 86.212839 76.507707C88.903415 74.555863 91.146068 72.051434 92.790712 69.162537C95.297483 64.838088 96.366361 59.829229 95.843278 54.858068C95.320429 49.886907 93.232546 45.210302 89.880741 41.502127ZM54.677776 90.706107C50.57202 90.711961 46.595278 89.274068 43.442498 86.644137C43.584624 86.566634 43.83399 86.429893 43.996488 86.33038L62.644839 75.558478C63.112898 75.292254 63.50158 74.906146 63.770849 74.439727C64.040351 73.973307 64.180605 73.443668 64.177327 72.905366V46.614712L72.059629 51.166049C72.100839 51.186654 72.136429 51.217093 72.163356 51.25479C72.190049 51.292488 72.206907 51.336273 72.212761 51.381932V73.154498C72.206907 77.804878 70.358088 82.263259 67.071376 85.553015C63.784663 88.843005 59.327922 90.696039 54.677776 90.706107ZM16.967266 74.600351C14.910759 71.046946 14.169569 66.88359 14.87346 62.838712C15.011934 62.921834 15.253807 63.06958 15.42738 63.169327L34.075707 73.940995C34.540488 74.212605 35.06919 74.355902 35.607493 74.355902C36.145561 74.355902 36.674263 74.212605 37.139044 73.940995L59.906732 60.794849V69.897522C59.909307 69.943883 59.90041 69.990478 59.880741 70.032624C59.861073 70.074771 59.831337 70.111532 59.794107 70.139395L40.942517 81.023688C36.910283 83.346185 32.121288 83.973932 27.626615 82.769717C23.131848 81.565502 19.29838 78.627434 16.967266 74.600351ZM12.061432 33.889327C14.109019 30.331239 17.343118 27.60718 21.197307 26.193639C21.197307 26.354263 21.188082 26.638751 21.188082 26.836137V48.379707C21.184804 48.917776 21.324894 49.446946 21.593904 49.913132C21.862915 50.379083 22.251153 50.764956 22.718743 51.03118L45.486361 64.175688L37.604293 68.72679C37.565424 68.752546 37.520702 68.768 37.474341 68.772215C37.42798 68.776429 37.381151 68.769171 37.338302 68.750907L18.48498 57.857249C14.459746 55.526088 11.523106 51.694049 10.318962 47.201015C9.114818 42.708215 9.74144 37.921093 12.061432 33.889327ZM76.821463 48.959454L54.053541 35.813307L61.935844 31.263844C61.974712 31.238322 62.019434 31.222634 62.065795 31.21842C62.112156 31.214205 62.158751 31.221698 62.2016 31.239961L81.055063 42.124254C83.943493 43.79278 86.296663 46.249444 87.839454 49.206946C89.38201 52.164449 90.050029 55.500098 89.765541 58.823571C89.481054 62.147044 88.255298 65.320663 86.232507 67.972839C84.209483 70.625015 81.47278 72.645932 78.342712 73.798868C78.342712 73.636371 78.342712 73.352117 78.342712 73.154498V51.610927C78.347161 51.073795 78.208546 50.545093 77.941151 50.079141C77.673756 49.61319 77.287415 49.226849 76.821463 48.959454ZM84.666537 37.151922C84.528156 37.066927 84.286283 36.921054 84.11278 36.821541L65.464195 26.049639C64.999415 25.778498 64.470946 25.635434 63.932644 25.635434C63.394576 25.635434 62.865873 25.778498 62.401093 26.049639L39.633405 39.19602V30.093346C39.630829 30.046751 39.639727 30.00039 39.659395 29.958244C39.679063 29.916098 39.7088 29.879337 39.746029 29.851473L58.59762 18.976195C61.48558 17.3109 64.788215 16.502462 68.118946 16.645432C71.449678 16.788425 74.670595 17.876925 77.405424 19.783602C80.14002 21.690279 82.2752 24.336273 83.561132 27.412137C84.847063 30.487883 85.230595 33.866146 84.666537 37.151922ZM35.348059 53.376156L27.463883 48.82482C27.422673 48.804215 27.386849 48.773776 27.360156 48.736078C27.333463 48.69838 27.316371 48.654595 27.310751 48.608702V26.836137C27.312859 23.501541 28.264898 20.236441 30.05518 17.423126C31.845698 14.609811 34.400468 12.364699 37.420488 10.950572C40.440507 9.536445 43.800741 9.01184 47.108059 9.438127C50.41561 9.864414 53.533034 11.223984 56.095766 13.357666C55.953639 13.435216 55.706146 13.571863 55.541776 13.671563L36.893424 24.443325C36.425366 24.709339 36.036917 25.095165 35.767415 25.56121C35.498146 26.027161 35.357893 26.556566 35.360937 27.094634L35.348059 53.376156ZM39.629659 44.144234L49.770068 38.287532L59.910244 44.140488V55.850146L49.770068 61.703337L39.629659 55.850146V44.144234Z" />
</svg>
