<svg xmlns="http://www.w3.org/2000/svg" viewBox="0 0 100 100" fill="none">
    <path stroke="currentColor" stroke-linecap="round" stroke-miterlimit="10" stroke-width="6" d="M38.0829 83.804C37.0184 87.7714 35.1875 91.4369 33.2714 95.0594C32.6652 96.2105 31.3205 96.7837 30.0565 96.4754L28.4845 96.0918C27.225 95.7846 26.2998 94.7034 26.2133 93.4098C26.1505 92.4698 26.0994 91.5221 26.0754 90.5744C25.9903 87.3832 26.0329 84.192 26.7567 81.0439C29.056 71.0391 31.3979 60.9911 33.7398 50.9431C33.7824 50.6843 33.7824 50.21 33.6546 49.9081C32.4198 46.6307 31.8663 43.3101 32.1218 39.817C32.3773 36.5396 33.2714 33.4778 35.2301 30.8041C37.0185 28.346 39.3603 26.7073 42.4687 26.5348C45.4493 26.3623 47.8763 27.3972 49.4092 30.1141C50.5162 32.0547 50.7291 34.2108 50.5162 36.4102C50.2608 39.0839 49.5369 41.6283 48.813 44.1726C47.7486 47.7951 46.6415 51.4175 45.7047 55.0831C44.5977 59.5249 46.8544 64.3548 51.1549 65.8642C54.1355 66.8992 57.031 66.5542 59.8838 65.4329C63.8863 63.8805 66.7817 60.9911 68.8681 57.2824C73.1261 49.7356 74.3609 41.6282 72.9132 33.1759C71.5507 25.1547 66.9946 19.3761 59.6283 16.0124C54.0929 13.4681 48.2595 13.1231 42.3409 14.2443C28.3322 16.8749 20.242 29.3809 21.1788 41.8439C21.4768 46.3719 22.8394 50.5981 25.6496 54.2206C25.9903 54.6518 26.118 55.2125 25.9903 55.7299C25.4367 58.0587 24.8832 60.4305 24.2871 62.7592C24.0316 63.6217 23.2226 64.0529 22.4136 63.6216C21.3917 63.1042 20.4123 62.5435 19.5182 61.8535C16.5801 59.5679 14.5363 56.5062 13.0034 53.1425C10.0229 46.6738 9.29901 39.8602 10.6616 32.8741C12.5776 22.783 17.7298 14.848 26.3309 9.28498C32.8031 5.10191 40.1694 3.33383 47.9615 3.03196C51.453 2.90258 54.9871 3.16132 58.4361 3.89443C67.0372 5.7919 74.2758 9.97503 79.7686 16.9612C83.7285 21.9636 86.0278 27.6992 86.7516 34.0816C87.1349 37.359 87.0497 40.5933 86.6665 43.8707C85.9426 50.2532 83.9414 56.463 80.4924 61.8535C76.0215 68.8828 69.9326 73.7128 61.7147 75.5672C57.7974 76.4728 53.8801 76.6022 50.0053 75.3084C47.1099 74.3597 44.5551 72.8935 42.639 70.4354C42.3835 70.0904 42.1706 69.7022 41.8725 69.3141C41.7874 69.5297 41.7448 69.7022 41.7023 69.8746L41.7022 69.8747C40.4674 74.5322 39.3178 79.1897 38.0829 83.804Z" />
</svg>
