<svg xmlns="http://www.w3.org/2000/svg" viewBox="0 0 100 100" fill="none">
    <path stroke="currentColor" stroke-linecap="round" stroke-miterlimit="10" stroke-width="6" d="M49.8762 89.5427C70.9338 89.5427 88.0044 77.3469 88.0044 62.3026C88.0044 47.2583 70.9338 35.0625 49.8762 35.0625C28.8186 35.0625 11.748 47.2583 11.748 62.3026C11.748 77.3469 28.8186 89.5427 49.8762 89.5427Z" />
    <path stroke="currentColor" stroke-linecap="round" stroke-miterlimit="10" stroke-width="6" d="M11.7068 64.2816C6.63126 62.4243 3 57.5129 3 51.8172C3 44.4706 8.94205 38.5273 16.2871 38.5273C19.5882 38.5273 22.6005 39.7243 24.9113 41.7054" />
    <path stroke="currentColor" stroke-linecap="round" stroke-miterlimit="10" stroke-width="6" d="M88.2934 64.2816C93.3689 62.4243 97.0002 57.5129 97.0002 51.8172C97.0002 44.4706 91.0581 38.5273 83.7131 38.5273C80.412 38.5273 77.3997 39.7243 75.0889 41.7054" />
    <path stroke="currentColor" stroke-linecap="round" stroke-miterlimit="10" stroke-width="6" d="M47.8955 33.9898C47.8955 26.2305 54.1677 19.957 61.9254 19.957" />
    <path stroke="currentColor" stroke-linecap="round" stroke-miterlimit="10" stroke-width="6" d="M70.3842 28.0044C75.0789 28.0044 78.8847 24.1978 78.8847 19.5022C78.8847 14.8066 75.0789 11 70.3842 11C65.6896 11 61.8838 14.8066 61.8838 19.5022C61.8838 24.1978 65.6896 28.0044 70.3842 28.0044Z" />
    <path stroke="currentColor" stroke-linecap="round" stroke-miterlimit="10" stroke-width="6" d="M35.0625 59.3732C35.0625 63.0878 32.0502 65.3165 28.2952 65.3165C24.5401 65.3165 21.5278 63.0878 21.5278 59.3732C21.5278 55.6587 24.5401 51.8203 28.2952 51.8203C32.0502 51.8203 35.0625 55.6587 35.0625 59.3732Z" />
    <path stroke="currentColor" stroke-linecap="round" stroke-miterlimit="10" stroke-width="6" d="M72.7778 59.3732C72.7778 63.0878 69.7656 65.3165 66.0105 65.3165C62.2555 65.3165 59.2432 63.0878 59.2432 59.3732C59.2432 55.6587 62.2555 51.8203 66.0105 51.8203C69.7656 51.8203 72.7778 55.6587 72.7778 59.3732Z" />
    <path stroke="currentColor" stroke-linecap="round" stroke-miterlimit="10" stroke-width="6" d="M58.0339 72.3912C58.5726 72.4326 58.9843 72.9009 58.8787 73.4307C58.7005 74.3249 58.3456 75.1706 57.8415 75.9522C56.0015 78.9261 52.0489 81 47.483 81C42.917 81 38.9985 78.9652 37.1585 75.9522C36.6269 75.1672 36.2833 74.3175 36.1139 73.4189C36.0147 72.8931 36.4194 72.4275 36.9526 72.3822C39.9518 72.1274 43.5787 72 47.483 72C51.3853 72 55.0106 72.1591 58.0339 72.3912Z" />
</svg>
