<svg xmlns="http://www.w3.org/2000/svg" viewBox="0 0 100 100" fill="none">
    <path stroke="currentColor" stroke-linecap="round" stroke-miterlimit="10" stroke-width="6" d="M50.241806 5.326733C64.079398 5.754417 74.77741 17.846178 74.77741 31.765228V38.249505L78.692214 36.7808C79.351097 36.547549 80.087636 36.391952 80.824079 36.391952C84.157465 36.391952 86.986994 39.1136 86.870749 42.457251C86.793188 45.023303 84.351271 47.006226 82.878384 48.094828L76.676689 52.566147C75.94015 53.071525 75.668879 54.043501 76.017711 54.859976C77.529378 58.320349 82.258186 67.185046 92.452246 71.695145C93.808887 72.317149 94.584111 73.872444 94.002693 75.233172C93.30503 76.905093 91.095604 78.926796 84.971469 80.443121C84.04122 80.676372 83.304776 81.337442 83.03341 82.231667C82.374432 84.214495 79.816269 87.480491 69.738455 87.208269C65.552285 87.091644 60.590986 94.673267 50.00922 94.673267H49.040285C38.458519 94.673267 33.49722 87.091644 29.31105 87.208269C19.233236 87.480491 16.674978 84.17562 16.016095 82.231667C15.706044 81.337442 15.008285 80.676372 14.078036 80.443121C7.953853 78.965671 5.744485 76.905093 5.046793 75.233172C4.465385 73.833568 5.240599 72.278273 6.597221 71.695145C16.830099 67.223921 21.520127 58.320349 23.031794 54.859976C23.380626 54.043501 23.109259 53.071525 22.372816 52.566147L16.171121 48.094828C14.698234 47.006226 12.295097 45.023303 12.178756 42.457251C12.062511 39.1136 14.89204 36.391952 18.225426 36.391952C18.961869 36.391952 19.698313 36.547549 20.357291 36.7808L24.272095 38.724752V31.28998C24.272095 17.885053 34.931327 5.754417 48.807699 5.326733H50.08678H50.241806Z" />
</svg>
