<svg xmlns="http://www.w3.org/2000/svg" viewBox="0 0 100 100" fill="none">
    <path stroke="currentColor" stroke-linecap="round" stroke-miterlimit="10" stroke-width="6" d="M52.4677 4.26578V67.6152C52.4677 74.8884 46.9055 81.2174 39.6303 81.579C31.1862 82.0009 24.3141 74.6473 25.5837 66.0882C26.4503 60.2616 31.2265 55.5601 37.091 54.7766C38.3607 54.6158 39.59 54.6158 40.7992 54.7766C41.5247 54.877 42.1696 54.2743 42.1696 53.551V40.6118C42.1696 39.9689 41.6859 39.4063 41.0208 39.3461C38.8242 39.1853 36.5671 39.2858 34.2696 39.6474C21.9965 41.5562 12.1418 51.4815 10.328 63.7375C7.56705 82.3224 22.6213 98.1949 41.0007 96.9291C56.2766 95.8643 67.8846 82.7242 67.8846 67.4545V36.1515C67.8846 35.4683 68.6101 35.0866 69.1946 35.4282C74.3537 38.5223 80.3996 40.2904 86.8687 40.2904C87.8763 40.2904 88.8638 40.2301 89.8311 40.1497C90.4962 40.0895 91 39.5068 91 38.8438V26.0051C91 25.2215 90.3148 24.5987 89.549 24.7192C88.6824 24.8398 87.7755 24.9201 86.8687 24.9201C76.4093 24.9201 67.8846 16.4213 67.8846 5.99368C67.8846 5.47129 67.9048 4.92881 67.9653 4.42652C68.0459 3.66303 67.4413 3 66.6755 3H53.7776C53.0521 3 52.4677 3.58266 52.4677 4.30597V4.26578Z" />
</svg>
