<svg viewBox="0 0 18 18" fill="none" xmlns="http://www.w3.org/2000/svg">
    <path fill="currentColor" d="M3 0C1.35503 0 0 1.35503 0 3V15C0 16.645 1.35503 18 3 18H15C16.645 18 18 16.645 18 15V3C18 1.35503 16.645 0 15 0H3ZM3 2H15C15.565 2 16 2.43497 16 3V15C16 15.565 15.565 16 15 16H3C2.43497 16 2 15.565 2 15V3C2 2.43497 2.43497 2 3 2ZM9 4V11C9 11.565 8.56503 12 8 12C7.43497 12 7 11.565 7 11C7 10.435 7.43497 10 8 10V8C6.35503 8 5 9.35503 5 11C5 12.645 6.35503 14 8 14C9.64497 14 11 12.645 11 11V7.23242C11.6161 7.67134 12.2591 8 13 8V6C12.9527 6 12.2627 5.78094 11.7812 5.36133C11.2998 4.94172 11 4.41499 11 4H9Z" />
</svg>
