<svg xmlns="http://www.w3.org/2000/svg" viewBox="0 0 100 100" fill="none">
    <path stroke="currentColor" stroke-linecap="round" stroke-miterlimit="10" stroke-width="6" d="M96.9591 49.0266C96.9591 56.3874 96.8773 62.9304 96.7138 69.3916C96.5094 76.5479 90.8673 82.3139 83.7124 82.682C62.5339 83.6634 37.0626 83.6225 16.1703 82.5184C9.05635 82.1504 3.41422 76.3843 3.25068 69.2689C2.9236 56.8781 2.9236 43.6287 3.20979 31.1561C3.37333 23.9998 9.01546 18.2338 16.1295 17.8658C37.1035 16.7616 62.5748 16.7207 83.7941 17.7022C90.949 18.0293 96.632 23.8362 96.7956 31.0335C96.9182 36.7585 97 42.6472 97 49.0675L96.9591 49.0266Z" />
    <path stroke="currentColor" stroke-linecap="round" stroke-miterlimit="10" stroke-width="6" d="M41.6416 63.0104C41.6416 63.9919 42.7046 64.6053 43.5632 64.1554L67.0721 51.4785C67.6036 51.1922 67.9715 50.6197 67.9715 49.9654C67.9715 49.352 67.6445 48.7386 67.0721 48.4524L43.5632 35.8571C42.7046 35.4073 41.6416 36.0207 41.6416 37.0022V63.0104Z" />
</svg>
