<svg xmlns="http://www.w3.org/2000/svg" viewBox="0 0 100 100" fill="none">
    <path stroke="currentColor" stroke-linecap="round" stroke-linejoin="round" stroke-width="6" d="M86.487129 51.985109C96.90503 41.563501 96.90503 24.592887 86.487129 14.171374C76.069133 3.749814 59.104412 3.749814 48.686511 14.171374C41.684309 21.176048 39.464048 31.085053 41.855113 39.96895L4.851485 76.98541L6.900924 93.78522L24.947327 94.582495L25.744317 80.117576L39.976459 79.604974L42.310495 66.506962L54.094828 65.481853L60.755422 58.818883C69.693212 61.210709 79.541861 58.989782 86.544063 51.985109H86.487129Z" />
    <path stroke="currentColor" stroke-linecap="round" stroke-linejoin="round" stroke-width="6" d="M74.75916 31.483026C77.840285 31.483026 80.338186 28.984364 80.338186 25.902099C80.338186 22.819834 77.840285 20.321172 74.75916 20.321172C71.677941 20.321172 69.18023 22.819834 69.18023 25.902099C69.18023 28.984364 71.677941 31.483026 74.75916 31.483026Z" />
</svg>
