<svg viewBox="0 0 32 32" fill="none" xmlns="http://www.w3.org/2000/svg">
    <path stroke="currentColor" stroke-width="2" stroke-linecap="round" stroke-linejoin="round" d="M28.3798 16.4169C31.8739 12.9216 31.8739 7.22979 28.3798 3.7345C24.8857 0.239215 19.1959 0.239215 15.7018 3.7345C13.3534 6.08379 12.6087 9.40718 13.4106 12.3868L1 24.8017L1.68736 30.4362L7.73993 30.7036L8.00724 25.8522L12.7806 25.6803L13.5634 21.2873L17.5157 20.9435L19.7496 18.7088C22.7473 19.511 26.0504 18.7661 28.3989 16.4169H28.3798Z" />
    <path stroke="currentColor" stroke-width="2" stroke-linecap="round" stroke-linejoin="round" d="M24.4465 9.54069C25.4799 9.54069 26.3177 8.70267 26.3177 7.6689C26.3177 6.63514 25.4799 5.79712 24.4465 5.79712C23.4131 5.79712 22.5754 6.63514 22.5754 7.6689C22.5754 8.70267 23.4131 9.54069 24.4465 9.54069Z" />
</svg>
