<svg viewBox="0 0 64 64" fill="currentColor" xml:space="preserve" xmlns="http://www.w3.org/2000/svg">
    <path d="M55.375 21.116c-.937-5.837-6.022-10.318-12.119-10.318-1.183 0-2.362.172-3.491.506-3.707-4.773-10.109-7.278-16.612-6.32C14.374 6.272 7.98 13.399 8.012 21.381A12.245 12.245 0 0 0 .786 32.569c0 6.157 4.562 11.255 10.48 12.127a21.028 21.028 0 0 1-.142-2.354c0-.923.081-1.826.198-2.719-3.173-.782-5.536-3.644-5.536-7.055a7.246 7.246 0 0 1 5.467-7.041 2.5 2.5 0 0 0 1.862-2.782C12.237 16.68 17.066 10.931 23.88 9.93a13.95 13.95 0 0 1 2.039-.149c4.508 0 8.657 2.196 10.719 5.82a2.502 2.502 0 0 0 3.312.989 7.192 7.192 0 0 1 3.307-.792c3.995 0 7.258 3.244 7.273 7.23a2.5 2.5 0 0 0 1.968 2.433c3.366.733 5.717 3.656 5.717 7.107 0 3.411-2.363 6.273-5.536 7.055.117.892.198 1.795.198 2.719 0 .797-.055 1.58-.142 2.354 5.918-.873 10.48-5.97 10.48-12.127-.001-5.181-3.143-9.656-7.84-11.453z" />
    <path d="M32.001 25.467c-9.306 0-16.876 7.571-16.876 16.875 0 9.306 7.571 16.876 16.876 16.876 9.305 0 16.875-7.571 16.875-16.876 0-9.305-7.571-16.875-16.875-16.875zm0 29.226c-6.811 0-12.351-5.54-12.351-12.351 0-6.81 5.54-12.35 12.351-12.35 6.81 0 12.35 5.54 12.35 12.35 0 6.811-5.541 12.351-12.35 12.351z" />
    <path d="m35.847 42.343 2.659-2.659a2.723 2.723 0 0 0 0-3.846c-1.025-1.027-2.819-1.027-3.847 0l-2.658 2.659-2.659-2.659c-1.05-1.05-2.798-1.051-3.845 0-1.05 1.054-1.054 2.794 0 3.846l2.657 2.659-2.656 2.658c-1.05 1.051-1.054 2.796-.002 3.846 1.025 1.027 2.82 1.026 3.846.001l2.659-2.659 2.658 2.659c1.049 1.05 2.797 1.051 3.847 0a2.723 2.723 0 0 0 0-3.846l-2.659-2.659z" />
</svg>
