<svg xmlns="http://www.w3.org/2000/svg" viewBox="0 0 100 100" fill="none">
    <path stroke="currentColor" stroke-width="6" d="M22.1481 65H16.9259C9.23485 65 3 58.732 3 51C3 43.268 9.23485 37 16.9259 37C17.5217 37 18.1088 37.0376 18.6849 37.1106C18.9839 37.1485 19.2575 36.927 19.2694 36.6259L19.2777 36.4167C19.8806 25.039 29.2483 16 40.7161 16C48.7818 16 55.8088 20.4716 59.4778 27.0833L59.572 27.2561C59.7469 27.5768 60.197 27.6086 60.4326 27.3294C62.6678 24.6809 66.0028 23 69.7284 23C76.4581 23 81.9136 28.4845 81.9136 35.25C81.9136 35.6473 81.8948 36.0402 81.858 36.4279C81.8292 36.7307 82.0622 37 82.3664 37H83.0741C90.7652 37 97 43.268 97 51C97 58.732 90.7652 65 83.0741 65H77.2716" />
    <ellipse cx="49.5" cy="67" rx="19.5" ry="20" stroke="black" stroke-width="6" />
    <path stroke="currentColor" stroke-linecap="round" stroke-miterlimit="10" stroke-width="6" d="M44.3906 62.0684L55.0684 72.7461" />
    <path stroke="currentColor" stroke-linecap="round" stroke-miterlimit="10" stroke-width="6" d="M44.4106 72.709L55.0483 62.0713" />
</svg>
