<svg xmlns="http://www.w3.org/2000/svg" viewBox="0 0 100 100" fill="currentColor">
    <path stroke-width="6" d="M50 10C72.092 10 90 27.912 90 50C90 72.088 72.092 90 50 90C27.908 90 10 72.088 10 50C10 27.912 27.908 10 50 10ZM50 16.668C31.62 16.668 16.668 31.62 16.668 50C16.668 68.38 31.62 83.332 50 83.332C68.38 83.332 83.332 68.38 83.332 50C83.332 31.62 68.38 16.668 50 16.668ZM49.9948 60.0088C52.2008 60.0088 53.9892 61.7976 53.9892 64.0036C53.9892 66.2096 52.2008 67.9984 49.9948 67.9984C47.7884 67.9984 46 66.2096 46 64.0036C46 61.7976 47.7884 60.0088 49.9948 60.0088ZM49.978 30C51.4968 29.9988 52.7528 31.1264 52.9524 32.59056L52.9804 32.9976L52.9948 51.004C52.996 52.6608 51.654 54.0052 49.9972 54.0064C48.4784 54.0076 47.222 52.88 47.0224 51.416L46.9948 51.0088L46.9804 33.0024C46.9788 31.34556 48.3208 30.00132 49.978 30Z" />
</svg>
