<svg fill="currentColor" xmlns="http://www.w3.org/2000/svg" viewBox="0 0 402 402" style="enable-background:new 0 0 402 402" xml:space="preserve">
    <path d="M315.4 402H86.6c-27.7 0-50.1-22.4-50.1-50.1V50.1C36.5 22.4 58.9 0 86.6 0h150.1c4 0 7.8 1.6 10.6 4.4l113.9 113.9c2.8 2.8 4.4 6.6 4.4 10.6v223c-.1 27.6-22.5 50.1-50.2 50.1zM86.6 30c-11.1 0-20.1 9-20.1 20.1v301.8c0 11.1 9 20.1 20.1 20.1h228.9c11.1 0 20.1-9 20.1-20.1V135.1L230.5 30H86.6z"/>
    <path d="M350.5 143.9h-78.8c-27.7 0-50.1-22.4-50.1-50.1V15c0-8.3 6.7-15 15-15s15 6.7 15 15v78.8c0 11.1 9 20.1 20.1 20.1h78.8c8.3 0 15 6.7 15 15s-6.7 15-15 15zM121.7 269.6h-19.8v27c0 3.2-3.9 4.8-7.8 4.8s-7.8-1.6-7.8-4.8v-63.4c0-3.3 3.9-4.7 7.8-4.7s7.8 1.4 7.8 4.7v24.4h19.8v-24.4c0-3.3 3.9-4.7 7.8-4.7s7.8 1.4 7.8 4.7v63.3c0 3.2-3.9 4.8-7.8 4.8s-7.8-1.6-7.8-4.8v-26.9zM191.1 228.6c3.3 0 4.7 3.6 4.7 6.9 0 3.8-1.7 7.1-4.7 7.1h-13.7v54.1c0 3.2-3.9 4.8-7.8 4.8s-7.8-1.6-7.8-4.8v-54.1h-13.7c-3 0-4.7-3.3-4.7-7.1 0-3.3 1.4-6.9 4.7-6.9h43zM237 275.6c-1 1.9-3 3-5.2 2.9-2.1.1-4-1-4.9-2.9l-9.5-17.3v38.3c0 3.2-3.9 4.8-7.8 4.8s-7.7-1.6-7.7-4.8v-60.2c0-5.7 3.9-7.8 7.8-7.8 5.6 0 8 .6 12 7.8l10.2 17.9 10.3-17.9c4.1-7.2 6.5-7.8 12-7.8 4 0 7.8 2.1 7.8 7.8v60.2c0 3.2-3.9 4.8-7.8 4.8s-7.8-1.6-7.8-4.8v-37.3l-9.4 16.3zM279.7 301.4c-3.4 0-6.8-1.6-6.8-4.8v-63.3c0-3.3 3.9-4.7 7.8-4.7s7.8 1.4 7.8 4.7v54.6h22.7c3 0 4.5 3.4 4.5 6.8s-1.5 6.8-4.5 6.8l-31.5-.1z"/>
</svg>
