<svg xmlns="http://www.w3.org/2000/svg" viewBox="0 0 2000 1280" xml:space="preserve">
	<path stroke="currentColor" stroke-width="2" stroke-linecap="round" stroke-linejoin="round" fill="none" d="m844.9 377.1-4.4 5.1-13.9 13.1-13.8 4.4-1.6 2.2-8.5 2.2-5.3-.7-6.5 8-.8 3.7-3.7 3.6v3.7l-4.5 5.9-3.6.8-8.5 5.7-6.1-2v4.4l-8.6.4.4 4.5-4 6.5-1.7 12.6-5.2 10.2h-2.9l1.6 9.3-3.6 8.9-.8 7.4-1.6 5.2-4.9-1.6-2.5 2-3.6-2-4.1-7.3-6.9-.8-7.3-2.9-5.7-8.9-2-7.7-5.3-6.1-2-5.7 1.2-6.1-4.5-2.8v-10.2l-5.7-7.3-1.6-6.5 1.6-5.2-2.8-8 2-5.9.8-7.3h3.7l1.6-5.1 6.5-.7-.8-8.1 1.6-8.7-2.4-5.2-3.7.8-6.5-5.2-3.6-.7-3.7-4.4 2.9-2.9 8.1 2.2 3.6 3.7 6.5 2.1-3.6-8-3.7-2.9-4.4-8.8-4.9-2.9-.8 4.4-5.3 1.4-5.7-4.4 2-7.3 3.3-3.6v-3.7l2-6.6-5.3-4.4 1.7-5.8-4.5-5.1-1.2-7.3.4-8.8-4.1-5.1v-3.7l-3.6.7-.9-5.1-2.8-1.4 1.2-6.6-4.9-5.1-3.6-4.4-6.1-4.4h-15.9l-3.2-1.5-2.8 3.7-3.7.7V260l-2.8-2.1-2.9 7.3-8.9-3-5.7-5.8 3.6-5.1-10.1-5.2-3.7-5.1 2.9-4.4 8.1-.7 4.1-2.9h8.9l-1.6-8-2.1 3.6-8.9 1.5-5.7-2.2-2-5.8-6.9-2.2-4.9-7.4 2-9.5 16.3-8 2-4.4 8.1-4.4 6.5-.7 8.2-10.2-.8-16.9h-11l-2-8 3.6-7.3 8.5-7.3 1.7-7.4 9.3-8 7.3 5.1 4.5-2.9v-11l-2-12.4 13.8-11L676.7 78l9 19 18.2-2.2-6.9-9.5-1.2-13.2h7.3l11.8 13.2 13 7.3 1.6-10.2 4.1-3.7-13.8-30 17-9.5 7.4 2.2 6.5 10.2 8.1.7 2-21.2 32.9-8.8 14.7 2.2 20.3 9.5 7.3 21.2L853.9 67l-6.1 11.7L834 86l-13.9-1.5-7.3 7.3 20.3.7-.8 8.8 6.1 1.4 1.2-10.9 9-2.9 2 11.8 6.9 7.3 11 1.4 10.1-14.6h10.2l14.6 13.2-13.8 21.9-10.1 8.1 2 5.1-9.4 23.4-6.9.7-2.8 9.5.8 9.5-6.5 13.9-6.5 24.1 5.7-6.5 5.3 6.5-2.5 5.2 5.3 3.6h5.7l1.6 9.5-.8 3.6-8.9-3.6-6.5 2.2-2.9 5.1.8 4.4 10.2 7.3 1.6 18.3-6.9 1.5-.4 7.3 2.9 3.6 4.8 3.7-2 4.4h-2.8l-.8-3.7h-7.4l-2.8 6.6 8.1 4.4v8h-5.3l-2.8 4.4-6.1-3.6-3.7-3-6.5 2.2-4.4 5.1 6.1 3 2.8 11.7 10.2 8.7 1.6 7.4 2 2.9 1.6 8.8-4.4 5.1h-5.3l-4.1-5.9-.8-5.1-2.4-3.6-3.7-.8-1.2 3-4.5 3.6h-6.5l-2.8 9.5 7.3-1.4 2.9 4.3 3.6-2.9h3.7l7.3 4.4 2.8 3.7m-241.3-324 24 5.1 4.4 11 7.3 3.7 2.5 8.8-6.9 9.5-11 11-1.2 11.7-15.5 16.8-9.3 16.9-7.3 8.7-2.5 11-10.9 7.3-7.3 8.8-1.3 17.5-4.4 12.5-12.6 8.8-1.2 10.2-5.3 3.6 1.6 7.3 5.7-.7v6.6l-15.5 11.7-2.8-8.8-8.1 3.7-8.1-1.5-4.9 3.7-11.8-3-9.4-.7-1.6-9.5 9.4-11.7-2.1-11.7 4.5-2.2 5.7 3 2.4 8 6.5 4.3-3.6-12.3-5.3-6.6-7.3-2.2V206l5.3-11 9.3-1.5 2.9-2.9-1.3-12.4-5.2-8.8-4.9-2.2v-16.1l14.6 1.5 15.8-6.6-1.2-5.9-7.3 3-7.3-6.6-3.2 8-10.2-.7-11-5.1-5.7-5.1-5.2-11 2.4-5.1-11-11.7 7.7-9.5 9.8-6.6h10.2l10.9-15.3 9 8.8 4-17.6 14.6-13.2 7 5.1 11.3-8.8 13.4 5.1 7.4-7.3 21.1 6.6m123.5 36.6-10.2-13.2-3.6-9.5 8.1-1.5 9.4 11-3.7 7.3v5.9M1480 154l-12 6.6-2-8-10-.8 7-7.3-2-8.7 4-7.4 9-4.3 5-5.9 5 11.7 2 9.5v13.9l-6 .7m-969.5 18.3 3.7 10.3-7.3 5.1-8.6 16.1-12.5 8.7-9.4-1.4-4.5-5.9-7.3-15.3 5.3-4.4 5.7-1.5-4.5-5.1-3.6 2.9h-8.2l-8.5-24.1 6.5-9.5-2-5.9 4-14.6 10.6-2.2 6.5-5.1 7.3 22.7 15.9 4.4.8 7.3 5.3 16.1 4.8 1.4m800.5-35.1-5 1.5-4-5.1 14-10.3 1 7.3-6 6.6m-81 17.6-5 1.4v-5.8l8-10.3-3-5.1 10-3.6 4 5.8-4 6.6-7 1.5-3 9.5m70-19-7 12.4-8-5.1 2-8.8 11-2.2 2 3.7m-74-.8-12 11.7-5-6.6 17-5.1m-113 22.7v8l-7 6.6 1 3-12 9.5-6-6.6-10 .7-11-9.5-3-5.9 1-8 18-.7 3 5.8v-11.7l12 1.5 6 4.4 8 2.9m160-8v8l-7-1.5 1-5.8 6-.7m216 5.8 2 8 7-4.3 4 8-3 14.6 3 8.8-8 5.1-6-1.4-4-4.4-9-1.5-4-5.8v-5.9l-3-4.4 7-14.6 14-2.2m-21 9.5-6 5.9-8-5.9v-5.8l10 .7 4 5.1m-407-1.5 8 13.2v8.1l14 9.5-1 4.4-9 1.4-3 4.4v9.5l-4 2.2v12.4l-3 .8-3 18.9-4 3-11-13.9-3-8.8 3-5.8-1-5.1 8-9.5-3-7.4-5 8.1-7 1.5-6-10.3-2-9.5-4-15.3 3-8.1 9 2.9 3 5.9 5-9.5 6-.8 5-6.5 5 4.3m-624 38.1-1.6 7.3 4.4 6.6-5.2 6.6-3.7-2.2-2-8.1-11.8-5.1-7.3 2.9-1.4-8 5.1-4.4-1.5-6.6-8-2.2.7-7.3 8-1.5 19.8 14.7 4.5 7.3m1081-21.2-2 8 7-2.2 7 8.8v8.8l-8 5.8-14 2.2-6 5.9-3-5.2 11-32.1h8M458.9 217.7l-8.1 4.4-5.3-5.9-2.8-11v-8.7l3.6-1.5 14.7 11-2.1 11.7m-75.4-8.8-11 .7-8 .8v-3l13.9-10.9 6.6 7.3-1.5 5.1m702.5.7-5 2.2-6-7.3 10-2.9 1 8m11 15.4-1 4.4-8 5.8-2-5.8-6 1.4 3-11.7-3-5.8 10-2.9 2 6.5 5 8.1m-716.4 2.9-11 5.8-5.9-5.1v-9.5l10.3-4.4 8.8-.7-2.2 13.9m89.7-3.7-2 6.6-12.6-.7 1.6-7.3 13 1.4M1132 377.8l5 2.2 2-4.4 6 4.4 2 5.1 10 .7 3 1.5 10 8 9 8.8 7 4.4 2 12.4-5 5.9-9 4.3-9-2.8-8-1.5-3-2.9-7-1.5-1 1.5 8 9.7-1 8.5 1 5.3v2.8l4 2.1 3 4.4 7 2.9 3-2.9-2-4.4h-3l-4-5.7 3-4.5 6 4.5 8 3.6 4-2.8-3-7.3 1-2.9 4-4.4 4-1.7 4-5.8 6 .8 4 5 2-8v-3.6l-3-4.4 1-5.9 1-12.4 6-.7 3 1.4 3 5.2 1 4.3-7 1.5-2 5.1 3 3 2 4.3h6l3-2.2 2-9.5 5-.7 8-7.3 18-10.2-1 4.3 3 6.6 6-5.1 7-1.5 4 1.5 3-4.4 5-2.2 5 5.1 6-3.6-4-11 4-3.6 13 2.9 4 2.2 9 6.6 7 3.6 6 7.3 2-.7 3-6.6-4-2.2-2-5.8-6-5.9 3-15.3-4-.8 1-8 5-4.4 3-5.1 3-15.4 4-2.9 10-.7 7 3.6v7.3l-4 11.7 4 13.2-1 6.6-2 2.2 2 6.6-2 10.2 2 5.1 5 5.1-3 3.7 1 5.8-4 3-1 4.4-4 8.7-5 2.2-4-4.4-4 3 6 3.6 11 .8v-3.7l7-3.7 2-6.5 4-5.2v-6.5l-2-3v-5.1l10-4.4 6 7.3 1 5.9 3-2.2-3-9.5-5-3.7-6-1.4-4 2.2-5-1.5v-4.4l-1-4.4v-5.8l4-5.9-4-11.7-3-2.9 3-7.3 7-5.1 3-11 1 8.8-3 8 1 7.3 6 2.2 5-1.4-6-5.2-1-4.4 5-2.9 3 3.7 1-6.6 4-2.9h5l12 11.7 5-1.5 1 6.6-3 2.2-1 4.4 6 2.2-1 8.7 4-2.1-3-12.5 3-6.6-6-4.4-3-7.3-4-.7-4-3.7 1-8-1-11 5-1.4h10l18-4.4-2-11 1-5.1 6-5.1 7-10.3 25-9.5-1-2.9 10-2.9 8 5.1 12-9.5 2-2.9h5l4-3-2-6.5 2-5.2 11-13.1 6-.7 9 6.5-2 7.3 9 2.2 1 2.2m-1195.1 8.1-6.6 6.6-5.8-3.7-5.1 11.7H314l-2.9-3.7 3.6-7.3 4.4-.7 7.3-13.2 8.1-8.7 10.2 1.4 4.4 14.6-2.2 3m121.4-8.1 2.8 7.3 9-2.2 2.8 12.5-1.6 6.6 5.3-2.2 10.1 9.5 5.3-2.2 4.9 4.4 12.6-8.8h9.3l10.6 4.4 4 5.1-.4 7.3-3.6 9.5-8.1 2.2-9-2.9-4.4 2.2-18.3.7-7.3-2.9-4.1 1.4-8.9-2.1-5.3-11.7 2.4-8.1-3.6-13.9-11-1.4-6.1-3-4.9-12.4 5.7-2.9 11.8 3.6m863.7 14.7-7 5.1-27 14.6-8 7.3v5.1l-5 2.2-4 8.8-5 3.7 1 4.3-7 11-9-3.6h-3l-3-6.6 7-7.3 3-9.5 4-1.5v-4.4l3-9.5 6-4.4 4-5.8 6-3 9-7.3 4 2.9 9-2.9 12-12.4 6-3.7 5 1.5 3 3.6v5.9l-4 5.9m210-14.7-6 9.5 8-.7v-4.4l17-.7 9 10.2 3 1.5 3 8.8-2 4.3 1 8.1-5 5.8-3 2.2-3 4.4-9 5.9-1 3.6-4 3-5 7.3-5 .7-6 8.8h9l13-6.6-3-5.9 3-4.3 10 6.5 4-.7 4 4.4 9-3.7 11 2.2h7l-1 7.3 8 3 11 2.9 8 2.9 7 1.5 7 6.6 8-1.5 9 13.9 3 7.3 6 5.9 3-2.2 6-16.9 3 5.2 7 3.6 6-4.4 5 .8 5 4.4 3-4.4 4-1.5 3 2.9 3-.7-2-6.6 2-5.8 6-8.1 3-.7 10 .7 8 5.1-1 3.7 13-2.2h6l7 3.7 1 2.9-1 5.1 10 5.9 5 8 6-.7 12-3.7 11 .7 9 5.9 2 7.3-2 5.1 7 4.4 3 3.7 4-4.4 10-1.5 2 2.2 13 2.2 5-4.4 2 3.7v3.6l6 3.7v2.9h5l4-2.9-3-8.1v-8l11 2.2 3 1.5 16-.8 13 8.8 4 .7 4 4.4h0l3 1.5 3 2.2 1 2.9 2 1.5 15 10.9 4 12.5 2 2.2 2-2.2-2-3.7 3-1.4 6 2.9 3-.8 10 11.2 2 .4-4 3.7v2.4l-3 1.2-4 .9-2 2.8v2.8l-2 2.5-1 2.8 2 1.6-3 2.9-5-1.6-3-3.7-5-1.2-3-2.4v-5.7l-5-2.1-3 1.3-5 .8-2-5.3 1-4.1-5 .4-1 3.3 2 4-1 4.5-2 1.6v.4l-3 3.3-3 1.2h-7l1 5.3 3-.8 1 5.3v5.6l5 3.7v5.3l-2 4-9-2.8-2-2-4 4.8-9 6.1-3-.8-11 11-7 5.3-2 4.9-3-4.9-8-2.5-6 2.9-4 5.3-1-6.5-5 4.4-8 .4-4 10.6-5 5.7v5.7l4-.4 3 2-3 3.7v5.7h3v6.1l-4-.9-3 1.7-2 4v10.6h-5l-4 3.6-2 7.8-5 3.6-2 8.1-9 8.2-1-4.5v-5.7l-2-6.1-2-22.3v-6.9l2-6.5 3-3.7 5-9.3h3l8-9 2-2.8 4-4.5 6-8.5 8-4.5 4-11 1-10.1-5 1.2-2 8.9-12 11.8-5-6.9-2-5.7-10 .8-5 2.9-4 8.9-5 4.1-4 5.3 1 7.3-5-.8-3 3.6-3-1.2-5-6.1h-4l-5-2-3 2.8-8 2.9-10-2.1-13 .9-4 1.2-4 6.1-6 4-1 4.5-2 .8-11 11.8-4 5.7-11 10.1 2 2.5h6v6.5l3 3.6 7-.8 1-4.4 5-2.1 9 10.2-2 1.6 2 7.3-4 7.3-2 6.5 1 8.2-2 8.5-4 5.3-4 5.7-2 4.4-3 6.1-10 10.2-3 6.5-7 5.3-5 .4-4-3.7-7 4.5-2 2.8M389.3 260.8l6.6 5.8 7.3-2.2 2.2 7.3-4.4 13.2-5.1 2.2-8.8-2.9-4.3 4.4h-3.7l-7.3 7.3-7.3 1.4-7.3-5.1 8-6.6-14.6.8-9.5-5.1 4.4-19.8 8.7-8.8 5.2 6.6 5.1-1.4 4.4 10.2 4.3 4.4 13.2 2.2-3.6-5.9 1.4-7.3-5.8-3.6 5.8-11.8 4.4 1.5.7 13.2m55 14.6.4 9.5h-13l-.8-8-10.8-2.2 4.3-15.4 8.9-9.5 13 2.9.9 8.8.8 9.5-3.7 4.4m1269.7-8.8 4 3 2-5.2 5-2.2 4 5.2h7l7 7.3-5 10.2-7-2.2-4 2.9-11 3-2-3-2 6.6-7-2.2-6-10.2 2-14.6 8-5.9 5 7.3M467.5 293H463l-11-7.4 4.5-10.9 8.1-1.5 4.5 6.6v8l-1.6 5.2M1760 276.9l2 4.4 7-.8 3 7.3-5 2.2h-8l-11-9.5 3-3.6h9m-888.7.7v7.3l-4.4.7.8-7.3 3.6-.7m701.7 20.5-3 5.8-6-3.6 2-5.9 7 3.7m-1252.4-3 7.3 5.9h12.4l4.4 3.7 7.3 10.9-20.4 15.4-.8 5.1-4.4 3.7-2.2 10.9-13.8 8.1-1.5-4.4-2.9-7.3-6.6-4.4-4.4.7 2.9-8.8 2.2-2.2 1.5-9.5 3.6-8-.7-7.3-2.9-8.8 19-3.7M1721 305.4l-4 2.2-1-5.9 4-1.4 1 5.1M466.3 339.8l-6.1 2.9v-8.8l-2.9-4.4v-19l2-5.1 9-3.7 7.3 3.7 11 2.2-5.7 10.2-3.3 9.5-7.7.8-3.6 11.7m-32.6-32.9 4.5 3.6 10.2-2.2-2.9 15.4 6.5 5.1 1.7 5.8-2.1 10.3-6.9 2.9-2.8 6.6-3.7-1.5-2-6.6-6.1-7.3-5.7-2.2-5.1-7.3 4.3-6.6 3.6 6.6 4.5-.7v-11.7l-2.8-8.1 4.8-2.1m1300.3 8-2 5.8-8-2.1-4-2.2 2-8.8 4-.7 8 8M505.7 326.6l3.6 16.1 4.5-6.6-3.3-10.2 3.7-8.1 11.8-7.3h6.5l1.6 8.8 3.7 2.9 2 13.9 6.1 1.5 8.1-8.8 12.2 4.4 5.3 11.7 3.6.7v8.8l5.7-6.6 5.3 2.9 4.9 9.5 11.8 5.9 6.1 9.5-3.7 2.9 1.2 18.3 4.5 1.5v5.1l3.7 1.5 6.5-.8 4.4 5.9 2.9 11.7 2.8-2.2h6.9l2.9 4.4-6.1 8.9-1.3 4.8-3.6-.4-1.6 7.8-7.3-3.7-6.5-12.2-5.3-1.6-1.2 8.9 2 7.3 9.7 7.3 1.3 15.9-1.3 7.3-4.4-4.9-9-1.6 8.2 10.2-.9 4.4-12.2-4.4-6-5.7h-2.9l-7.3-5.3.8-5.7-6.1-2.4-4-9.4-3.7 3.7-6.1-.8-8.1 2.4-7.7-4.5 4-10.9 6.9 2 8.6-.8 4.4-5.7-3.6-4.5 6.5-7.9 5.3-7.3-4.5-13.2-7.3-5.1-1.7-5.8-4 .7-.8-5.1-11-8.1v-6.6h-6.1v4.4l-13-2.9-6.5 3.7-14.6-3.7-2.9 1.5-4.4-5.2h-9l-5.7-8-2.8-8-.8-11 1.2-11.7 3.7-11.7 7.3-8.1 5.3-2.9 8.9.7-8.1 17.6m1137.3 1.5-2 8.7-7-6.5-9-3.7 2-5.9-1-6.5 3-1.5 3-3.7 7 6.6 4 1.5 1 5.8-2 3 1 2.2M409.8 314.2l-3.6 10.9-6.6-8-.8-5.9 8.1-.7 2.9 3.7m126.3-3.7 7.3 2.2 7-.7 5.6 2.9 4.5 7.3-4.5 5.1-5.6-.7-5.3 2.2-4.5-2.2-.8-6.6-3.7-2.2v-7.3M1652 328.1l-10 5.1 1-5.1v-2.2l2-3 1-8.7 5 1.4 6 8.8-5 3.7m-302-7.4-9 3 2-8.1 4-.7 3 5.8m-87 22 4 11.7 6 6.6v5.1l-6-.7-3-2.2-1 2.9-4-3.7-2 .8-5-12.5h-8l-1-4.4 1-5.8 5-4.4-1-9.5 4-5.1 9-5.1 8 3.6-2 8.1-3 6.5-1 8.1m-425.4-26.3 5.7 2.9-5.7 4.4-7.3-3 2.8-3.6 4.5-.7m-478.2 5.8.7 8.1 4.4-5.9 9.5 5.1.7 5.1 6.6-3.6.7-4.4 5.9 5.1 2.2 11 2.9 3.6-2.9-24.8 8-2.2 6.6 6.6 2.2 13.9 3.6 8.7-.7 9.5 2.9 5.2 16.2 9.5v7.3l-5.3-1.5.8 11.7-8.7 2.9-8.8-1.4-7.3-4.4-11 3.7-2.2 2.9-12.4 3.6-11 .8-2.2-11-8-.7-7.3-3-3.7-5.1.7-5.1 13.9-3.7 10.3 2.2 2.9-4.3-10.2-4.4-5.9 2.2h-13.2l-3.6-16.1-4.4-5.9 2.9-10.2 5.9-7.3 15.3-8.8 3 5.1m488.4 17.6-10.2-8.1-.8-4.4h7.3l5.3 5.9-1.6 6.6m812.2-2.2-5 2.9-6-5.9 1-3.6 10 6.6M215.3 380.7l10.2 1.5 2.2 4.4 10.3 5.1h3.6l.7-3.7 4.4-3.6h3l1.4-3.7 2.2 3.7h3.7l2.2-4.4 5.1-1.5 7.3-5.8 5.1 2.2 3.7 3.6 2.2-2.9 2.2-10.2 4.3 5.8 2.2 7.3 3.7 4.4 2.2 1.5 2.2-7.3 2.9-3.7 2.9 11h3.7l1.5-5.9 5.8-.7 6.6 2.9 2.9 3.7 8.8 2.2 4.4 3.6 7.3 2.2 1.5-2.2 6.5 2.2 4.4 5.9-5.8 6.6 5.1 3.6 10.2.7 7.3-1.4 5.2-2.9 1.4 3.6 5.9 1.5 3.6 4.4 1.5 5.1 2.2-.8-3.7-9.5-2.2-13.1 9.5-3 2.2-2.1 3.7 2.9.7 5.1 4.4 2.2v2.9h5.1l3.7 2.9 6.6 2.2 4.9-2.2 12.6.8 4.5 2.9-.9-5.8-2.8 1.4-2.4-6.6 7.3-1.4 6.9 5.1 6.5.7 5.7-7.3.8-4.4-3.7-2.9v-5.9l-7.3-5.1-5.3-5.8 2.5-6.6-2.5-3.7.8-8 6.1-7.3 4.1-2.2 7.3 6.6 1.6 5.1-.8 5.1 4.5 3.7 3.7 7.3-5.3 5.8M1937 350l5 4.4-2 3.6-8 2.2-3-1.4h0l-7 3.6 1-7.3 6-5.1h8M273.8 549.8l-2.2 3.6-2.9 1.3v-8.6l-5.2-5.3-5.1-7.3-2.9-1.6-1.5-6.5-1.4-2.8-1.5-1.7-2.9-2h-3.7l-6.5 2-8.8-8.5-10.3-6.5H216l-10.2-4.5-6.6 1.2-11.7-6.5-5.1-4.4-5.8 5.3-.8 6.5h-7.3l-2.9 4.4-8.1 3.7-.7-6.5 2.9-4.5v-5.3l5.9-3.6-1.5-2.9-5.1 2.9-4.4 6.1-1.4 4.4-8.1 7.4 4.4 4.8-4.4 4.5-.7 3.7-10.3 6.5-2.2 4.4-4.3 1.7-6.6 7.7-7.3 2.4-3.7 2.9-5.1.8-2.9 3.6-3.7-1.6 5.9-6.5 3.6-.8 6.6-5.7 5.1-2.4 6.6-8.6.7-7.3-5.1-4.5-2.9 3.7-2.9-4.5-4.4-1.2-7.3 3.7.7-9-4.4-5.3-6.6 2.5-7.3-6.1-.7-2.9 3.7-2.8-8-7.3v-2.9l6.6-9.7 1.5-5.7 2.2-1.6 4.4 3.2 3.7-3.2 1.4-3.7 6.6.8 1.5-2.8-.8-5.7-2.2-3.2 3-4.1-6.6 1.2-2.9 2.4-6.6-.8-6.6 1.3-5.8-1.3-2.9-5.2.7-4.9-4.4-.8-3.7-2.1 13.2-9.7 6.6-3.6h3.7v7.2l10.3.9 1.4-5.9 6.6.7v-3.7l-8.8-.7-2.9-3.7-6.6-2.1L92 410l-13.2-10.3 2.2-8 10-.7 5.8-6.6 1.5-5.9 5.1-8.8 6.6-.7 5.9-6.6 8.7-.7 5.9-7.3 9.5 2.2m0 0 2.2 5.1 7.3-1.5 5.1.8-.7 5.1 17.5.7 8.1 4.4 10.2 1.5 5.9 2.9 7.3-2.2 5.8 3.7 6.6 3.6m613-14.6-9 2.2 3.7-7.3 4.5-.8 2.8-2.9 2 7.3-4 1.5M1029 513.6v-1.2l-6-1.6-1 2.4h-2l-8 9.4-3 .8-5-.8-6-4.5v-4.9l-2-5.3 1-2 2-.8-1-3.7-2-2.4v-2l-2-8.2 5-10.1 2-2.1v-3.2l4-1.2v-2.5h5l4-2.8V464l6-2 2-6.9 2-3.6 5-1.3v-3.6l4-3.7 2-4.4-2-1.3 4-6.9 3-1.2-2-6 6-4.4 4-8.7 2-3.7 6-4.4 1-6.6 3-1.4 2-5.1 3-.8v-4.4l4-2.2 2-2.9 4-.7 1 2.2 5-2.2v-5.9l4-2.2 7 1.5 6-7.3 1-3.7 5-.7 2 1.5-4 5.8 2 2.9 6-9.5h0v8.1l2-.7 3-8.8 3-1.5 4 3.7 5 2.2 6 4.4m158 10.2-3 2.2-5-2.9-3-5.9 3-3.6 8 10.2m-158-10.2 1 2.9-8 5.1 1 1.5 5 .7m-444.3 6.6-5.7 2.2-3.3-4.4-4-2.2v-8.1l3.6-2.2 6.5 3 4.9 5.1.8 3.6-2.8 3m428.3-11 4 4.4 4 1.5v3.6l-2 3.7 1 2.9m-46 0 4-.7 2-3 5 8.1 4 1.4 4-2.2 6 2.2 1-2.2 2-2.9v-2.9l2-7.3 2-4.4 4 .7 3-2.9m756 5.1-2 2.9-6-4.3 2-2.2 6 3.6M458.1 392.4l-4.4 5.1-5.7-.7-9.8-4.4 2.9-10.2 4.4-5.9 9.8 10.3 2.8 5.8m15.9-13.9 2.4 2.9 2.9-1.4 4.4 4.4 1.2 7.3-.4 6.6 2.1 2.9 2-10.2 2.4-4.4 5.7 5.1 2.5 8-3.3 4.4 1.6 5.1 4.5 6.6 2.9-2.9 4.4-8.8 1.2-9.5 3.7-5.1-2.8-4.4v-8h6l9.4 4.3 6.5 7.4.8 6.5-3.7 3h-2.8l2 8 4.5 5.9-1.6 6.5-7.7 5.9-4.5 5.3-8.1-1.6-.8-3.7-5.7.7 3.6 4.6-2.8 5.7-5.3 4.9h-2.9l-8.9-7.7-.8 2.8 3.7 4.9 8.1.8 3.6 1.6-5.7 12.2-3.6 2.4h-8.1v4.5l-3.7.4 1.6 6.1-8.9 4.9-8.1 11.8-3.7 8.1-2 10.2v8.9l2 3.7h6.5l3.7 13.8v3.6l7.3-2 12.6 3.7 4.4 3.6 2.1 4.1 9.7 3.6 2.1 2.5 4.4 1.2 3.7-.4 8.1 2.8-.8 6.5 2 5.3-.8 6.5 4.5 8.1 4.5 2.9.8 2.8 3.6 1.6 2.1-3.6 2.8-1.6 1.6-5.7-2-3.7-.8-9.7-2.5-7.3 9-4.5 2.8-3.7 3.7-6.5v-7.3l-2.9-9.3-7.3-6.5 6.5-11.8-4.4-11.8 2.4-3.7-1.6-5.6-.8-7.4 3.2-2.4 9.4 2.8 7.3.9 3.6-2.9 8.2 7.3 2.8 6.5 8.1 2.5 2.1 4v12.6l2.4 6.5h2.8l6.5 6.5 8.2-4.8 2-3.7.8-6.5 3.7-6.9 3.6 3.6.8 3.7 2.9 4.5 4.4 8.1 3.7 8.9v9.4l2.8 6.5 5.7 1.6v3.7l3.3 2.8 2.8-1.6 1.2 3.6 6.1.9-4.4 6.5-7.3 3.2-.9 3.7 11.8-8.2h2.9l1.6 4.5 4.9 1.2 2.4 3.7-1.6 3.6 2.4 6.1-7.3 5.7-3.6-.8-5.3 1.6-1.7 4.5-5.6 4.1-6.5.8-13.9-.8h-14.2l-3.6 3.6-1.2 4.5h-3.7l-5.3 4.5-4.5 8.1 9-6.5 8.1-4.5 6.5-1.6 5.3 1.6 2 3.7-3.6 3.6-5.7 2.1 1.2 2.4 4.5-1.6-.8 3.6 2.4 9 6.5 3.6 4.5 1.2 2.8-2 2 1.2.8 3.7-8.9 3.6-7.3 3.7-3.7 3.7-3.6 1.6-2-1.6v-4.1l2.8-3.3 4.5-2.8-2.9-2.8-7.3 3.6-2.4-1.6M1123 389.5l1-4.4 5-2.9h3v-4.4m-858.2 172v-6.1l-4.4-4.5-5.1-2-1.5-4.5-9.5-16.6-5.8-6.1-3-4.9-3.6 1.2-2.2 5.3-4.4 2-.7-2.8-11-11.8-2.2 1.6-5.1-.8V380.7m848.7 2.9v4.4l-6-1.4 3-5.9 3 2.9m169 8.1-5 2.2-3-2.2 2-8.1 4-.7 4 2.9-2 5.9m-143 7.3-5-1.5-8-8m0 0-3 7.3v2.9l-4-2.2h-6l1 5.2-1 2.9-4-2.2-3 2.9-1 2.9-2 3.7 1 3.7-5 8.7 1 3-6 2 1 3.7-1 6.5-4 9.7 2 1.3-1 5.2-3-.8-4 2.5-2 3.6-2 4.1 2 3.2-1 4.9 1 3.7v6.1l4 4-2 3.3-2 .4 2 5.3-1 5.2-4 4.9 1 2.9-2 3.6m87-16.6 10-11 6-7.3 3-3.7 2-4.5-2-3.6-4-3.7-3-2.8 4-3.7-1-2-2-2.4-3-8.2 1-7.7 2-.8-2-5.3-1-2.8-2-8.8 4-7.3v-2.2l-4-5.8-3-1.5-1-5.1 3-7.3m-73 2.9-2 3.7h-3l3-5.1 2 1.4m2 7.3-4 .8 3-5.2v-2.2l4-.7 1 4.4-4 2.9m45 34.3-3-7.9 2-4.4-2-5.1 1-3.7-2-.7v-8.1l-3-5.1m-524.6 14.6-6.5 2.2-3.7-7.3 3.7-8 8.1.7v8.8l-1.6 3.6m284.8 38.7-1.6-2.1v-2.8h-6.5l2-3.3h4.5l-.8-2 1.6-2.8-3.7-1.7-1.6.9h-6.5l5.3-8.6 2.8-3.8h2.1l2.8 2.2 3.7 5.7-.4 2.4 4.8 2.1.9-2.9-.9-4.5 5.3 4.5v-4.5l3.7-1.2 4.4.4 2.9 1.7.8-2.1 2.8.4 1.3-2-.4-2.2 2.8-1.5 2 4.5 3.7.8 1.6 1.2-.8 2.9 6.5 4.5-.8 2 1.6 3.6-2.8 3.7-5.3 6.1h-2l-3.7 1.2-2.4 3.3-7.8 2.8v2l-3.6 1.7-8.1-2.5-3.7-2.8-8.1-.8 2-2.1-.4-4.4m-318.1 3.6 7.7 3.7-4.9 4.4-7.3-4.4h-6.1l-7.3 7.3-6.5-11-.8-6.5 1.6-13.8 2.9-2.8 7.3 9.3 9.7 5.7 3.7 8.1M1097 434l-3 .8-2 .8-5-1.6-2 6.1h-2v4l-2 1.7v3.6l2 2.1-3 3.6-1 3.7-3 2.4-4 1.2-1 3.3-5 3.6-2 4.9-3 1.6-1 11.8-1 4.9 1 2.8 4 .8 2 5.3 3 2.1v2.4l-3 2.8-7 .9 7 2.8-7 4.9-1 2.4-1 8.5-1 4.5-3 8.1-3 .9h-3l-3 2v5.3h-7l1-2.9-4-6.1 3-2-4-3.7-1-5.2-1-2.9v-4.5l-3-2-1-6.1h2m87-16.6-10 2-3 .8-11 4.5-4-5.7h-1l-5-3.3v-2l1-4.5v-5.7l-2-2.4 1-2-1-2.9v-3.6l1-1.7 1-3.6 4-.8 1-4.9 4-2.8 4-6.1 2-1.3 1-3.6 5-1.6-1-2.9v-4.4l-6-4.5M66.1 467.7l-2.9.8-7.3-4.5 2.2-2.8 8 6.5M526 477l-4.9 2.5.4-8.1 7.3-2.1 1.6 3.7-4.4 4m19.1.9-1.7 5.2h-4l1.2-6.5 4.5 1.3m386.8 3.6-1.2-2v-.8l1.2 1.6v1.2m186.1 27.2 6-6.1-3-4.8-5-.8M84.4 503.5l-5.8.8-4.4-3.7 7.3-2 2.9 4.9M1074 499l2 .8-2 2.4V499m24 25.6 1-3.7-5-1.2v-2.4l-1-5.7 3-1.6 2-1.3 9-2.4 5 2.4m2 19.5 1-2.8-1-10.2 2-2 2-4.5m-6 0 4 .9 2-.9m-27 6.5-3 1.7v-4.5l3 2.8m-116.5 71.6-1.6 1.6-3.6 2-6.5-1.2-5.3 2-4.5-.8-3.7 1.6-.4 2.1-3.2-.4-3.7.4-2 2.4-.8-1.6 4.5-4.9 1.6-3.7 3.6-1.6-1.6-2-2 .4-.8-1.2h-2.9l-1.6-1.7 5.3-2.8 1.2-2-.8-6.9 6.1-1.3v-2.8l-2.9-7.3 1.3-4.5-5.7 2.9-4.5-2.9 2.8-4.4-2-3.7h-1.6l-1.2-3.7 1.2-2.8h-2.9l-1.6-2.4 1.6-1.3 1.7-4.4-1.7-1.7.9-2.8 2.8-1.2v-3.3l1.6-3.6 2.1.8 8.1-1.2-.8 3.6-4.5 3.7.8 2 7.3.8h2.9l.8 2.1-2.1 6.1-3.2 3.6.8 3.7 2.9 2 2.4 2.8.8 4.5 2 4.5 2.9 1.2 3.6 7.3 1.7 5.3 4.8 1.6 1.7 1.2.8 2.5-.8 3.6-3.7 4.1v2.4l1.6 1.3m112.5-65.1-2 2.9 1-2.9-1-2.8 5-1.6-1 3.6-2 .8m-153.5 2.5-2.8 2v-5.3l4-1.2-1.2 4.5m-686.8 1.2-5.1 1.6-1.5-6.1h3l4.4 2.5-.8 2m6.6 2.8-2.9 1.7-2.2-7.3 3.6-.9 1.5 3.7v2.8m853.7-2.8-4-2.8-5 2m-944.8-.4 1.4 4.9-10.2 6.1-2.9-4.5 2.9-3.7 3.6.8 5.2-3.6m914.8 7.3-3 .4-1-3.7 4-3.6h2l-2 1.6v5.3m13 11-1-3.3 1-4 2-2.5 1-4.9 4-1.6 4 3.7v2.8l2 .8 4-2v-6.9m16 3.6-3-1.2-1 1.2-3-2.8m-94 11-1-.8 2-3.7h4l3-4.1h2l1 3.7-3 1.2-6 1.6-2 2.1m-76.7-3.7-2-.8-2.4-2.8.8-1.3h2v2.9l1.6 2m181.7 9v-.9l-2-6.5v-3.6l-2-2.5m-865.1 8.2-2.2.8-2.2-5.7h3.7l.7 4.9m9.5.8-3.6 1.6-1.5-6.1 4.4.8.7 3.7m755.6 16.2v-5.2l-3-.9 1-2.8v-2l-1-4.5h2l5-4.5 3-.8 1 1.6v2.9l4 1.6v2.9l-4 1.2-3 6.1-1 4.8m-82.5-16.6.8.8 1.7.8-3.7 2 1.2-3.6m174.5 8.9-5-4.4-3-.9-1-2m0 0-2 2-5-1.6-3 .8-6-.8-4 3.3m-818.9 5.7-1.5 3.6-3.6-1.6.7-3.7-.7-6.5 5.1 8.2m862.9-4.5-7-2m-8 4.4 2-1.6 4 .8 2-3.6m-89 9.3-1-.8-1-3.7 3-1.2 3-2.8 2 .4v3.2l-2 2.1-2 4.4-2-1.6m52-.8v-7.7m56 36.5v-2.4l-1-8.1 3 1.6 4-2-2-3.7-3-.8v-2.4l-3-1.3-1-4.4-1-6.5-2-3.7-3-.8-3 1.6v-2.4M268.7 549l-2.2 1.2-1.5-1.2.7-5.3 3 5.3m825.3 13 4 .8 3-2.1 4-2.4v-3.6l2-2.1 3-6.5m-89 1.2 1-.8 4 1.7v3.6h-4l-1-4.5m210 78.5-4-8.2-3-2.8-5-.8v-3.7l-3-.8 2-4.5 1-7.3 3-4.9 4 4.9 3-1.2-1-5.3 4-2v-1.6l4-2.1 2-2.8h3l3 1.2 3-2 1 2h5l1 2.4 5 1.3 6 4.4 5-4.4h11l2 2.8 4 1.6 1-2.8 4 2 4-1.2v-5.3l-5-2v-4.5l3-1.6-2-3.7 3-4.4-1-6.5 11-1.3 4-1.6 5-.8 5-2 13-3.7 4-4.4 4 1.6m0 0 3 1.2 3-1.2 2 6.5v4.4l4-.8 2 2.9 7-.8v4.4m-426.7-5.7 1.2 11-1.2 4.1-6.9 3.6-5.7 3.7-3.6.8-5.7-3.7 4-5.6 1.7-5.3-4.5-2.1 1.6-2.4-.8-5.7h7.3v-4.4l1.6-2.9 5.7-2v2m-616.5 52.8-2.1-.8-8.1-6.5.7-3.2-4.3-1.3h-4.4v-3.6l-4.4.8-4.4-3.2v-9.4l-5.9-11.8-2.2 1.6-4.3-5.2v-6.5l.7-5.7m807.2.4 4 2.4h3l2 .8v4.9m-16-.8v-4.1h7v-3.2m-152 1.6 4.5-1.6h1.2l3.3 5.3.4 3.6-4.1 1.6m-5.3-8.9-2.8 5.3 1.2 3.6 3.7-2.4 1.6 2.9 1.6-.5m-838.2-5.2-4.4.8-2.2-2.9 5.1-1.6 1.5 3.7m921.9-1.7-4-.4m-7 15.1v-3.7l4-.4 1 .4 4-4.1v-3.6l-2-3.7m30 11v-1.6l9-2.9 2-.8 1-2 4-2.4 6-.9 1 3.7m-49-3.7 3 .9 1 2.8 4 1.6 3 3.7 1-2.1 3-.8 1-2.4h3l3 3.2h1l1 2.9 2 .8m23-6.9 2 .8 5-.8m16 .8-8 .8-8-1.6m-132 3.7 1.7-2.9.8 1.6-2.5 1.3m152 .8-1-2.1-3-1.6m279 5.3 3-2.9 4-1.6v2.9l8 6.1 9 15.8 2 6.1 3-1.6v-2.9l5 4.9h5l2-1.2 4-.8 3 2.8v2.9l5 1.6 1 4.5 5 .8 2-.8 4 3.6M263.5 568.1l-2.9 1.2-2.9-3.7 1.5-4.9 5.8.5-1.5 6.9M80 564.8l-4.4 1.6.7-4.4 3.7 2.8m1014 18.3v-3.7l-2-2 1-2 3-2.5v-2l-2-8.9m638 60.9-7 1.2 1-3.6V616l1-2.8-2-6.5 2-5.7-1-9 1-5.2-3-6.6 1-9.3v-3.7l6-3.6 2 5.7-1 10.1 2 4.5 2 10.2 2 6.9-4 .4-3 2.4-2 11 2 4.5 1 3.6m-363-59.3-7 2-1 .8m8-2.8-7 2-1 .8m0 0 8-2.8m-8 2.8 8-2.8m-325 .8v3.7l-1 4 3 2.5 1 4.4-1 2.1 2 5.2-1 2.9m581-23.6 4 3.7h4l3 1.6 7 13.8v2.9l1 2.8 2 7.3 1 2.5h5l4 1.2 4 4.4 3 4.5-1 1.6 2 3.7 9-.8 3-2.9 6-2.4 2 6.1-3 3.7-1 7.3-5 9.3-6-2-4 4 1 5.3-1 5.7v3.3l-4 .4m-73-54.9 6 3.3 4-3.7 4-1.6v-4.5l2-3.6 2-4.9 3-2.5v-5.6l-2-2.5 4-3.6 5-1.3 9-1.6m-637.6 19.1h-2.1l.9-2.8 3.6-6.5 5.2 2 1-2-2-3.3-2 1.6-1-2 5-4.5 5-.8 3 2.1m-7 21.5 1-6.1-1-2.8 4-.9 2-2.8v-3.7l1-5.2m885 2.4v2l-2-2h2m-744 5.7-2-.8-3 1.6-3-.8-1 2.4h-2m35 40.7V616l3-2h5l1-3.7-1-2 2-5.3-1-2.8-3-1.7-6-2.8h-2l-2-2.9-4 2.1-3-2.1-2 .9-3-7.4h-5v-4.4l-3-5.3m-11 2.4h-4l-2 4.1-5 .8-2-1.2-6 .4h-5l-1-1.2-6-1.7h-8l-2 2.9h-2m342 19.9 3-2h3l5-3.7 11-6.9 6-.4 1 1.2 6 .8 2 4.5 5 .8 2-.8 6 .8 2 1.2 4-2.8 1-3.7-3-3.6 1-4.5 6-4.9 5 2.9h2l5 2 4 1.6 1 6.5m-420-8.9v2.4l2 4.5v2.8l-2 .9-5 6.5-1 3.6m-420.2-8.9 2.4 6.1h6.5l5.7 1.2-2 5.3v7.3l5.7 3.6-1.3 4.9-9.7-5.7-2 3.7-3.7-5.7h-11l-6.5.4v-2l2.1-5.7 7.3-17.1 3.6-4.9 3.7-2.4 1.6 3.7-2.4 7.3m322.6-10.2 2.8-.8 2.8 2.4 3 .5-1 2.4 2 .8m-9.6-4.5v-.8m-4.5 0 4.5.8m-4.5-.8 3.3 1.6 1.2-.8m-8.6 2.1 4.1-2.9m13.1 15.5h-2l-3.8-3.7h-3.6l.8-2.4-4.9-2.1-.8-2h-2.4l-.5-2.4m-23.5 60.9 2-2.4.8-7.3.8-11-.8-1.2-2.8-1.7-1.6-2.8.8-1.6-2.9-2.1-.8-2.4h-2l-2.5-1.2h-3.6l-.4-3.7-3.3-.8 1.7-2.8 7.3-1.7 2.8 2.9 1.6-1.2 3.7.8V603l-.8-4.5h2l1.6 2.9h6.5v-2.1l5.3-2 2.1-2.4.8-5.7 5.2-1.6m60.2 19.1-6-5.3-3-5.7 2-2 9-4.5h3M306 603l2.2 7.3-10.3-5.3-5.8-3.6-8.1-8.6v-3.6l13.9 4.5 3.7 7.3 4.4 2m741-13.8 8 2.8v1.7l2 2 2-2 4 2.8 4 .8 2 3.7m-69-11 2 3.7-1 2m513-3.7 7 3.7 9-2.9 5 1.3 2-.4 4 2.8 3 .8v2l3 2.1 12 2.4 3-1.6 10-2v-2.5l5-3.6h3l4 3.2 4-.8 3 1.2m-589 3.3v-3.3l-1-2m0 0-2 2v2.5m-361.7 1.2-1.6 3.2-7.3-3.2.8-3.7 8.1 3.7M1436 603l2 5.3 3 2 3 2 5 1.7 2 2.8 3 7.3v4.5l-2 2 1 3.7 4 .8 10 1.6 7 4.5h4l2 7.7 2 3.7h4l6 .8 7 .8 7-.8 5 .8 1 2 4 .8 6 2.5h4l2 1.2 10-4.9 7-.8h8l4-2.4 3-4.1 4-1.6 1-2-2-4.5 1-4.5 11 2 2-1.2 2-3.6 7-.8 4-5.7 5-.8 4-2.9 8 .4v-4l-6-7h-4l-2 3.3-3-1.6-7-.8 1-4.5 5-11m-503 6.1-5-2.8-6 .4-3 1.6-2-2.8m0 0-2 1.2-1-.4m-70-.8 3 .8m67 0-4 1.2-3 3.6h-3v2.5m-105.2-6.9v-.4h.8v.4h-.8m48.2-.4 2 2 4 .8 4 1.2-3 3.3-1 3.6 1 4.1m-52.3-13h-.5v-.8l.5.8m477.3.8 2-.8m-40 53.2-1-2.8 2-2.9 2-.8-2-6.5-1-5.7-1-1.6 9-2 2 1.2 1-3.7 4-10.9 1-1.2 4 1.2 5 1.6 4-1.6 1-2.9-1-4.4 1-3.7h2l3-2.8v-2.9h3m-346 0-2 5.7m-476.7 24.8-3.7-3.7v-10.9l-2.8-2.1-2.9 1.7-1.6-2.5-4.1 6.1-1.6 6.5-2.8 4.9-3.7 1.6h-17.5l-8.9 6.5-2 3.7h-10.6l-2 1.6 1.6 4.5-6.9 2.8-5.7 1.2-6.5 4.5-2.8-1.2v-3.7l2.8-2.4 2-6.5-2-13-11-9-1.6-3.6-19.1-11-4.9 2.9-4.4-1.3-6.5.4-10.2-4.8h-3.2l-6.5-2.9m0 0H312.5m30 117-2.2-5.2-5.1-4.5-5.8-2H325l-.8-4.5-6.5-8.1v-4.5l-3-1.2-4.3-9-3-2.8-.7-6.5-2.2-2.9 1.5-8.1-3-10.9 2.2-6.1.8-11 .7-10.2-.7-2.8-3.7-9 3.7-1.2 8.7 2.1-.7-6.5-1.5-2.1m729.5 2.1 2 1.6 6-3.3 3 1.7 2-.9 4 2.5m-40 7.7h1l3 2.4 2-2.4 1 1.6 4-1.6 6-.4 1-4.5 4-2.4 1-2m17 1.6-1 1.2 1 2.8m24-4 1 1.2h2m-27 2.8 4 2.5h4l2-2.5 5-.4 3-1.6v-2h6m27 2.8 6-2.4 2 2.4 3 .8 3 2.9v1.2l2 5.3 2 1.6m-42-13.4 4 3.7m22-1.3-2-.8m-20 2.1 2-1.3 5 1.3h2l2 1.6 2-1.6h4l3-2.1m8 22v-12.6l-5-4.9-1-3.7m-53 .4v3.3l-2 .4-3 6.1m36-8.9-3 1.6-6 11.8-5 1.2m-57-11.8-5-2-3 2h-2m0 0-4 2.4-4 5.7v1.7l3-.9 2 4.5m13-11V616m0 3.7v-1.3m0 1.3-1-.4 1-.9m-351.6 1.3.4.8h-.4 0v.8h.4v.8l-.4.8v-.8h-.8.8V619.7h0m580.6 40.2v-2l1-4.5-4-2-3-3.7-3-6.1-3-.4v-2.4h4v-2.1l2-3.6h6l4-4.5v-7.3l-4-.8-1 1.6-6-2.4-10 6.1m-50 22.7-5-6.1-8-3.6-4-4.5 5-1.2 1-5.3v-2.9l3-2.8-1-2.4m0 0h-4l-3 3.2-6 .4-2 2.5-3 1.2-1 3.2 4 3.7 4-1.6 2 .8-2 2.8-3-.8-2 1.6-4 1.2-3 3.3-2-1.6v-4.5l-5-2.8 6-2.9-2-2.4h-6l-2-3.7h-3l-3 2.5-3 3.6-3 1.2v3.7m-102-12.2h-2l-3-2.4m22 4.4-7-1.2-1-1.6h-5l-1 1.6-3-.8m0 0-1 2-5 2.5-2 2-4-3.7-2 4.5h-4m50-4.5-2-2.8m0 0-1 .8-5 .4-3 1.6-4-.8m87-1.2-2 2.9-2-1.7-2 .8 1 3.7-5 4.5m-77-1.7-1-4.8 1-2.5m-1 8.2h10v-2.1l2-.8-1-2.8 4-1.7h1m0 0 5 3.7 5 1.6 3-.8m-424.4 2h-4.5l-.8-2.8 6.1-2.8-.8 5.6m586.4-5.6-6 4.4h-3l-1 4.1-3 3.6 4 8.2v4.4l5 9m-151-31.7-4-.8-3 2.4m20 12.2-2-2.8h-4l-1-1.3 1-2.4-4-2.8-2-2.9-1-1.6m-70 1.6-2 1.2 2 3.7-2 .8 2 2.4-2 2.1 2 2 3 1.6-1 2.1m61-15.9 1 4.9v3.2m-29-6.1-3-1.2-5 3.7 2 2.8-2 1.2v3.7l6 4.5 1 .8 2 5.7 5 5.3 2 .8h4v3.6l6 2.1 5 3.6 2 2.9v3.2l-2-3.7-5-1.6-1 1.6-2 2.9 3 2.8v3.7l-3 1.6v1.2l-3 3.7h-1l2-7.3-2-7.3-2 .8-2-2.1-1-3.2-4-.4-2-3.3h-4l-6-5.6-1-2.1-6-4.4-2-6.5-4-3.7-3-.8-4 4.5-3 .4m32-13 1-.9m254 10.2-14-10.2-14 4.5v27.2m471-19.1h3l3 4.9-2 2.5-6 .8-2 4-1 2.5-8-4.5h-2l-3 1.6-2-1.6-2 2 4 2.5-5 2 1-2-2-2.5v-2.8l6-3.7h2l1-4.4 1-2.1 1-5.3-1-3.6 2-2 5 6.5 5 3.6 2 1.6m-677 7.4-3-3.7-5-1.6-4-4.5 1-.4-2-3.3-1-2.8-3-1.2v2l-2 .8-2-4.4m78 .8 3 1.2 3-1.2 2 1.2m-65 17.1-1-3.7-1-.8-4-5.3-1-2-2-2.1v-3.2h4l11 .8 3 2.4m56-3.2v3.2l-5 .4v7.4m-511.7-11v4.5l-7.8 2.4-4.4 3.7-3.7.4-3.6 6.1v2.8l2 6.5-5.7 2.4-7.3.4-7.3 4.5 1.2 2.4-.4 4.1-3.7 4.5-1.6 3.6-2.8 4.5h-2.9l-1.6 3.7 2 2.8 1.7 6.5-2.9 6.9-7.3 2.9-1.6 3.6h-3.7l-2.8 4.5-9 6.5-3.6 8.1 1.6 6.5 3.7 7.3-.9.8 3.7 8.6-.8 6.5-1.2 4.4h-3.7l-1.6-3.6-2-.8-1.7-6.5h-1.2l-3.2-4.9 1.6-6.9-5.3-5.7-3.6-1.6-5.7 3.2-5.3-5.3h-4.1l-3.6 1.7-5.3-.8-2.9 2.8-7.3 5.3-2.8-1.6-3.7-3.7-1.6 2-8.1-1.2-4.5 1.2-5.7 5.3-7.3 4.5-2.8 5.7 2 6.1M1070 637.5h2l-2 3.7 2 2v3.7h-1m18-5.3 1 3.3h3l4 1.2 2-.8 4 .8 2-.8 2-1.3 6-1.6 8 2.9m-34 10.5 1-3.6 3-2.5-3-2-1-2.8 2-3.3m258 14.6-4 1.7-2 2-5 2.4-2 3.7-3 .8-1-3.3h-6l-1-5.6h-3l1-6.5-2 .8-2-3.7-3-3.2-2 1.6-6-.8-7 1.6-4-6.1m-261 2.4h0m0 0h0m-26 1.3h-1m-86.1 13.4-.8-1.7-1.2-7.3 4.4-2 2.9-2.4 2.8 1.6h9m69-1.6h0m0 0h0m114 0-1 3.2-2-.8-2 4.9v2.4l2 3.7m-111-13.4-4 4.4h-3l-7.2-1.2-3.2-1.6-4.9 2.8-.8 2.5.8 2.8m-46.7-8.1 7.3 1.6 3.6-1.6 7.3 2 2.1-.4m222.7 0 4-1.6 5 2 7 .8 5 2.9h7l2 3.6 4 2.5m-144-11.8 2 2.8 3 1.7m-5-4.5-3 2-2 5.3m123 7.3 2-2.8-2-6.1-8-4.1m-205.2 4.9h-8.2l-1.2-1.2-5.3-1.7-2.8-2m408.7 2.9-2-2.5-4 1.6-1 2.9-2 .8-6-2-4 .4-1 3.6m-271-4.8 3-2.5 5 4.5-1 2.8m581-3.6-2-2.1m0 0-2 4.5h-2l-2 2.9h-5l1 4.4-5-.8-1-2-6 6.5-5 2.8-3 2.9m-236-15.5-4-1.2-1-2.4-4-.4-15-.8v.8l-5-.8m-305 .8-1-.8m14 2.8 1-2.8m-10 2.8-4-2m4 2.8-4-2.8m602 .4 1 3.6m-646 .8-2 6.1-2-1.6-1-3.6v-2.1l3-3.2 1 .8 1 3.6m248 6.1 6 .4-1-4 2-2.5h2l3-3.6 6 2.4 3 .4 1 6.1m-311.6-8.1h0v-.8h0-1.6 0m0 0v.8h0v.8h.8l.8-.8h0m88.6 0v.8m9-.8 2 2v3.3m-5 0-1-2.5 1-2.8h3m-90.3.8-6.1.8-1.2-1.6m94.6 5.3-3-3.3-3-1.2m-81.3 0 .8 3.7-5.3 3.6-.8.8-6.5 2.1-4.5 6.5-2 4.4 1.2 3.7 1.7 1.6-4.5 2.9-2 4.8-1.7-.4-2 2.1-2.4 3.6h-12.2l-1.7 1.6-2.8.5-.8 1.6m327.8-35-2 .4-5-5.6-3-2.1-6 1.2-3 2.9m-163-4.1h2m-8 2.1 6-2.1m0 0-2 .4m8 6.9-1-5.2-3-2.1m578 .4-1-.4-4 5.7v5.3l-7 4.9-4 2.4v4.1l4 3.6m-570-25.6-4 1.7m268 12.5 4 .5 2-1.3 3-.8-1-2.8-3-2.5h-6l-3-2.8 4-4.5m14 19.9 2-4.4 4-2.1 4-1.6 1 2.4 3-.8 4-4.4h5l2-2.9 5-2.8 5-1.6v-1.7m-472.3.8.9 2.5 5.2-.8h2.9l2 2.8-2.8 2.9-.8 8.1-.4 2-2.5 1.6 2.5 2.9-1.7 2.4v4.9l-1.6 2.8.8 1.7m-7.3-32.1 2.8-1.7m189.3 0 5 1.7m-5-1.7 5 1.7m0 0h-3l-2-1.7m5 1.7h-3l-2-1.7m-4 2.9 1-1.2 3-1.7m143 33.8-1-8.2 1-2.8-2-1.6-2-5.7-3-2.1 3-3.6 2 1.2 6-2v-1.6l-3-2.1-1-4.4-4-.9-2 2.9h-2m-169-2-2 1.6m82 41.4v-3.6l2-2.1-1-2.4-3 3.2-4-1.6-4 2.9-6 1.6-4-2.9-4-2.4-4 .8v2.9l-5 1.6-2-1.6-1-2.1-3-1.6-5-.8-2-2v-4.5l-4-1.2 2-6.9-1-2.9-3 .8v-2.8l3-3.7 6-.8 5 .8 2-1.6 1-4.5 11 .9 5-4.5 6-2 8 .8 3 1.2h3l2 3.6 3-.4 3 2.1 4 .8 6-1.6 4 1.6 7-2.9v-1.6m-71-2.8v5.7l-3 .8-2 2.8-3 .8-2 2.9-1-4.5m-178.8 23.6-1.2 1.6h-5.3l-.8-2.4v-6.5l-3.7-2.1.9-4.5 1.6-2.4 2-9.3-1.6-5.7.8-.8m113.1 0h0m0 0h0m181 0 7 4.8h2l3-4m-19 3.6 2-.8 3 1.2 4-.4-3-2.4 1-2m-138 .8v2l2 4.5 1 .8m-6 7.7v-2.8l-2-.8-1-2.9 1-8.5h0m155 0 7 10.9-1 .5-4 10.5v1.2m-122-15.4 3-4.1-1-3.2m0 0-2 3.2-4 .4-4-2-5 .8-3 .8m109 1.3-3-3.7-3 1.6-5-.8m100 .8 2 1.2h6l1 .9 3 7.3 7 6.1 11 6.5 5 2-1 3.7m-243-23.2 3-.8 2-1.6h3l3-1.3m117 0 3 2.9v2.8l2 2.1v2.4l2 3.6 1 2.9m-16-15.4 8-1.3m-188 8.6-1 6.5-5 1.6-2-2 1-7.4-1-3.2 3-1.2 3-2.5 1 .9 1 4.4v2.9m651 36.5 5-4.8h4l8-1.7 3 .8 7-7.3 8-3.6 3-4.5 3-2 4-9.8-2-7.3 5-4.5 4 3.7 2 3.2 1 4.9-2 3.7-1 4.5h-2l-1 9.3-1 3.2v2.9l1 2-3 3.7-3 1.6-1-2.4-2 1.6h-3l-3 2.8h-4l-6 2.9-3 4.4-3-2v-2.8l2-1.7-4-1.6-4 2.5-4 .8-6 .4-5 1.6-1-2 4-2.5m-464-33.7-3-2.8-2 .8-2-3.7v-4.4m-93 2.8-5-2-4 .8-2 3.6-4 1.3-4-1.3v2.1l2 2.4 1 7.3 5 2.9v3.6l-2-1.6h-2v3.7l-3-.9 3 5.3h-5l-1-1.6-2 .8-1-3.6-1-2.1v-2.8l3-1.6 5 2.8-1-2-4-.8h-4l-2-2.9-1-1.6-4-4.5m558-2.8-2 1.6-5 1.2-7 3.7-2-2.9 5-6.5-2-1.6-4-1.2-5 4.9-4 2.4-3 4.5-6 .4-1 5.3 2 1.6h5v5.7l3 1.6 7-5.3 4 2.9h5l-1 3.6-2-.8-4 2.4-3 3.7-2 .8-3 2.8-3 4.9 6 3.3 4 8.5-1 2.4 4 3.7-3 1.2 3 2.9 2 2.4-5 2 5 6.5v2.5l-7 8.5-1 3.3-2 2.8-3 .8 1 2-4 8.2-10 8.1-3 3.6-5 1.3-6-.8-2 1.6m-247-90.6v-2.5l2-4-1-1.6V679l-3-1.2 2-3.3 2 .8 4-2 4-6.1 3-1.2v2.8l4 1.6m-267-3.6-2 4.9-2 2.8h-2m287 1.6-3 .8h-6l-2-2.4-12 .8v-2.8l3-1.6 4 1.6 2-2.1m297 16.7h-6l-4-2 3-6.9v-2.9l-5-2v-1.6m-641.6.8.8.8-.8.8-1.2-1.6h-.9 0v-.8h2.1v.8m-5.7 1.6h2l-.8.4v.8h-.4v1.6l-.8.9-.8-.9h-.8l-.8-.8v-.8h0-1.3v-.8l1.3-1.2h1.6l.8-.8v1.6m229.3 6.5-2-5.3-5-.8m0 0h0m22 8.1-2 .9-4-9-7 5.3m-2 .8-3-1.6-4-4.5m0 17.1-1-3.7-2-1.6v-5.7l-1-3.7 4-2.4m-405.1 2.4h-.9v-.8h0v-.8l.9.8v.8m566.1 14.7-1-9-2-1.2-2 1.2-2-2v-4.5m-386.1 4.5h0v-.8h-.4l.4-.8h0l.9-.8h.8v.8l-1.7 1.6m241.1-.8-2 .8m-390.2 1.2h-.8l-1.6-.4v-.8H823.8V681.8m-4.5 0v.8h0l-1.6-.8-.4-.4h0l2 .4m157.3-.4h-.8 0l-.9.4v-.4H976.6m-161.7.4v.8h-.9v-.8h.9m838.1 0 1 3.3 4 5.7 1 3.6v8.1l-1 2.9-4 1.6-3-.8-4 1.2-5 .8 1-9.3v-4.5l2-1.6-2-4.1 1-1.6m9-5.3-2 2.5h-4l-3 2.8m-826.3-4.5v.9h-.4 0-.8l-.8-.9h0v-.8l.8.8H817.7m411.3 0v3.7l3 2.8 3 .9 2 2.4 4 2 4 1.6 9-2.4h2v-2.8m74 .8 1 1.2 8-4.1 3 .4 1-2.8 2-2.8 4 .8 1 2.8m-299-2.8-3 6.5 2 2-2 2.4-3-1.6-11-6.5 2-2h2l3 1.2 7-1.2 3-.8m205 6.5 4-1.7 4-3.6h4l1-1.2h5l1 2 10 2.8 5 6.1h5l1 6.5m-464.9-14.6h2.9l-.9.8h-2.8l-.8-.8.8-.8v.8h.8m518.9 0v5.3l2 2.8 7-5.2h7l2 1.6m-72 10.1 6 2.9 3-1.2v-3.3l4-1.2 4-2.4 1-4.1 4-1.6 1-1.7 4 .9m-129 2.4 3-2.4 10 1.6m116-1.6 7 1.6m-316 1.2 6-2 2 .8 3 8.5 2 1.6v2.9l-3 4.4-3 2.1 1 2.4 6 4.5h1m-89.8-19.9-1.2 1.6-2.5-1.6-2.8-5.3-4.5-2m439.8.8-2 .8m-139 45.1-5-5.7 2-5.3-3-4.5-6-2.8-2-4.5-2-2v-2.8l3-5.3-2-4.5-2-1.2-3-7.3m-48 9.3 3-1.2 2-6.1 4 1.6 4-1.6 3 .8h6l5-2h8m-19 24 12-6.5 1-2.5 1-11.4 2-.8 3-2.8m-237.8 13h2.1l4.5-3.7 4.4-.8 2.1-2 5.2-2.9h6.5l2.1-1.6 10.1-.8 3.8 1.6 5-2.8 3 1.2 2-1.2 7 .4m356 0-4-.4m0 0-3 1.2h-8l-7 5.3 2 4.5v2.8l-3 2v3.7l-3 .8-3-.8 2 5.3-4 1.2-1 3.6v3.7l-2 1.6-4-.8-4 3.7-3-.8-3 2.4v6.5l-7 2h-4l-10 .8-8-2.8m-459-45.5h.8-1.7.9m180 0-2 7.3v8.1l-4 3.7 1 6.1h2l1 3.6 4 2.9 3 11.8m364-33.8-2 .9-7-3.3-1-4.9-3-2.4m-430.8 5.3h0m0 0v.8h0v-.8m105.8 2.8-1-.8v-.4l2 .4-1 .8m-147.3 51.2 1.3-2 7.3-2.5 7.3-6.5 2.8-4.4-1.2-2.9.8-4.8 2.1-5.3v-2.1l4.4-4.4 4.9-2.5 4.5-2.8 2.4-4.5 2-6.5 2.9-.8.8 2.4 2.8 2.1 5.3-.8 8.1 1.6m203.8 2.8-1-7.3m134 37.4 5-5.7V729l-6-.9v-4.4l-1-5.7v-6.1l2-3.7 3-6.5m-202 2.9v-2.1h3v1.3h8l1 1.6-6 .8-2-1.6h-4m307 31.7-8-4.5-6-8.1 5-2.1v-3.2l-4-2.9v-3.6l2-2-4-1.7-3-5.7m-51 72.4 3-.8V772l6 .8 6-3.2-2-5.7-3-1.6 1-3.7-4-1.2V755l5-5.7 2 2 6-1.2 2-5.3 4-1.2 2-5.3 5-5.7 1-3.6-1-2.5 5-2-3-2.5-1-2-3-2v-6.9l2-3.7 6 1.6 5-1.6 3 .8 1-2.8 3-2.9m-237 4.9-3 .8-3-2.8 4-1.6 5-.4-2 3.6-1 .4m-224.3 44.7v-6.5l8.1-5.7 8.6-1.6 3.2-3.7 2.9-.8 2.8-3.6v-2.9l4.5-1.6.8-1.2h8.5l1.7-2.5-2.5-1.2-1.2-3.6v-5.3l-2.9-6.5m203.8 2.8h2l1 2.9-5 6.1m-3 1.2 5-10.2m521 3.7 3-2 3 3.6-8 3.7-3 3.6v-3.6l1-5.3h4m-21 9.7V718l5-5.3 3 2 3 .8 2 3.7-2 2.4-2 7.4-2 2-2-3.7-3-2 3-3.3v-2l-5 1.6m-483 2.9-2-8.1m-17 4.4 7 2.1 10-6.5m-17 .8v3.6m-3-2.4 3-1.2m-129 .8 4 2 6-.8 10 3.7 2 5.2 2 1.3 8 1.6 4 1.6 5 3.7 2-.8 3-5.3-1-4.9 3-3.7 6-2.4 5 .8 4 1.6v2.1l4 1.6h6l1 2m-84 9 1-.8 2-3.7V729l4-4.5 3-2.5v-4m123 10.1 3-9.7M876.2 720h1.6l.8.8h-.8l-.8.8-.8-.8h0l-.4-.8h.4m-533.7 1.6 13.2-.8-.7 1.2 8 3.3 12.4 4.1h14.7v-2.9h9.5l1.4 2.5h.8l3.6 3.6 2.2 1.2 1.5 2.9v1.6l.7 1.6 2.9 2.1 4.4 2 1.5-2 1.5-2.9 1.4-.8 1.3.8h3.6l3.7 4.5.8.4 1.6 2.4v1.2l1.2 1.7 1.7 2.8h1.6v3.7l1.2 1.6.8 2 3.7.8 1.6 1.7h2l1.7.4 1.2-.4m708.8-41.1v2.1m-682.4 104-5.3-5.3-3.6-2-.4-.9-1.7-.8h-2l-.8-1.2-2.9 2.9h-2.4l-2 1.2h-3.7l-1.6-1.2h-3.7l-1.2-1.7-2.4-.8-1.2-1.2-5.3-.8-.8-.8-5.7-2.1-3.7-2.4-1.6-2-1.2.8-3.1-.8-3.6-1.6-1.5-2.1-2.9-2-2.2-.8-2.2-.8-2.2-4.5-.7-2h1.4v-1.7h-.7l1.5-2v-1.6l-1.5-1.2-.7-2.5v-2l-.8-1.6-2.9-2.9-2.9-2.8-.7-2.5-3-1.2-1.4-1.6-.8-.8-2.2-2.9-2.2-1.2h-1.4l-2.2-2.4v-1.2l1.5-2.5-1.5-2h-2.2v-1.6l-2.2-.8-1.5-1.3v-1.6l-2.9-2-2.2-2.5-.7-.4-1.5-2.4-1.4-.8v-2l-2.2-2.1-.8-2.4v-1.2l-1.4-3.3v-2.8l-3-.8-.7-1.3h-2.9l-1.5-1.6H355v3.7l.7 1.6v4.5l1.5 2.8h.7l2.2 2 1.4 2.5 2.2 1.2v2.4h1.5l.7 2.9v.8l.8 1.2 1.4.8.8 1.7 1.4 2 2.2.8.7 2v2.9l3.7 6.9v2l1.5 1.6 1.4-.8 2.2 1.2v2.5l1.5 1.2v.8l-2.2 2.4-.7-.8-.8-1.6-.7-1.2-1.5-1.6-2.2-1.7-2.9-1.2-1.4-2.4-1.5-.4-.7-.8.7-2.9v-2.4l-1.5-2.9-1.4-.8-3.7-2h-1.5l-1.4-1.6-3.7-1.2v-.9l-2.2-2.4 3.7-.4.7-1.6v-2.1l-4.4-6.1h-1.4l-2.2-2-1.5-3.6-.7-1.7v-1.2l-1.5-.8v-1.6l-2.2-2.1.8-1.6-1.5-1.2v-1.6l-1.5-2.1m814.5 6.5 1-5.2m0 0-3 1.6v2.8l2 .8m-535.1-4.4h0l.8-.8h0l-.8.8h0m594.1 19.9-9-.8-15-11.8-9-5.3-6-1.2m0 0-1 .8-11 2.8 6 6.5-3 2.9-4 .8-4 4.5-6-1.7m-51-13.8 11 1.7 3 2h3l3 1.6 2-.8 5-2.8h7l2 2 9-.8 2-.8m-48 55.6v-43l-2-5.3 2-4.1-1-3.6 2-1.7m49 .8-2 2.1m0-.8 2-1.3m5 0-2 12.2m-5-10.9v.8m0 0 4 10.1m252-3.6-4-1.2-1 .8m-382 0-1 .4 2 4.4v7.4l1 2.4-1 2.8v4.9l-2 2.5 3 4.8 1 3.3 8 2.8 2 4.5m369-40.2-4 2.8-2 5.7 7 2.8 7 5.3h8l3 2.9 6 2.8 5 .8 6-.8 2-1.2-1-2.4 1-4.1m0 0h-10l-3-3.3h-4l-5-3.6-1-2-2 .8-8-6.1m-182 .8-3-.8-5 6.9m11-6.1h-3m0 0v3.6l2 5.3m71 20.3-1 .9-11-2.9h-7l-4-1.6-2-6.5-3-2-4 1.2-6 2.8-4-1.2-7-3.7v-1.6l-6-2.8-2-5.7-5-6.1h-8m66 .8 4 6.5 4 2.4 2 2.9v2.8l3 1.7-1 3.6h-2l-5 2-1 6.5m-143-25.6 1-.8m0 0h-1m0 0-4 10.6-4-4.5-1-2.4h-3l5 6.9 2 7.3 8 14.6v3.7l2 4.1 2 1.6 4 2.8m323-36.5-6-2.1-1-5.3-3 2.5-5-1.6-4 3.6-2 .8-6 4.5-4 .4m-260 65.8-3-6.5-4-2-2-4.5v-2l-4-5.3-4-2.8-3-3.7-1-4.5v-3.6l-3-7.3-4-2.9-3-2.8 1-2.5-3-4.4-3-4.1-4-7.3-4-3.3 1-6.5M894.5 744v.8l-.4-.8v-.4h.4l.8-.8.8-.8v1.6l-.8.4h-.8m-526.4 1.6-1.4-1.6.7-1.2 1.5.8-.8 2m857.9.8h-4v-2.8h-6m-343.4 2.8v.8l-.5-1.6h0v-.8h.5l.8.8v.8h-.8m19.9 2.1-.9.8h-.8.8v-.8l.9-.9v-.4l.8-.8v-.8h.8v2l-.8.9h-.8m-11-1.3-.8.4-.8 1.7v.8h-1.3l-.8-1.6v-.9h.8l1.3-.4.8-.8h.8v.8h0m344.5-.8 1 2.9 5 5.7 3 2.4v4.5l4 7.3m253-20.7-3-2.1-1 2.1m-46 5.2 3-4.4 3-1.7 2 1.7 7 2m31-2.8v1.6l-4 3.6-3 .9-5 3.6v3.7l-3 3.6 1 2.1-4 6.5-2-.9-2 6.1v4.5l-4 1.2M20.8 748.5h0m855.4 1.6h-.4v-1.6h0l.4.8h0v.8m631.8 37.8h-4l-2-.4V785l-5-.8 2-4.1-3-1.6v-3.6l-3-2.1-2 .4-2-2.8 1-4.5 3-2 2-3.7v-2.8l-1-5.3-1 .8-1-4.4m-606 2.4-1.7.4h0l-.8-.4v-.8h0l.8-.8h.8l.9.8v.8h0m556 2.8-1-4.4-2 1.6m-566.9.4v.8l-.8-.8h0l.8-.4h0v.4m584.9 0 2 1.6 1 3.7m-538.3-4.5h-24M877 792.3v-6.5l2.9-2 3.6-9.7 4.5-4.5.8-4.1 1.6-4.4 4.9-3.7 2.4-5.3m24 2.5v-2.5m538.3 4.5-2 .8h-6l-2-.8-3 .8-5-1.6v-2.1m-500 13.9-20.3-13M877 792.3v-3.6h21.1v-9.4l6.1-2.4v-15h17.5v-7.3m-370.1 2H554l.4.8.8.8h0l.8.4h.9v1.6h0-.9v2.1h0-.8 0v-.4h-.8.8v-2.5h.8v-.8h0v-.4h-.8 0l-1.2-.8v-.8h0-1.6 0-.8m-3.7 2h-.8 0l-.4-.4H547.9v-.8h.8l.8.8h0l.9-.8H551.6v.8h0-2.1l-.8.4h-.8 0m896.1 28.9-1-3.3-1-7.3V772l-4-2.4 3-4.9-3-2.4 2-3.7 5 3.3h2v3.6m-209-4.4v.8l-1 .4v-2.1l1 .9m6 10.9 2 2.1 3-1.3 6 .4 4-1.2 8-10.1 1 2 1 3.7m-30 1.6v-4.5l2-2.8 3 .4v5.3l-3 2m-791.8-7.7-.8 2.8-1.2 2.9-.9 4.4-.8 5.7.8 2.4-.8 1.3.8 6.1.9 1.2 2 3.6 2.4 3.7 1.2 1.6.9 2.9.8.8 2 2.8h2.8l2.5.8 2 2.1 2.9-.8 1.6-.5h3.6l2.9-1.6h2.4l.4 1.6h1.7l1.6-1.6-.8-1.6 2-1.2 1.6-.8v-2.1l1.2-1.6v-4.5l.9-1.2.8-.8 2-.8 3.7-.8 2.4-.8 3.6-.4 3.7 1.2 1.2-1.2.8 1.2.9 1.6-.9 2-2 1.7-.8 1.2v1.6l-1.6 2h1.6l-2 6.9h-2.5m61.4-41h0l.8.8.8.4.8-.4v.4l.8.8h.4v.9l-.4 1.6v.4h0l-.8-.4h0l.8-.8v-.8h0v-.9h0-.8v-.8h0l-.8-.4h-.8 0-.8v-.8m773.9 10.2-4-.8-2-4.5-2-.4v-2.5l-2-1.2-9 .4-4-.4-3 1.2-5-.8-3 1.7-1-.9m150-1.2 3 1.2h9l1 .9v3.6l-4 1.6-1 2.9 2 4.4 1-3.2 2-1.2 2 9.3m147-8.5 5-8.9 3-1.7 2 2.5-3 9.3-2 5.3-4-.8-1-3.7v-2m-1058.6-9.8H551.6v.9l.8.8v.8h0l.8 1.2h0v.8h-.8 0l-.8.8h-.8v-.8h0-.4l-.9-.8h0v-.8h.9l-.9.8h.9v-.8h0v-.4h0v-.8h0l.4-.8h0l-.4-.9h0m4 .9h-.4H555.2h-.8 0m436 33.7-4.9 1.2v-4.9l-7.3-2.4-3.7-2.9v-2l-6.9-4.5-16.6-12.6-9-5.6m-39.4 58.5 2.5-.9.4-3.6 1.6-.8 3.6 1.6 7.4-.8h20.3l.8-4.5-1.2-.4-5.3-49.1h9.3m321 13.8v-2.1l2-7.3 2-4.4h2m0 0 1 2.8 4 3.7 7 1.6 6 8.1-2 4.9-3 1.6-2 4.5-2-1.6-2 5.2v3.7l-3 1.2-3 1.6-1 3.7h-4l-2 1.2-1 3.7h-5l-5 2.4m-11-46.3-2-.4m-674 3.6h0v-1.6h-.8v-1.6h-.8.8v.8l.8.8h0l.4.8v.8h.8-.8 0-.4m676-3.2 3 2.4m-690.8 0h0v.8h0v.4h0v-.4h.8v2.1h0-1.6 1.6-.8 0l-.8-.8v-1.3l.8-.8m690.8 0v.8l4 7.3 15 1.3h0m-693.1-8.2v-.4h.8v.4h0l-.8.9h0v-.9h0m874.1 14.3-3 .4-4-2.1-4 2.1-2 2.4 1 2.9-3 3.6-4 1.6-4 2.9-4 4.9-4 3.6-5 2.4-1 3.7-3 1.2h-2l-2 3.3-4 .4-1 3.6v4.5l2 5.3-2 4.5-1 2v9.3h-2l-3 3.7 1 1.6-5 2.9-1 2.8-2 1.6-3-1.6-3-2.8-1-6.5-3-7.4-5-8.1-1-4.9-2-5.2-4-7.4-1-5.6-2-9-1-7.3 2-4.5-3-2-1-5.3-2 5.3-5 2-3-.8-6-5.7v-2l5-1.6-6-1.6-3-2.1-2-3.6m-770.3.8h.8l.9.8h0-.9l-.8-.8h0m3.7 0h.8l.8 1.2v1.6h.8v.8h.8v.8h0-.8v-.8h0-.8v-.8h0v-.8h0v-.8h-.8v-.4l-.8-.8h0m482.6 3.6-4 2.1-4-2.9-8-2m0 0-24 15-9 8.2-8.6 1.6m57.6-22 5-2.4 13 6.1 18 10.2 12 6.5m449-11.8-4-.4-4-2.5v-4.9h-4l-3-2.4m0 0-2 .8-1 2.1-4 1.6-3-1.6-1 2.4-4-2.4-2 2.4m-946 14.6-5.7-.8-4.4.8-2.9-1.6 2-2-.8-1.7h-4.4l-2.1-1.2-1.6-3.6-2 .4-4.5-1.2-2.8-1.7-6.5-.8-.9-2.8h-3.6l-3.7 2.8h-2.8l-2.9 2.5V783l1.3-1.6 5.2-2.1 4.9-.8h9l2.8 1.6 4.5 2.9h2l7.3 3.7.8 1.2 8.2 2.4 1.6 2h2.8l2.1 2.5.8 1.2-3.7 1.6m474 34.1-1-4 4-6.9 7-6.5v-11l1-6.5 1-2-4-6.9-1-8.6m-475.7 2.1h0-.8l-.8-.8h.8l1.2.8h-.4m887.7 9.7-2-8.9-2-1.6-3 1.6-4 4.5-2-.9-3 1.7m-872.5-3.3v-.4h.8l.4-.8.8-.8h0v-.8l-.8.8v-.8h.8v-.8 1.6h0l-.8.8v.8h-.4 0l-.8.4m674.5 18.3 16-5.7 3-11.8-2-3.6m314 .8-2-.8m2 .8v1.6l-2-2.4m0 0-1 2.4m-994.4 0-.8-.8h0-.8 0-.8H579.6v.8h0m933.4-.8 3 2.8 2 .9-1 2.8m-4-6.5-3 1.2 1 1.6v3.7l-2 .8-1-2.4m-1390.7-3.7-.7 1.6-1.5-.8v-.8l2.2-.4v.4m1456.7-.4v.4h0m0-.4v.4m0 0-10 3.7h-4l-4 3.2 2 2.9-3 1.2-1-3.7v-3.6l-3 .8-3-2.9-3 2.1m-380-2.9 1 5.3 2 11 4 4.9 2 1.6m-9-22.8h-63m0 0v11.8h-6v2.9m366-14.7v2.9l-2 3.2m-876.3-4.4h0l-.4-.9h0l.4-.8V786.7m1.6 0h0-.8 0v-.9h.8v.9h0m-460.7.8.8 2h-1.5l-.7-2h1.4m1377.4 7.3 2-2.5 1-2.8 3-1.6m37 0-4 3.2-3 .4-1 3.7-3 1.6-2 5.7 1 2.4 4 3.7-1 .8 5 4.9 2 2.4 6 6.5 2 8.1v2.1l1 2.8-1 1.6v4.5l-1 2-9 5.3h-4l1 1.2-1 3.7-5 2.4-2 2.1-2 .8v-5.3l1-2.8-3-2.1m-951.7-58.1h0v-.4l.8-.8h0l.9-.8.4.8h.8l.8-.8h0v-.8 1.6h0l-.8.8h0-.8l-.4.4-.9-.4-.8.4m942.7-2 2 2 2 1.7 2-2.1 3 2.1 2 2-2 3.6-2-.4-2 2.1 5 2.8 4 3.7 1 2.8 5 3.7 4 6.1v.8l2 2.8-1 2.9m-47 23.9-2-2 2-1.6v-3.7l-1-4V835l-1-3.3-3-6.5v-2.8l-4-9.3-1 2-6 2.8-1 2.9-3-.4-4-1.7 2-8.1-4-10.1-2-4.5h-3v-2l-3-1.7-1-1.2m-1325.1 2.1h-1.5l-.7-1.7.7-.4 1.5 1.2v.9m745 25.5v-2.8l2.4-6.5v-4.5l-1.6-2.8.8-6.9-1.6-2-2.9-.9m627 3.7-2-1.2m0 0-5 2.8-6 1.2-1 .9v5.2h-2l2 4.9 4 4.5 1 2.8-1 5.3-2 .8 1 2.9 4 5.6v3.7l3 6.9-3 4.1-2 1.6v2M139.3 800.5l-2.2 2-1.5-1.2v-.8l-.7-2.1 1.4-1.6v-1.6l3 1.6 1.4 2h.8l-.8 1.7h-1.4m1418.7 2.8-4 3.7-6-2.1v-4.4l3-3.7 8-.8 2 2.8-2 1.7-1 2.8m-28 24.8 2-1.2-1-2.9 1-3.2-5-4.1v-4.5l-4-6-4-.5-3 3.7-4-2.4-4 3.6h-1l1-2.8v-2.1l1-3.6-2-3.3h-3V796m-919.5 11.8-1.2-1.6-3.7.8-3.6-.8-3.3.8-2-.8 1.6-2.1 2 .8 5.3.8.4-2.4-.4-1.2v-2.4l-3.2-.9 3.2-2 4.9 1.6m0 0 4.5-1.6 3.6 2h2l.9 1.7h2.8l4.5 3.6-.8 2.1-7.4-.5-3.6 1.3h-2.9l-1.2 2.8-2.4-2m0 0 .8-1.6-.8-7.8m511.5 1.3v21.1h-4l-1 3.2-3 2.9v2.8l-3 1.6 2 2.1-2 2 6 8.9-1 2.9m-556.7-46.7h1.6-1.6m1324.7 0h0-1 1m-867.6.8v15.8l-1.2 3.3-2.5 2-11.8.8-2 1.2-3.6.8m282.7-9.3-6-13.4m0 0-18 3.7-13 14.6v-5.7l-10-3.7h-7l1 3.7-2 2m428 14.6 2-1.2 2 4.5 2 .4-1 2.4-3-2.4-1-2-4-2.9-2 .8-2-.8-2 2.1-4-2.1v-1.6l2-2-5-.8-1-5.7 2-2.5v-8.5l1-3.7 4-1.6 4 2.1 2 5.2 1 1.7-1 2.8-5 7.3 2 5.7 2 1.6 1-2.4 3 .8 1 2.8M558.9 808.6l-1.2-.8-1.7.8-.8.8-.8-.8h-1.2l-2.4-1.6-1.3-.8.9-.5 2-.8 5.3.8.4.5 2.4.8v1.6h-1.6m57.7-.8h-.4 0l-1.6.8h-.9v-.8.8l-.8-.8-.4.8h-.8v-.8h0l-.8.8h0-.8 0-.8 0V807h0v-.8h-.4 0v-.5l.4-.8H611.7l.8.8h4.9v.5h0v.8h0l-.8.8h0m7.3-2.1h0v-.8h.8l-.8.8m-132.1 3.7.5-1.6 1.6.8 1.6-2.9h1.2m0 0h.8v2.1m125.2-2.1h.8-.8m8.1 1.3h0l.4-.8h0l-.4.8h0m.4.8v-.8h.8v.8h0m-13.8 0h0l-.8-.8h1.6l-.8.8h0m13.8 0h0-.8 0m.8 0h-.8 0m-133.7 0-.8 2v6.1l-1.2 1.2-1.6.8-.8 1.7m680.9-11.8 1 3.6 3 10.2h3l2 2.8 5 2.5 2 3.6 4 2.1v1.6l4 2.8m-35-8.1-1-4.9 3-6.9 1-3.6 2-2.1 4-.8 2-2.8m-542 .8h0m0 0h.8-.8 0m0 0h.8-.8 0m-138.9 11h-1.3v-10.2m-16.2 17.5.8-2.9-.8-.8 2.8-4.5h6.5v-1.6l-1.2-.4-.8-2.4-1.6-.8-1.2-1.3h2v-2.8h9.7m129.3.4.8-.4h-.8H623.5h-.8 0l-.8.4h0-.8m7.3 0h0v-.4h0v.4m9.7.8v-.8h0-.8l.8-.4v.4h.4l-.4.8m-7.3 0h0-.8 0l.8-.8v.8h0m2.8 1.6h0-.8l-.8-.8h.8l.8.8h0m199.5 2.1-.8-1.2 1.7-.9.8.9-1.7 1.2m-195-.8h0-.8v-.4H638.5v.4h-.4m-2.4 1.6h0v-.8h0v.8h.8-.8m-572.5 0h0m1188.8.8-4 .8-2 2.9m-343.4 6.5L899 824l-2.9-5.3-2.8-.8-2.5-2-6.5.8h-3.6l-.8 2m-240.6-1.6h0v-.4h.8v.4h.9v.8H639.3h0v.8h0l-.8.9h0l-.4-.9v-1.6H639.3m606.7 2.5v2l-5 2.4-4 .4-7 3.3-2 2h-4l-3 2-4 1.7-6 .8-3 2.8-6 .8-2-1.6-4-15.4 1-3.7m-317.5 15.5-3.3-7.4 3.3-4.8.4-1.7m-238.9.9h0-.9.9v-.9.9h0m-144.3 1.2 2.9-1.2.8.8h6.5l3.2-.8h4.1l2.4.8h1.3l1.6 1.2-.8.8 1.6.8h2.8l.8 1.2m-30.8-4.8 1.6 1.2.8-.4 1.2.4m0 0-2 1.6-2.9 2V826.1l-.8 1.6m149.1-3.7h0v-1.6h0l-.8-.8h0v-.8h.8l.9.8h0v1.6h0l-.9.8m202 1.2-.8-.8v-1.2l1.6 1.2-.8.8M1746 824h0v-.8h1l-1 .8h0m-807.6 25.6 2.4-8.1 2-.8 2.5-3.7v-2l1.2-2.4 4.5 1.6 2-4.5 1.6-1.6 7.3-2 2.1-2.1 5.3 1.2m-445.4-.8h-1.6l-2 1.7-3.7.8-2.4-.8-.4 1.6-.8.4-.8.8-2.1 2.4-1.6-1.6-1.6 1.6h-2v2.9h-.9l-.8 1.2H502m21.9-11-.8.8.8 2.9-1.6 2.4-.8 2.9.8 5.7-1.2.8v2.8l-.8 2.5v.8l1.2 1.2m447.8-22-.9 2.5 2.9 4 1.6.9v2.8l5.7 3.7 2.4 2.4m213-2.8-3-3.7-3-2.4-2-3.7-7-2-6 .8-3-2.5-2 2.5-5 1.2m-520-.8v-.4h-.8 0l-.4-1.6-.8-.9H642.2v.9h0l.8.8h0v.8h0v.4m264.1 11v-3.7l-3.7-2.8v-3.7l-.8-2.8m623.4 23.5h2l4-3.2 2-4.1 2 .4 4-2.8 2-.8v-3.7l1-2-2-3.7 1-3.6m0 0-4 2-1-1.2-7 2.8v-1.6m-1043.4 3.6-2.1-1.2h-4.4l-2.5-1.6-2-2m1054.4 1.2-3-.4-4 .4-2-.4-3 1.2-2 2.4-1 1.3v4.4l1 1.7v2m-1025-13 4.5 2.8h3.7l.4.8-.4 2.1m-12.6-1.7.8-.4 3.6-3.6m659 26.8 3-7.3h1l1-4.5 4-4.9 2-.8 2-8.1m-520.8 2.8h0v-.4h-.4v-.8h.4v-.8h0l.8.8h0v.8h0l-.8.4h0m398.8 0-4 1.7-3 2-5-2-7 .8-2 2.8-6-.8-5-2.8-3 2-4-2.8-4-2.1-6 1.2-2.4 1.7v2l-2.1 3.3-.8 4m-487.5-9.3-.9 1.6-4.4-.8-2.9-.8-2.8-.8-1.6-.9m556.4 3.7-2-3.7m-161.5.9h5.6l-1.6 2.4-4.9.4m0 0 .9-2.8m734.5 6.5-4-6.5h4l2 2.4 1 2.8-3 1.3m-98 1.6-2-.8-3-2.9h-5l1-3.6h-5v6.5l-5 10.1v3.7l2 2.4h2l1 2.9 1 1.6v4.9l5 3.6h2l2 2.9m229-37.8-1-.8h1v.8m-1239 1.2-1.6-2h-1.2m142.6 1.6h-.8 0v-1.6h.8v.8h0v.8h0m8.5.4h-.8 0v-.4h0v-.8h0l.8.8h0v.4h0m392.7 0 2-.4 3 5.7v7.3l3 3.7-4 .8h-3l-2 1.2 7 6.9 2 4.9m-37 14.6 1-2v-3.7l7-6.5h3l4 3.7 3-6.9 2-4.9 3-.8v-3.7l1-.8 1-2.8 3-5.7 4-2.5v-3.6l-2-.8-1-3.7m-164.4 3.7v-3.7M510.5 846l-1.2-.8-2.8-2.9-1.6-2.4-1.7-.8-3.6-2.9.8-.8h1.6m696 1.6 2 4.5-1 2.8m-5-5.6 4-1.7m56 0 1 .8 2-.8v.8l1 .9-1 .4h-2l-2-.4v-.9l1-.8m-375.4 2.1 5.7-.4 2.5-1.7 7.7.8m0 0h3.6l3.7 1.3h5.3m-19.1 7.3 1.6-2.9 4.9-.8v-4.9m-299.9 1.3-.4-.4v-.9l.4.9v.4m1044.4 7.3-2-.4-1-3.3-4-2.8-1-2.1h5l2 2.1v3.6l1 2.9m-442 0h-5l-1-2.9 3-4.8M554.4 859l3.7 3.6V859l4.4-3.7h1.7l.8-6.5 3.6-2.8 1.3.4 2.8-2.1 3.7.9 9.7-6.5.8 3.6m320.2-3.2 3.6 2.4 2.1-1.6 3.2.8 4.1-1.6.8 3.6 2.4 1.6.4 5.3 1.7 1.2m55.6-9.3 2.1-2.4 3.6 3.6m-386-2h0l-1.6-.8-.8-.8h.8l.8.8h.8v.8m287.3 5.7-2-.4-.9-3.3h-2l-4.5-3.6m-275 .8h0v.8h0v-.8h0-.8 0v-.8h0l.8.8m34.9 0h0l.8.8h-.8 0v.8h-.4 0l.4-1.6h0m-51.6 2.4-3.2 1.2 2.4 4.5-2.8 5.3 2.8 4 2-1.2v-2.8l-2-4.5.8-2.4 7.3-2.1-1.6-2 1.6-2.4 2.1 4.4h4.4l2.1 1.7m491.2 10.1 3-2.8 4-.8 2-1.7 3-.8 2 3.3 2 .4h6l2-2 6 1.6 5-2.5 3 1.7h4l4-6.5 1-4.5 3-.8 2 6.5 3 4.5 1 2.8m376-4.9-3-.8-6-6.1-1-2m-317 3.6 5 5.3h4l4-2.4 5 .8 4-2h3l11-2.5 4-2 2 .8V849.6l-1 .4-1 5.3-3 4.5-2 3.6-4 5.7v3.7l-6 8.9-6 7.3-5 4.5-8 4.1-5 4.4-8 9-2 3.6m-217.1-68.2 2-2.1h3.7l2.4-2.8m-394.1.8-3.2.4m1041.3 2.5-2 2.8-4 1.6v-6.9l6 2.5m-638.3-2.5v1.6l1.6 3.7-1.6 5.3-3.6 3.6-.8 6.5v8.2m-398.6-28.9-4.9 6.9-.8 6.5 3.6 4.9-.8 4.5 2.5 2.4 10.1.4 3.7 4.5 10.1-.8-1.6 5.3v4.4l1.6 4.5 1.7 1.2-3.3 2.9 3.3 2.4 2 6.5m588.1-54.9-2 2.1m439 2.4h-2l-2-3.6 3-.9 1 3.7v.8M643 846h0l.8-.8h0l.8-.9v.9h0l-.8.8h0-.8m-132.5-.8 3.7 1.2 1.6-.4 1.6.4 1.3 1.6H521.1l.4-.8m-11-1.2v-.8m92.3.8 1.6 3.6 10.2-.8 1.6 1.2 5.7 1.7 2.8-2.1 8.1-1.6-.8 1.6 2.9 4.1 2.4-1.2 2.8.8 2.9 2-2.9 5.3 3.7-.8h3.7m-20.4-13.4h0v.8h-.8 0l-.8-.8h0l-.8.8h0l-.8-.8h0l.8-.4.8.4h.8v-.4h.8v.4m345.8 0-5.7-.4m0 0 .4 2 2.5 2.8 1.2 9.8v5.7l-.4 2 1.2 3.3 2.4 1.2m-7.3-26.8-3.2.4h-11.4v1.6l1.2 6.5m-428.6 8.1-.4-.8-3.3-1.2-.4-.8.4-1.6v-.9l-2-1.2-1.6-1.6h-2.1l-.8-2-1.2-1.7v1.7h.4v.8l-.4 1.2-1.6-1.2-1.7-.8-.4-.8-.8-1.7 1.2-1.2V846m686.5.4-1 2.4 4 6.5 2 2 17 5.3h5l-5 5.3-11 11.4h-6l-4 1.6-1 1.6-6 2.1m-140-19.1h1l4-1.2 2 .4 4-2.1h5l3-3.6v-1.7l7-.4 6-6.1 1-2 4-2.4 2 .8M976.6 872v-14.7l-1.7-4.8-2.8-2.5.8-3.6m-353.1.8h0-.8 0v-.8h.8v.8m277.1 10.1-1.6-4-3.7-1.6-3.6-5.3m-366.5.8.8 2.4 1.6 2.1 2.1 2 .8.8m563.2-7.3 4 5.3v3.6m528-.8-1-2.8 3-.8 1-4.5 2 .8-2 4.5 1 3.6-1 .8-3-1.6m-980.2-8.1H643l-.8.8h0v2h0v.8l-.4.9h0H638.1h0-.8.8l.4-.9h.8v-.8h.8l-.8-1.2h0l-.8-.8h2.5l.8-.8h0m961.2 4.5 3-4.5 1 2.4-3 2.1h-1m24 0 2-4.5 1 2.8-3 1.7m-701.6-.9 1.6-1.2 2.8 1.2 4.9-2v2l3.7-1.2m15.4 4.9-2.8-2-5.7.8-3.7-.8-3.2-2.9m563.6 22-2-3.3-2-3.6-3-2.1-1-2-2-.8 1-3.7 2-6.1m-572.5 14.7 1.2.8 2.5-4.9v-5.3l-1.6-1.6.8-2.9m706.6.9v2h-3l2-2.9 1 .9m-719.2 8.9-2.1-4.5-2.8-4.4-6.5.8-.8 2.8-3.7 2m730.1 9-2-2-2 1.2-1-1.2-2 4-1-.4 2-5.3 4-.8 2-2.8 4 2.8 3-4.5 2 .9 2-1.3v-3.2l4 3.6 1 6.1v3.7l-2 2-3-2v2l1 4.5-1 2-2-1.2-4-1.6-2-1.2-1-3.7 2-1.6-2-1.6-2-.4v2m-223 3.6-2 2.9-4 1.6-2-.8-2-4.5V861l1-5.7 2-1.6 2 2.4 3 4.5 3 5.7-1 3.6m-877.2-15.4-1.6-.8v3.2l.8.4-.8 1.7v3.6m1.6-8.1 1.6.8.4 2h2.5l1.2.9 1.6.8 2-.8 1.7-.9 2-1.2 3.2-2.4 2.9.8v.8h2.8l2.9.8 1.6 2.1 1.2.8m605.6 21.9-1-3.6-4-1.7-1-5.7-6-5.2-4-.4 2-3.7 4-.8v-5.3m-196.2 0 .8 7.3-1.6 1.6-2.8 6.5 2.4 5.7v3.3m141.4-22.8v2.9h3v2l4 .8 2 3.7 6 4.4-1 1.7 5 3.6 2 3.7m-208.7-10.6-4.9-2-2.4-3.7-2.1-2v-3.3m-344.5 9.8-1.6-1.6-1.3-2.9h0l.9-2h-1.7v-.8l-2-1.6-1.6-.9h-1.7l-1.2.9v1.6l-2.4 1.2h-1.2v1.6l2 2.1-2 2.4h-2.5l-.4-1.6-3.2-1.2-1.2-2.5h-2.5l-.4-.8h-3.2v1.6m29.2-3.6v.8l.8 2.8v1.7l-1.2 1.2-.8-.8-.8 2.4m95.1-7.3 4.4 2.8 3.7 3.7v2l2.8.8 4.5 4.5-.8 2.8m-18.3 1.7-3.7-4.5.9-2.8 4.4-2.5-1.6-2.8 5.3-4.5-1.6-1.2m275 4.9-2.8 2.4-2.5-.8V861l-4.4-.4m-6.5 7.7 5.3-4 1.2-3.7m773.2 5.7v-1.6l1 .8-1 .8m-758.6 16.2v-8.1l-1.2-2.4-4.5-1.2 2-1.7-1.2-4.4m128.5.8-4 6.5-2 5.3 3 7.3 6 5.7v3.6m815-26.8v-.8h0v.8M547.1 897.6l-.4-1.2 2-3.7 3.7-1.6 3.6-4.9-1.6-2.4.8-2.1-1.2-8.9 1.2-2-2.8-3.7m807.6 2-1 1.7-1-1.7 1-.8 1 .8m452 0v-.8h1l-1 .8m-884.6 13.4-8.5-3.6-6.5-6.1-5.3-2.9-.8-1.6m675.7 11h1l2-1.2 3-5.3 2-2 4-.9 2 .9 1 3.6 3 .8 4 2.9m-102-6.5 2-.8 4 1.2m-494 8.1-2 1.6-5-.8-3 1.6-4 .4-3-2.8-1-2.8-4.8-5.7h-8.9m529.7.4 7 5.3 1 2 1 3.2-1 3.7v3.7l2 2 3 5.7h-5l-7-3.7-3-3.6-1-2.1-4-3.6v-4.5l-1-1.2v-5.3l-2-2m-519.7 0-5.7.4m531.4 0v3.6l2-1.2 2 .8V872m-535.4 0-2.1.8m0 0-1.6 1.6-3.6.8-5.7 2.9-4.5.8-1.6 1.2-4.9-1.2m-290.5-2.5 1.6-2.8 9.4.8.8-.8 5.7.8-.9 2.9m0 0 .9-2.1 5.2 1.2 5.7 4.5 1.7 2.9m787.8-6.5 3 .8 6-.8 2 2 2 4.5 5 2.8 5 4.5 1 2.4h2l3 2.9 4 2 1 2.4 6 2.1 1 1.6-1 4.9 2 1.6 3 .8 1 3.6 2 2.9 4 .8 2 4.1v3.2l-2 11-2-2.5-4 1.7-5-4.5-1-.8-6-4.5v-1.2l-4-2.4-4-5.7v-1.6l-2-5.7-3-2.9-1-1.6-3-1.2-2-6.9-2-2.1-4-2.8v-2.4l-4-4.1h-2l-5-5.3-2-4.5 2-.8 2 1.7m-817.9-.9-2 2.5-2.5 5.7 2.5 2.8 6.5 8.1m448.4-16.6-2-.8-3 .8-5-1.6-2 1.6h-5l-6 2-2-.8-2 2.8-10-.4-4-3.6-2-.8-4 4.4-1 4.1m-390.3 6.9 2-3.2.9-3.7-2.1-2.8v-4.9l1.2-1.6m273.9 1.6-8.1-1.6-7.3 1.6-9.8 3.6m-283.6-4.4h2.8l1.7 3.6 1.2 2.9-1.2 2-.8 4.5 1.6 4.4 2.8 2.9 3.7.8 6.5-4.5 4.5.8m-55.7 3.7 2.8 2 6.5-1.2 4.5-2.4 1.6-2.1-1.6-6.5 1.6-4.4h3.7l9.3-1.7 2.9-1.2 1.6-3.6m960.2 0-5 1.2 2 3.2-5 .4m-19-2h2l1-.8 1-1.2h1v.4h0m-467-.4 1 2 3 2 3-1.2h5l2 2.9 3 2m445-5.7h0v.8h1v.8l1 .4 1 .9h1v-2.1h0v-1.6h1v-.8m1 0-1 .8h0V882.5h2v-.8h0v-.8l-1-.8v-.8m0 0h0m-563 14.2 1-4.5-2-3.6-3-1.6-2-3.7m177 4.5h-3l-2-1.7-5 2.5-2 2-8-1.2-6-4.5-5-.8m-11 2 2-2h9m394 13.8 1 2.5 6 .4 1-4.9 2-2.4 7-1.3 5-6.1 1-2m-218 .8h0-1v-.8l1 .8m195 13v2.5l4 4 4-1.2 2 .8 3-3.2 3-.4 5 2 1-1.6h4l1-2.1v-2l3-3.6h0l2-7v-.4h8l2 .4M1149 911v-6.1l1-2.9 5-4.8-1-5.3-1-2-4-7m0 0-2 2.5-3-.8-6 2-3-1.2-3 1.2m464-3.7 1 3.3h-3l2 4.1 2 3.2-1 2.9 4 2 2 2.8-4-.4-2 .4-2 3.7v3.6l-3 3.7-2 1.6v5.3l-3 4.9-1 1.6-6 2-1-3.6h-4l-3-2.1-3 2.1h-4v-2.1h-9v-9.7l-4-2-2-2.9-1-6.1 1-3.6 4-2.9m-861.8-10.9 2.8.8.8 4.4 2.9 7.4h2.8v3.6l-4.5 4.5-2.8 2-4.5 8.1 6.9-3.6v2h0l.4 2.4h0l4.5.5 5.3-.5 2.8-3.2 1.7-2.8 4-.9 3.7 2.5 9.7 2.8 2.1 4.5 2.4.8 3.6-.8 4.1 2 6.9.8h6.5l8.1 4.5 7.4 6.5 2 .8h3.6l3.7.8.8 2.1 2 8.1v4.5l-2 5.6-6.1 8.2-3.6 1.2-3.7 7.3-3.6 4.5h-2.1l-1.6 2.8.8 3.3-.8 3.6.8 6.1-1.2 8-.8 3-1.7 2-.8 7-3.6 7-1.2 2-1.7 4v2l-4.8 3-1.7 3h-13l-.8 2-5.3 2-6.5 4-5.6 4-3.3 4v11l-.4 6-3.3 2-3.6 6-1.2 3-2.5 1-2-1-2.8 5-1.7 1-1.2 6-3.2 6-2.9 3m-6.5-203.5 2 .4 2.5-.4 4.5.4 1.2-.4 3.6-8.1 1.7-1.6m498.8.8-5 5.7v19.9l4 4.4m-175-28v1.6h-2l1-2 1-.8v1.2m346-.4v.4h-1l1-.4h0m-294 .4-6-.4-4 .4-3 7.3m78-7.3v6.1l3 1.2-1 2.5-6 4.8-2 3.7v8.1m-59-26.4v1.6l-3 5.7v9.8l-2 4.8-4 4.5-4 4.5 1 5.7-2 3.6-2 .8-4 3.7h-3v-2.9l-4 3.7-2-1.6m320-40.2v.8l-1-.8h1m-691.4 5.2 2-2 6.1-1.6 2 1.6m352.3.4h-8l-1-.4m0 7.3-2-1.6 2-3.7v-2m19 .4-10-.4v.4m25 0-2 1.6-7-1.6h-6m-10 0v6.9h-9m7 26 2-2.8 2-4.9 6-.8 6 .8 1-3.7 1-6.9-3-2v-2l3-3.7-1-2.4h-4l-2-1.2 1-3.3m-444.8 34.5 2.9-14.6-.8-5.3-2.1-2v-3.6l.4-6.5h9.8l4.5-2.5 2 5.3m746.1-4.5h-2 2m-1228.7 1.7h-.7l.7-.9.7.9h-.7M1649 900l3-.8v2.8l2 2.5-5-1.6-1-3.7 1-2.8 2 1.2-2 2.4m-14 .8-3 2.9-4 .8-3-1.6h-7l-4 .8-3-.8-2 2-1 2.4 2 2.9 2 2.8h2l2-2.8 4 .8v-1.6h4l-3 4.4-2 .8-2 2.9 2 .8 2 4.5v2.8l1 .8v2.9l-2 .8-1 1.2-3-.8 1-2.9-3-2.8v-4.5l-2-.8-2 1.6v13.8l-2 1.7-3-2.5 1-4v-3.3l-1-2.8-2 .8v-5.3l2-3.6V913l2-3.6 1-7.4 3-.8 2-2.8 10 2.4 6 .4 3-1.2 3-3.6 1 1.2-1 3.2m-274-2.4h0v-.8.8m162 0h0l-1 .8h0l-1-.8h0v-.8h1l1 .8h0m-975.9-.8 3.7 3.2M539.4 924v-3.7l-3.3-2v-4.5l1.7-5.7 2.8-3.2v-3.7l6.1-2 .4-1.6m479.9 29.2-2-3.6-5-3.7-2-4.1-3-5.2 3-2.9V902l2-1.2m-469.2 0 6.9 3.7 4-.8 4.5 2.8m-541-5.3h0m1337.8.8h-2l1-.8 1 .8m-360 3.7-1-1.2 1-.8h1l-1 2m-977.1-1.2h0m456.2 6.5h-2v-.8l1.2-1.7-1.2-1.2v-1.6h-1.7l1.7-.8.8.8.4 1.6.8.8.8 1.3-.8 1.6m84.1-4.5 4.5 2 .8 2.5 2.8 1.2 1.7 3.2 2 .5.8 3.2h3.7l2-1.6h5.3l4.4 2.8-3.6 5.3 2 .8 1.6 2m-28-21.9v2l-1.2 5.3-3.3 2.9-2.8 2.8-6.5 2.4-2.9 2.1-3.6 8.1-6.1-5.7-.4-2.4m167.4-10.2-9 1.6-1.2-2.4v-3.6l1.2-2.9 5.3.8 2.1-.8 4.4.8-.8 2.9-2 3.6m651.2-7.3v.8l-1-.8h1m363 48.4-6-6.1h-6l1-1.3v-1.6l-1-1.2v-2.4l-2-2.9-2-4.5-4-2.8h-3l-5-2-3-.8-5-2.9-4-1.6-2 2.8h-2l1-2.8-2-2v-2.5l3-1.2-6-2.4-1-2.1-1-.8-4-.8 1-2.8 4-.8 3-2.1 4 1.2 1 .9h3l1 3.6V918.3l3 1.2v2.4l2 1.3h2l4-3.7 1-2h2l2-2.1 3-1.6 5 1.6 6 2.9h2l5 1.2M113.7 908.1h0m1745.3.4h0m-1372.4 0-.8 1.7-1.3-.8.4-.9h1.7m874.4.9-1 .8v-.8h1m137 6-2-.8-2-2.8 2-.8 2 4.4m-367-3.6 1-.8h17m28 19.5-7-4.9-1-3.7-19-10.9h-1m-18 .8 1 2.8v3.7h-1m-5-5.3 2 .8 3-2m-5 1.2-2 2.4-2 2.9 1 2m232-5.7h0-1l1-.8v.8m182 6.5-4-.8-1-3.6h-2v-2.1l4-.8 1 4.5 2 1.2v1.6m-347-6.5-4 2.1v1.6l-4 2v2.9l-4 7.3h-1m-46-12.2 1 3.6-4 6.5-3 .9m-2-9h4l4-2m415 2.8-1 1.7h-2v-3.3l3 1.6m175-1.6 10 3.7 3 .8 3 2.4h2l3 2.9 4 2v3.6l3 .9 4 1.6 2 .4 2 3.7h-4l2 4.4 3 2.9 1 2.4 9 8.5 1 2.5-5-1.7-7-.8-1-.4-2-2.4-5-5.7-1-2.4-8-2.1-2 .8-5 4.5 1 2-5 1.7-2-.8h-6m0-35.4v35.4m-365-34.6h0v-.8l1 .8h-1m-231 9-1-2.5v-4.9l-1-1.6m537 0 5 2.5 2 2-1 1.6-4-2.4-5-.8-3 .8-2-2.9h6l2-.8m-13 4.5-3 1.6-4-2.4 1-1.2 3-.9 3 .9v2M591.8 1005l-4.5-3-1.2-2-19.1-11-4.5-4.1-1.2-3.2V978l-5.3-9.3-2.8-2.1-6.1-14.6-2.8-3.6-2.1-4.5-2.4-2.9-4.9-3.2 1.2-2-2.8-5.3.8-2.1 5.3-4.4m1242.6 2.4 4 2-3 1.7-1-3.7m-750 6.5-1-2.8-4-3.3m332 0v.8l-1-.8h1m-762.7 37.4-5.3.8v-8.9l-4.1 3.2h-4.4l-.9-2.4-4.4-.8 1.6-2.1-3.7-3.6-.8-5.3v-2.8l2.9-2.1v-2.4l1.6-4.1 4.9-3.6 6.9-2.5 3.6.8m669.8 2.9-1-2 1-1.7 2 3.7h-2m501 4.5 6-.9h3l1-2.8 3-.8-1-3.7 4 1.7 1 2-3 2.4v2.1l-8 3.6h-4l-7-2.8v-1.7l5 .9m-733-2.9 4-3.6 2 1.2m87-1.2v2.8l1 4.5v4.4l3 2.9 3 5.7m-94-19.1-3 2.4-2 3.7m144-6.1-2 7.3v2.4l4 3.7-1 8.5 2 2.5 1 4.4 2 2.9m-150-25.6-1-3.7m766 4.9 2 2.4-1 2.1-2-.8-1-2.1-2-2 2-1.6 2 2m-760-.4-4 .4-1-1.2m5 .8h18l3 7.3 2 4.1 5-.4h6v-5.3h4l1 1.6h7l1 6.5-1 4.9 3 5.3-1 2.8 6 .8 4-.8m-65 35.8v-9l1-1.2 1-4.5 2-7.3 5-4 2-4.5V965l-3-5.7-2-5.3 3-3.6-7-12.6 5-.4m496 0 4 .4h3l2 1.6h3l2 2.1 9 1.6 2-2.9 3 1.3 1-.5 4 1.3h2l1 4.4 3 .8 4-.8 2 1.7-1 3.6-3-.8-2-.8-3 .8-6-1.6h-5l-3-1.2-5-1.7-4 .8-5-1.6-5-.8v-1.2l-3-1.6-1-2.1 1-2.8m275 7.7-3-.4-2-2.4-1-.8 1-.5 3 2.1v.8l2 1.2m-455 0v-.4h0v.4m353 5.3h-4l2-3.7 4-1.6 1 1.6-1 2.1-2 1.6m114 .8-4-2.4-2-1.3v-.8l2 1.7h2l2 2v.8m-11 .8-1-2.4h-2l1-1.2 1 .4 2 2.4-1 .8m-227-3.2 2 2.4-2 .8-3-1.6 3-1.6m53 1.6-4 .8v-2.4l4 1.6m-37-.8 4 .8v1.6l-10 2.9-1-3.7 2-.8 3 2 2-2.8m-455 6.5-11-4.9-1-1.6m0 0-10 1.6-2 4.5 1 2.8v4.5l-2 4.9 1 1.6 4 2.8 3-1.6-1 6.1-2 1.2-5-5.7-2-.8-4-3.6-3 2.4-7-2.4v-1.3l-5 .4-2-2.8m494-11.8-3 .8 1-2.8v-.8l3 .8-1 2m24-2 2 1.6-2 1.2-6-.8 2-2.8 4 .8m215 4.5v1.2l-3-2.1v-3.6h0l1 1.6v.4l2 2.5m95-2.9v-.8h1l-1 .8m-289 1.2 1-1.2 4-.8h3v2l-6 2.5-1 .4m-1-2.9 1 2.9m0 0-4 4.4-3 .9h-2l1-3.7 2-2 2-.8 3-1.7M50.8 954.9h0m1775.2 3.6v.8l-2-.8h-3l-1-1.6v-1.2l2 .4h2l1 .8 1 1.6m-218-2.8 5 3.6-1 1.2h-3l-3-2-2-.8 1-2h3m-464 .4 2 .8 4-.8 2 3.6 1 5.3 1 2.9m-8 13.4-3-2.5 3-8.1v-4.9l2-3.6-2-5.3-2-.8m-547.7 8.1 7.3.8 1.6-2 4.1-2.5 3.2-1.2 2.9-.8h3.6l-.8 3.7.8 4.8 2.1 3.3 2.8 2.8h3.7l10.5 5.7 4.1-.8 3.2 2.5.4 4.4.8 8.1 9.8 1v6l3.7 1 .4 3-2.9 9v2M1834 963.4h-2l-2-1.2v-1.7l2 1.7h1l1 1.2m-302-1.2v-.8h0v.8h0m-349 0 2 1.2-2 3.2 2 7.8-1 3.6 2 7.3-2 3.7-4 6-3 2-7 3-3 2-6 6-2 2-5 4v4l2 3 2 11-1 4v2l-1 3-8 3-5 3-1 3 1 4m11-86.1 7 .8 4-.8 3 .8 3-2.1 2 .4 5-1.2 5-3.6m-87 2V976h-11v17l1 2 8 7m-496.9-1-.8-2 2.8-3-2-6.2.8-3.7 2-3.6-.8-2.9.8-4.4 1.6-2.1-5.2-8.9M1734 979.6l2 3.7 3-.8 5 3.6v8.9l4 7-1 3 2 3 7 6 6 2v3l2 2 3 7 6 2 1 4 3 4 5 5 3 4 1 11 2 5-2 17-4 9-4 2-4 10-2 5-3 5-1 7v4l-2 2h-6l-5 2-3 4-5 1-4-3-1-4-8 7-6-3h-4l-7-4-3-4v-3l-3-9-3 2-1-6-2-3-3 4 1-7 1-2-1-3-3 4-4 3-4 6-2-4v-3l-5-5-1-5-8-3h-3l-5-3-11 1-9 4h-8l-10 6-3 4h-19l-4 4h-1l-5 4h-9l-4-4-3-2-1-3 5-3v-8l-4-9v-7l-5-8v-4l-2-4 2-2v-5l-4-8 2-4v-6h3l2-4 4-1 7-6 4 1 19-6 2-3 2-3 3-3-1-4 3-4h5l4-5 6-8.5h5l3-2.9 5 4.5 9 2-1-2.8 2-5.3 2-.4 1-3.6 4-1.7 5-.8 3-.8V967l11 3.3 10 .4v6.1l-4 2v2.9l-2 4.4 7 4.9 5 2 2 3 5 1 2 3 3 2 5-2 3-7 1-6-1-6.5 1-2.9v-5.3l1-1.6 2-6.5 3 .8 1 4.5 2 .8 1 4.9v4.4m-534-9.3-1-.8V967h1v3.3m20-2.4h0m-66 0h-1l-2 2.8 2 6.9 2 2 4 5.3v7.1l-2 1v6l-7-7 3-3.4-2-5.3-3 .8-2-2.8m339-9.8v-.8h0v.8h0M1215 991v-2l4-1.2 2-1.7 1 .9 1-2.1v-2.4l1-.8V978.8h2l2-1.2 2-3.2-2-1.3 2-1.6 3 .8v1.7l1 .4 1 4.4 1 3.7v1.6l1 2.9v2.8l-1 2.2-1-1-1-2-1 .8 1 3.2v3l-1 1-1 3 1 2-1 3-3 8v1l-2 3-1 5-1 3-1 4-1 2-1 6-1 3-2 3-2 2h-4l-2 2h-2l-2-2-4-2-1-2-1-1-1-8v-1l-1-3 1-3v-3h2v-2l1-1 2-4-1-2 1-1-1-2v-2l-1-2v-4l-1-2 2-4 1-1v-2h3l2-1h1l2-1h2m-6-15-1-1.6h1v1.6M46.4 978h1.5l.7.8v1.7h-1.5l-.7-2.5m6.6 3.7-2.9-.4.7-.8 2.2 1.2m1077 8.1-1-3.7 17-4.8m-1128.9 2v-.8h0v.8m39.5 0h0-.7v-.8h1.4-.7v.8m1803.4 4.5 1 2-2 1.2-1-2v-1.2l-1-2.5 2 .8v1.7h1m-730 2h-3l-5 2.2-1 3-5 3-4 5-2 1-7-2m32 27 6-7v-4l2-2v-9l1-7-1-4-4-1-4-3h-5v-2.2M937.2 992v-1l.8 1h-.8m924.8 4-1-1v-2l3 1-2 2m65-1-2 1h0l-2 1-1-1 2-1 2-1v-1h3l-2 2m-833 7-12 2-5-2h-9l-2-2h-22l-6-3-3 3h-4m165-2h0m-151 32-5-10-5-10-4-7v-3m888 4-1 1-3-1-1-2h1l1-1 1-1h2l2 2 1 2h-3m-825-2 3-2 4 1 2 1m-493.7 29h-3.7l-.4-5-1.6-4-2.1-4-.8-3 2.1-3-2.9-2-1.6-6-1.2-3m-5.3 4 2.4-1 .4-2 2.5-1m1268.9 1h0l1-1 1 1h-2m-1694.6 0h-2.2l1.5-1 .7 1m931.6 0 4 7v3l6 3 3 3v3l2 3 5 1 2 2m-51 16v-17h6v-21l12-2 2 3 4-3 5-1m-500.2 233-4.5-1-2.8 2-5.7 2-.8 9-1.7 2-4-2-2.5-2 6.1-4v-3l-6.1 5-2-1-.8-3-3.7-3 .8-4-3.6-9 .8-2-1.6-5v-12l1.6-2 .4-5-3.7-1 3.3-6-1.6-1h-2.9l-2.8-2 3.6-3 .4-2h3.3l2 2 1.7-3v-6l3.6-2 .4-2-2.8-1 .8-4v-4l1.6-2-.8-5 1.2-1-.4-4-2.4 2h-2.9l-1.6-6 1.6-7h1.7l1.2-5-2.1-6v-8h2.1l.8-3 2-8 2.5-3 .8-6 2-4 1.6-7-1.6-9v-4l2-3-1.2-6 2-3 .9-8h.8l2-11-.8-3 .8-5-.8-5 1.6-1 1.6-8-.8-4v-4l-1.6-10m1280.2 4-2-1 1-1 1 2m-1811 1h-.7l.7-1 .7 1H61m596.6 5v-1l-4.9-3h-5.2l-9.4 2-2.4 5v3l-2.1 6m641.4-9-1-1 1-2h1v2l-1 1m-598.3 29 1.6-7-2.4-3-2.8 1-1.7-3-.4-5-1.6-2-8.1-1-2.9-1 .8-5-1.6-6m1201.4 14-4-2-2-3h-2l-3-2v-1l-2-1-2-2v-2h2l2 2 2 1 2 3 2 1 4 3h1v3m-594-8h1l-1 2-2-1v-1l1-1 1 1m596 0h-1l1-1 1 1h-1m-1827.8 1-1.5-1h1.4v1m82 0h-.7v-1h.7v1m494.2 9 2.4-4 2-1h7.4l2.4 1 1.2 3 1.6-4h6.5l.8 1m491.4 0 10 2m-10-2-6 2-4 5-3 2-1 3-2 2-3 1-1 5-5 1-4-1-3-2-3 1-2 4-5 5-5-1 1-3-2-7-3-1m-440.4-16 3.7 5 4.9 5 5.3 1 6.5 5 6.1 2 .4 2-2.9 4-.8 3-2 2 8.1 2 4.9-1h3.2l1.2-1 3.7-4 .8-5m462.3 2v-9l-3-6-1-5m-79 36-4-3-2-5-3-9v-5l-2-5v-8m-442.2 205-8.6-3h-10.5l-2.1-5 .9-5-1.7-3-3.6 2-2.1-5 .9-7 4.8-4 .8-4-.8-4 3.7-5 .8-4-.8-9 2.8-1-1.2-3 2-3-3.6-1 .8-4-2-7 .4-9 .8-10 1.6-5 .8-5 2.9-1-1.7-7-.8-5 1.7-3 2.8-2 .8-10 2-3 .9-5-4.5-11 1.6-6 2-3-.4-6 2.1-5 2-2 2.4-6 2.9-1-2.1-2 1.3-2-1.3-5 .5-3 1.6-3 5.3-2 1.2-6-.8-1m-326.7 9h.7-.7 0m791.4 3v21l-2 1-2 2h-5l-3-1-3-4-3 3m-379.3-18h3.7l.8 4-.8 5-5.3 2-5.7 6-2.8 4-6.1 7m478.5-26-3-2-4 5 3 4 4 1v-3m0 0v-5m4 5h-4m4 0-2 11-6 4-5 10-8 9-5 5-4 3-4 1h-4l-5 3-6-1h-6l-4 3-3-1-8 3-7-7-3-6 2-1 1-2-1-4-5-8-2-8-2-3m67 9-3 1-2 3-4-2-2-5h1l3-4 5-2 4 4-2 5m741-6h0v-1h1l-1 1m-1180.8 29-.8-4v-3l-2-4-3.7-3-6.5-3-5.3-5h-4.4m0 0-3.7 14m26.4 8-4.5 6-3.6 2-4.1-1-3.2 1-4.9-3h-3.7l-2.8-4 .4-9m0 0-1.2 8v5l6.5 4-.8 4 1.6 3 2 2 .8 3-4.4 6-.8 2-7.8 4-9.7 2h-6.5v3l-2 6 .4 4-4.1 2h-3.7l-6-3-1.3 2 2.1 8 2 1 3.7-1v5l-4.1 1-4.5 5 .8 3-3.2 6-6.5 3-2.9 7 1.7 4 2.8 3 4.9 2v2l-1.2 4-5.3 5-4.5 5v5l-4.9 3-2.4 6 .8 5 3.7 7M1901 1117l3 2 3-2v6l6 2 5-3 2 3v4l-2 3-5 1-1 8-4 6-4 4-3-4 2-6v-2l-7-4v-2l4-2 2-7-3-9-2-2-5-6 2-2 5 2v3l2 3v4m-13 26 4 5 4-1 3 5-6 8-2 2-1 3-7 5-1 5-3 7-5 5-4 1-4-2-8-2-2-1 5-8 5-7 8-3 8-8 1-5 2-1 2-6 1-2m-144 2 4 2 7-1h5v6l-3 8-3 1-1 4-6-1-3-7-1-4-3-7 4-1m-1168.9 15-.8 3-3.6-1 1.6-2v-5l2-3 1.7 3-2.5 2 1.6 3m-8.9 51 2.8-6 1.7 9H567l-.8-3m769.8-5 1 2 2-2 1 3 3-2h1l-1 3-2-1v3l-5-1v-1l-1-3 1-1m-684.9 29-2-2 3.6-6 5.7-1 1.7 3-7.4 4-1.6 2m-5.3-5 1.7-3 3.6 1-2.8 4-2.5-2m-44.3 27-2.4 1-3.6-1-2.9 1-7.3-3 4.5-3h2.8l.8-5 4.5-2v-1h-6.1l1.6-3 3.7-5 2 2 2.4-1m0 0h1.3l2.8 9 2.5 3 6.5 7 2 1-3.7 2-2-1-9.4-1m0 0v-20m760.5 4-2 1 1-1h1m-785.6 7-.4-3h3.6l3.7 3h-6.9m193.8 4 2.4-2 3.7 6-6.1-4m215.7 2v-1h0v1h0m-381.5 7-.8-3h4.5l.8 4-4.5-1m0 2h-7.3l-1.6-4 6.5-1 2.4 5" />
</svg>
