<svg fill="currentColor" fill-rule="evenodd" clip-rule="evenodd" stroke-linejoin="round" stroke-miterlimit="2" version="1.1" viewBox="0 0 24 24" xml:space="preserve" xmlns="http://www.w3.org/2000/svg" xmlns:serif="http://www.serif.com/" xmlns:xlink="http://www.w3.org/1999/xlink">
    <path d="M12,5.25c-1.794,0 -3.25,1.456 -3.25,3.25c-0,1.794 1.456,3.25 3.25,3.25c1.794,0 3.25,-1.456 3.25,-3.25c-0,-1.794 -1.456,-3.25 -3.25,-3.25Zm-0,1.5c0.966,0 1.75,0.784 1.75,1.75c-0,0.966 -0.784,1.75 -1.75,1.75c-0.966,0 -1.75,-0.784 -1.75,-1.75c-0,-0.966 0.784,-1.75 1.75,-1.75Z" />
    <path d="M12,1.25c-4.001,-0 -7.25,3.249 -7.25,7.25c0,1.932 1.082,4.135 2.422,6.067c1.919,2.769 4.319,4.984 4.319,4.984c0.288,0.265 0.73,0.265 1.018,0c-0,0 2.4,-2.215 4.319,-4.984c1.34,-1.932 2.422,-4.135 2.422,-6.067c0,-4.001 -3.249,-7.25 -7.25,-7.25Zm0,1.5c3.174,-0 5.75,2.576 5.75,5.75c0,1.668 -0.998,3.545 -2.154,5.213c-1.295,1.868 -2.82,3.47 -3.596,4.243c-0.776,-0.773 -2.301,-2.375 -3.596,-4.243c-1.156,-1.668 -2.154,-3.545 -2.154,-5.213c0,-3.174 2.576,-5.75 5.75,-5.75Z" />
    <path d="M17.301,16.689c0.638,0.274 1.161,0.593 1.518,0.958c0.261,0.265 0.431,0.546 0.431,0.853c0,0.553 -0.484,1.008 -1.179,1.422c-1.368,0.817 -3.581,1.328 -6.071,1.328c-2.49,-0 -4.703,-0.511 -6.071,-1.328c-0.695,-0.414 -1.179,-0.869 -1.179,-1.422c0,-0.307 0.17,-0.588 0.431,-0.853c0.357,-0.365 0.88,-0.684 1.518,-0.958c0.38,-0.163 0.557,-0.604 0.394,-0.984c-0.163,-0.381 -0.605,-0.557 -0.985,-0.394c-1.831,0.784 -2.858,1.98 -2.858,3.189c0,0.993 0.662,1.966 1.91,2.711c1.544,0.921 4.031,1.539 6.84,1.539c2.809,-0 5.296,-0.618 6.84,-1.539c1.248,-0.745 1.91,-1.718 1.91,-2.711c0,-1.209 -1.027,-2.405 -2.858,-3.189c-0.38,-0.163 -0.822,0.013 -0.985,0.394c-0.163,0.38 0.014,0.821 0.394,0.984Z" />
</svg>
