<svg viewBox="0 0 15 15" fill="none" xmlns="http://www.w3.org/2000/svg">
    <path fill="currentColor" fill-rule="evenodd" clip-rule="evenodd" d="M7.2,3.1c0.2,0.2,0.2,0.5,0,0.7L3.8,7.5l3.4,3.7c0.2,0.2,0.2,0.5,0,0.7c-0.2,0.2-0.5,0.2-0.7,0l-3.8-4 c-0.2-0.2-0.2-0.5,0-0.7l3.8-4C6.7,3,7,2.9,7.2,3.1z" />
    <path fill="currentColor" fill-rule="evenodd" clip-rule="evenodd" d="M12.2,3.1c0.2,0.2,0.2,0.5,0,0.7L8.8,7.5l3.4,3.7c0.2,0.2,0.2,0.5,0,0.7c-0.2,0.2-0.5,0.2-0.7,0l-3.8-4 c-0.2-0.2-0.2-0.5,0-0.7l3.8-4C11.7,3,12,2.9,12.2,3.1z" />
</svg>
