<svg viewBox="0 0 15 15" fill="none" xmlns="http://www.w3.org/2000/svg">
	<path fill="currentColor" fill-rule="evenodd" clip-rule="evenodd" d="M8.5,3.2l3.8,4c0.2,0.2,0.2,0.5,0,0.7l-3.8,4c-0.2,0.2-0.5,0.2-0.7,0c-0.2-0.2-0.2-0.5,0-0.7l3.4-3.7L7.8,3.8 c-0.2-0.2-0.2-0.5,0-0.7C8,2.9,8.3,3,8.5,3.2z" />
	<path fill="currentColor" fill-rule="evenodd" clip-rule="evenodd" d="M3.5,3.2l3.8,4c0.2,0.2,0.2,0.5,0,0.7l-3.8,4c-0.2,0.2-0.5,0.2-0.7,0c-0.2-0.2-0.2-0.5,0-0.7l3.4-3.7L2.8,3.8 c-0.2-0.2-0.2-0.5,0-0.7C3,2.9,3.3,3,3.5,3.2z" />
</svg>
