<svg version="1.1" xmlns="http://www.w3.org/2000/svg" xmlns:xlink="http://www.w3.org/1999/xlink" viewBox="0 0 32 32" xml:space="preserve">
	<path fill="currentColor" d="M1.1,30c0,0.6,0.4,1,1,1l0,0h0.1l7-0.9c0.2,0,0.4-0.1,0.6-0.3L30.2,9.4c1.2-1.3,1.2-3.3,0-4.5l-3-3 c-1.2-1.2-3.2-1.2-4.4,0L2.4,22.3c-0.2,0.2-0.3,0.4-0.3,0.6l-0.9,6.8C1.2,29.8,1.2,29.9,1.1,30z M28.9,8l-3.1,3.3l-4.7-4.7l3.2-3.2 c0.4-0.4,1.2-0.4,1.6,0l3,3C29.3,6.8,29.3,7.6,28.9,8z M3.3,28.9L4,23.5L19.6,7.9l4.7,4.7L8.7,28.2L3.3,28.9z" />
</svg>
