<svg xmlns="http://www.w3.org/2000/svg" viewBox="0 0 102 100" fill="none">
    <path stroke="currentColor" stroke-linecap="round" stroke-linejoin="round" stroke-width="6" d="M16 60.4515V78.3389C16 81.4446 18.5453 84 21.7269 84H93.2731C96.415 84 99 81.4839 99 78.3389V28.9612C99 25.8555 96.4547 23.3001 93.2731 23.3001H51.4351C49.208 23.3001 47.1797 22.0814 46.1854 20.1157L44.1572 16.1844C43.1629 14.2187 41.1346 13 38.9075 13H21.6871C18.5453 13 16 15.5161 16 18.6218V40.7948" />
    <path stroke="currentColor" stroke-linecap="round" stroke-linejoin="round" stroke-width="6" d="M3 50.5L41.6494 50.5M30.0809 39L36.0405 44.75L42 50.5L36.0405 56.25L30.0809 62" />
</svg>
