<svg xmlns="http://www.w3.org/2000/svg" viewBox="0 0 100 100" fill="none">
    <path fill="currentColor" d="M50 0C51.6576 0 53.2473 0.658481 54.4194 1.83058C55.5915 3.00269 56.25 4.5924 56.25 6.25V43.75H93.75C95.4076 43.75 96.9973 44.4085 98.1694 45.5806C99.3415 46.7527 100 48.3424 100 50C100 51.6576 99.3415 53.2473 98.1694 54.4194C96.9973 55.5915 95.4076 56.25 93.75 56.25H56.25V93.75C56.25 95.4076 55.5915 96.9973 54.4194 98.1694C53.2473 99.3415 51.6576 100 50 100C48.3424 100 46.7527 99.3415 45.5806 98.1694C44.4085 96.9973 43.75 95.4076 43.75 93.75V56.25H6.25C4.5924 56.25 3.00269 55.5915 1.83058 54.4194C0.658481 53.2473 0 51.6576 0 50C0 48.3424 0.658481 46.7527 1.83058 45.5806C3.00269 44.4085 4.5924 43.75 6.25 43.75H43.75V6.25C43.75 4.5924 44.4085 3.00269 45.5806 1.83058C46.7527 0.658481 48.3424 0 50 0Z" />
</svg>
