<svg xmlns="http://www.w3.org/2000/svg" viewBox="0 0 101 100" fill="none">
    <path stroke="currentColor" stroke-linecap="round" stroke-linejoin="round" stroke-width="5" d="M98 43L92.25 49L86.5 55L80.75 49L75 43" />
    <path stroke="currentColor" stroke-linecap="round" stroke-linejoin="round" stroke-width="5" d="M3 55L8.75 49L14.5 43L20.25 49L26 55" />
    <path stroke="currentColor" stroke-linecap="round" stroke-width="6" d="M86.74 54C86.9117 52.5416 87 51.0576 87 49.5529C87 28.813 70.2219 12 49.525 12C34.8545 12 22.153 20.4474 16 32.7529" />
    <path stroke="currentColor" stroke-linecap="round" stroke-width="6" d="M14.26 45C14.0883 46.4584 14 47.9424 14 49.4471C14 70.187 30.7781 87 51.475 87C66.1455 87 78.847 78.5526 85 66.2471" />
</svg>
