<svg viewBox="0 0 100 100" fill="none" xmlns="http://www.w3.org/2000/svg">
    <path stroke="currentColor" stroke-width="6" d="M52.2353 87.7121L52.2353 66.3049C52.2353 65.7526 51.7909 65.3049 51.2386 65.3049L33.8342 65.3049C27.7321 65.3049 15.8708 67.5048 4.94028 83.947C4.37747 84.7936 3 84.4107 3 83.3941L3 73.6951C3 51.6037 20.9086 33.6951 43 33.6951L51.2353 33.6951C51.7876 33.6951 52.2353 33.2474 52.2353 32.6951L52.2353 11.2879C52.2353 10.4155 53.2742 9.96144 53.9145 10.5539L95.2069 48.766C95.6346 49.1619 95.6346 49.8381 95.2069 50.2339L53.9145 88.4461C53.2742 89.0386 52.2353 88.5845 52.2353 87.7121Z" />
</svg>
